SplineFontDB: 3.0
FontName: BenchTwelve-Bold
FullName: BenchTwelve Bold
FamilyName: BenchTwelve
Weight: Bold
Copyright: vernon adams (c) 2012
Version: 1
ItalicAngle: 0
UnderlinePosition: 0
UnderlineWidth: 0
Ascent: 1638
Descent: 410
sfntRevision: 0x00010000
LayerCount: 2
Layer: 0 1 "Back"  1
Layer: 1 1 "Fore"  0
XUID: [1021 332 1330122705 16309951]
FSType: 0
OS2Version: 4
OS2_WeightWidthSlopeOnly: 1
OS2_UseTypoMetrics: 1
CreationTime: 1342446537
ModificationTime: 1343128694
PfmFamily: 17
TTFWeight: 700
TTFWidth: 6
LineGap: 0
VLineGap: 0
Panose: 2 0 8 3 0 0 0 0 0 0
OS2TypoAscent: 2077
OS2TypoAOffset: 0
OS2TypoDescent: -750
OS2TypoDOffset: 0
OS2TypoLinegap: 0
OS2WinAscent: 2077
OS2WinAOffset: 0
OS2WinDescent: 750
OS2WinDOffset: 0
HheadAscent: 2077
HheadAOffset: 0
HheadDescent: -750
HheadDOffset: 0
OS2SubXSize: 1331
OS2SubYSize: 1433
OS2SubXOff: 0
OS2SubYOff: 286
OS2SupXSize: 1331
OS2SupYSize: 1433
OS2SupXOff: 0
OS2SupYOff: 983
OS2StrikeYSize: 102
OS2StrikeYPos: 530
OS2Vendor: 'newt'
OS2CodePages: 00000093.00000000
OS2UnicodeRanges: a000006f.4000204a.00000000.00000000
Lookup: 4 0 1 "'liga' Standard Ligatures lookup 0"  {"'liga' Standard Ligatures lookup 0 subtable"  } ['liga' ('DFLT' <'dflt' > 'grek' <'dflt' > 'latn' <'dflt' > ) ]
Lookup: 258 0 0 "'kern' Horizontal Kerning in Latin lookup 0"  {"'kern' Horizontal Kerning in Latin lookup 0 per glyph data 0"  "'kern' Horizontal Kerning in Latin lookup 0 kerning class 1"  } ['kern' ('DFLT' <'dflt' > 'latn' <'dflt' > ) ]
MarkAttachClasses: 1
DEI: 91125
KernClass2: 35 30 "'kern' Horizontal Kerning in Latin lookup 0 kerning class 1" 
 89 A Agrave Aacute Acircumflex Atilde Adieresis Aring Amacron Abreve Aogonek uni0200 uni0202
 1 B
 1 C
 111 D O Q Eth Ograve Oacute Ocircumflex Otilde Odieresis Oslash Dcaron Omacron Obreve Ohungarumlaut uni020C uni020E
 1 F
 1 G
 1 K
 1 L
 1 P
 44 R Racute Rcommaaccent Rcaron uni0210 uni0212
 37 S Sacute Scedilla Scaron Scommaaccent
 16 T Tcaron uni021A

StartChar: .notdef
Encoding: 65536 -1 0
Width: 748
Flags: W
LayerCount: 2
Fore
SplineSet
136 68 m 1,0,-1
 544 68 l 1,1,-1
 544 1297 l 1,2,-1
 136 1297 l 1,3,-1
 136 68 l 1,0,-1
68 0 m 1,4,-1
 68 1365 l 1,5,-1
 612 1365 l 1,6,-1
 612 0 l 1,7,-1
 68 0 l 1,4,-1
EndSplineSet
EndChar

StartChar: exclam
Encoding: 33 33 4
Width: 648
GlyphClass: 2
Flags: W
LayerCount: 2
Fore
SplineSet
304 461 m 2,0,1
 274 461 274 461 263 478 c 128,-1,2
 252 495 252 495 249 531 c 2,3,-1
 161 1397 l 1,4,5
 160 1429 160 1429 179 1448 c 128,-1,6
 198 1467 198 1467 231 1467 c 2,7,-1
 423 1467 l 2,8,9
 454 1467 454 1467 474.5 1439.5 c 0,10,11
 493.177777778 1414.44444444 493.177777778 1414.44444444 493.177777778 1383.99308642 c 0,12,13
 493.177777778 1381.02222222 493.177777778 1381.02222222 493 1378 c 1,14,-1
 410 531 l 2,15,16
 407 495 407 495 396 478 c 128,-1,17
 385 461 385 461 355 461 c 2,18,-1
 304 461 l 2,0,1
218 0 m 2,19,20
 186 0 186 0 167.5 19 c 128,-1,21
 149 38 149 38 149 70 c 2,22,-1
 149 219 l 2,23,24
 149 251 149 251 167.5 270 c 128,-1,25
 186 289 186 289 218 289 c 2,26,-1
 427 289 l 2,27,28
 459 289 459 289 478 270 c 128,-1,29
 497 251 497 251 497 219 c 2,30,-1
 497 70 l 2,31,32
 497 38 497 38 478 19 c 128,-1,33
 459 0 459 0 427 0 c 2,34,-1
 218 0 l 2,19,20
EndSplineSet
EndChar

StartChar: quotedbl
Encoding: 34 34 5
Width: 996
GlyphClass: 2
Flags: W
LayerCount: 2
Fore
SplineSet
698 743 m 2,0,1
 669 743 669 743 659 758.5 c 128,-1,2
 649 774 649 774 643 813 c 2,3,-1
 555 1383 l 1,4,5
 552 1416 552 1416 572.5 1441.5 c 128,-1,6
 593 1467 593 1467 625 1467 c 2,7,-1
 795 1467 l 2,8,9
 827 1467 827 1467 847.5 1441.5 c 0,10,11
 865.382978723 1419.25531915 865.382978723 1419.25531915 865.382978723 1391.30330466 c 0,12,13
 865.382978723 1387.21276596 865.382978723 1387.21276596 865 1383 c 1,14,-1
 783 813 l 2,15,16
 778 776 778 776 767.5 759.5 c 128,-1,17
 757 743 757 743 727 743 c 2,18,-1
 698 743 l 2,0,1
270 743 m 2,19,20
 241 743 241 743 230.5 759 c 128,-1,21
 220 775 220 775 214 813 c 2,22,-1
 127 1383 l 1,23,24
 126.346938776 1388.3877551 126.346938776 1388.3877551 126.346938776 1393.5755935 c 0,25,26
 126.346938776 1420.16326531 126.346938776 1420.16326531 143.5 1441.5 c 0,27,28
 164 1467 164 1467 196 1467 c 2,29,-1
 367 1467 l 2,30,31
 399 1467 399 1467 419 1441.5 c 0,32,33
 436.391304348 1419.32608696 436.391304348 1419.32608696 436.391304348 1391.48109641 c 0,34,35
 436.391304348 1387.30434783 436.391304348 1387.30434783 436 1383 c 1,36,-1
 354 813 l 2,37,38
 349 775 349 775 339 759 c 128,-1,39
 329 743 329 743 299 743 c 2,40,-1
 270 743 l 2,19,20
EndSplineSet
EndChar

StartChar: numbersign
Encoding: 35 35 6
Width: 1748
GlyphClass: 2
Flags: W
LayerCount: 2
Fore
SplineSet
611 585 m 1,0,-1
 1054 585 l 1,1,-1
 1109 820 l 1,2,-1
 666 820 l 1,3,-1
 611 585 l 1,0,-1
1538 457 m 2,4,5
 1538 400 1538 400 1471 400 c 2,6,-1
 1223 400 l 1,7,-1
 1090 -170 l 1,8,9
 1077 -205 1077 -205 1040 -205 c 2,10,-1
 902 -205 l 2,11,12
 889 -205 889 -205 881 -194 c 128,-1,13
 873 -183 873 -183 878 -170 c 1,14,-1
 1011 400 l 1,15,-1
 568 400 l 1,16,-1
 435 -170 l 1,17,18
 422 -205 422 -205 385 -205 c 2,19,-1
 247 -205 l 2,20,21
 234 -205 234 -205 226 -194 c 128,-1,22
 218 -183 218 -183 223 -170 c 1,23,-1
 356 400 l 1,24,-1
 203 400 l 2,25,26
 136 400 136 400 136 457 c 2,27,-1
 136 528 l 2,28,29
 136 585 136 585 203 585 c 2,30,-1
 399 585 l 1,31,-1
 454 820 l 1,32,-1
 278 820 l 2,33,34
 211 820 211 820 211 877 c 2,35,-1
 211 949 l 2,36,37
 211 1006 211 1006 278 1006 c 2,38,-1
 498 1006 l 1,39,-1
 640 1612 l 1,40,41
 653 1647 653 1647 690 1647 c 2,42,-1
 828 1647 l 2,43,44
 841 1647 841 1647 849 1636 c 128,-1,45
 857 1625 857 1625 852 1612 c 1,46,-1
 710 1006 l 1,47,-1
 1153 1006 l 1,48,-1
 1295 1612 l 1,49,50
 1308 1647 1308 1647 1345 1647 c 2,51,-1
 1483 1647 l 2,52,53
 1496 1647 1496 1647 1504 1636 c 128,-1,54
 1512 1625 1512 1625 1507 1612 c 1,55,-1
 1365 1006 l 1,56,-1
 1546 1006 l 2,57,58
 1613 1006 1613 1006 1613 949 c 2,59,-1
 1613 877 l 2,60,61
 1613 820 1613 820 1546 820 c 2,62,-1
 1321 820 l 1,63,-1
 1266 585 l 1,64,-1
 1471 585 l 2,65,66
 1538 585 1538 585 1538 528 c 2,67,-1
 1538 457 l 2,4,5
EndSplineSet
EndChar

StartChar: dollar
Encoding: 36 36 7
Width: 2619
GlyphClass: 2
Flags: W
LayerCount: 2
Fore
SplineSet
1021 868 m 1,0,-1
 1021 1243 l 1,1,2
 755 1240 755 1240 640.5 1192 c 128,-1,3
 526 1144 526 1144 526 1055 c 0,4,5
 526 1008 526 1008 542.5 979.5 c 128,-1,6
 559 951 559 951 610.5 926.5 c 0,7,8
 704.547851563 881.758789062 704.547851563 881.758789062 1021 868 c 1,0,-1
1127 194 m 1,9,10
 1457.23710682 196.871627016 1457.23710682 196.871627016 1547 276.5 c 0,11,12
 1602 325.290322581 1602 325.290322581 1602 393.64516129 c 128,-1,13
 1602 462 1602 462 1584.5 494.5 c 128,-1,14
 1567 527 1567 527 1517.5 553 c 0,15,16
 1424.21153846 602 1424.21153846 602 1127 602 c 1,17,-1
 1127 194 l 1,9,10
1055 -197 m 2,18,19
 1021 -197 1021 -197 1021 -129 c 2,20,-1
 1021 -41 l 1,21,22
 780 -40 780 -40 588.5 -9 c 128,-1,23
 397 22 397 22 190 100 c 0,24,25
 169 108 169 108 157.5 130 c 128,-1,26
 146 152 146 152 149 176 c 1,27,-1
 188 281 l 1,28,29
 209.857142857 327.446428571 209.857142857 327.446428571 256.59630102 327.446428571 c 0,30,31
 261.178571429 327.446428571 261.178571429 327.446428571 266 327 c 1,32,33
 299 320 299 320 381 296 c 128,-1,34
 463 272 463 272 535 253.5 c 0,35,36
 732.761158022 202.686369119 732.761158022 202.686369119 1021 195 c 1,37,-1
 1021 605 l 1,38,39
 632.119041916 617.855568862 632.119041916 617.855568862 459 667.5 c 0,40,41
 299.933286269 713.114719379 299.933286269 713.114719379 229.5 792 c 0,42,43
 148 883.28 148 883.28 148 1024 c 0,44,45
 148 1259.87692308 148 1259.87692308 347 1365.5 c 0,46,47
 553.304347826 1475 553.304347826 1475 1021 1475 c 1,48,-1
 1021 1572 l 2,49,50
 1021 1640 1021 1640 1055 1640 c 2,51,-1
 1093 1640 l 2,52,53
 1127 1640 1127 1640 1127 1572 c 2,54,-1
 1127 1473 l 1,55,56
 1521.88925081 1465.61889251 1521.88925081 1465.61889251 1822 1337 c 0,57,58
 1843 1329 1843 1329 1854.5 1307 c 128,-1,59
 1866 1285 1866 1285 1864 1271 c 0,60,61
 1862.21428571 1258.5 1862.21428571 1258.5 1842.10714286 1213.25 c 128,-1,62
 1822 1168 1822 1168 1819.5 1164 c 128,-1,63
 1817 1160 1817 1160 1812 1153 c 128,-1,64
 1807 1146 1807 1146 1800.5 1142 c 128,-1,65
 1794 1138 1794 1138 1786 1133.5 c 0,66,67
 1769.09677419 1123.99193548 1769.09677419 1123.99193548 1745 1126 c 1,68,69
 1722 1132 1722 1132 1637.5 1155 c 128,-1,70
 1553 1178 1553 1178 1494.5 1192 c 0,71,72
 1331.1631144 1231.0891692 1331.1631144 1231.0891692 1127 1241 c 1,73,-1
 1127 866 l 1,74,75
 1774.35177924 859.745393437 1774.35177924 859.745393437 1929 643.5 c 0,76,77
 1988 561 1988 561 1988 449.5 c 128,-1,78
 1988 338 1988 338 1956 259 c 128,-1,79
 1924 180 1924 180 1859.5 124 c 128,-1,80
 1795 68 1795 68 1690.5 33 c 0,81,82
 1490.12423923 -34.1114988233 1490.12423923 -34.1114988233 1127 -40 c 1,83,-1
 1127 -129 l 2,84,85
 1127 -197 1127 -197 1093 -197 c 2,86,-1
 1055 -197 l 2,18,19
EndSplineSet
EndChar

StartChar: percent
Encoding: 37 37 8
Width: 2648
GlyphClass: 2
Flags: W
LayerCount: 2
Fore
SplineSet
2069 -13 m 128,-1,1
 1961 -13 1961 -13 1874 23.5 c 128,-1,2
 1787 60 1787 60 1732.5 122 c 128,-1,3
 1678 184 1678 184 1649 264 c 128,-1,4
 1620 344 1620 344 1620 434 c 128,-1,5
 1620 524 1620 524 1648.5 604 c 128,-1,6
 1677 684 1677 684 1731 747 c 128,-1,7
 1785 810 1785 810 1872.5 847 c 128,-1,8
 1960 884 1960 884 2069 884 c 128,-1,9
 2178 884 2178 884 2265.5 847 c 128,-1,10
 2353 810 2353 810 2407 747 c 128,-1,11
 2461 684 2461 684 2489.5 604 c 128,-1,12
 2518 524 2518 524 2518 434 c 128,-1,13
 2518 344 2518 344 2489 264 c 128,-1,14
 2460 184 2460 184 2405.5 122 c 128,-1,15
 2351 60 2351 60 2264 23.5 c 128,-1,0
 2177 -13 2177 -13 2069 -13 c 128,-1,1
1892.5 217.5 m 128,-1,17
 1956 139 1956 139 2071 139 c 128,-1,18
 2186 139 2186 139 2248 216.5 c 128,-1,19
 2310 294 2310 294 2310 435.5 c 128,-1,20
 2310 577 2310 577 2249 654.5 c 128,-1,21
 2188 732 2188 732 2071 732 c 128,-1,22
 1954 732 1954 732 1891.5 654 c 128,-1,23
 1829 576 1829 576 1829 436 c 128,-1,16
 1829 296 1829 296 1892.5 217.5 c 128,-1,17
577 599 m 0,24,25
 469 599 469 599 382 635.5 c 128,-1,26
 295 672 295 672 240.5 734 c 0,27,28
 128 861.981651376 128 861.981651376 128 1047 c 0,29,30
 128 1230.5 128 1230.5 239 1360 c 0,31,32
 293 1423 293 1423 380.5 1460 c 128,-1,33
 468 1497 468 1497 577 1497 c 128,-1,34
 686 1497 686 1497 773 1460 c 128,-1,35
 860 1423 860 1423 914 1360 c 0,36,37
 1025 1230.5 1025 1230.5 1025 1047 c 0,38,39
 1025 861.981651376 1025 861.981651376 912.5 734 c 0,40,41
 793.830645161 599 793.830645161 599 577 599 c 0,24,25
399.5 830 m 128,-1,43
 463 751 463 751 578.5 751 c 128,-1,44
 694 751 694 751 755.5 829 c 128,-1,45
 817 907 817 907 817 1048.5 c 128,-1,46
 817 1190 817 1190 756 1267.5 c 128,-1,47
 695 1345 695 1345 578.5 1345 c 128,-1,48
 462 1345 462 1345 399 1266.5 c 128,-1,49
 336 1188 336 1188 336 1048.5 c 128,-1,42
 336 909 336 909 399.5 830 c 128,-1,43
930 -82 m 2,50,51
 902 -82 902 -82 887.5 -59.5 c 0,52,53
 879.254901961 -46.7058823529 879.254901961 -46.7058823529 879.254901961 -33.1034217609 c 0,54,55
 879.254901961 -22.7843137255 879.254901961 -22.7843137255 884 -12 c 2,56,-1
 1539 1466 l 2,57,58
 1552 1497 1552 1497 1582 1516.5 c 128,-1,59
 1612 1536 1612 1536 1647 1536 c 2,60,-1
 1715 1536 l 2,61,62
 1743 1536 1743 1536 1757.5 1513.5 c 0,63,64
 1765.74509804 1500.70588235 1765.74509804 1500.70588235 1765.74509804 1487.10342176 c 0,65,66
 1765.74509804 1476.78431373 1765.74509804 1476.78431373 1761 1466 c 2,67,-1
 1107 -12 l 2,68,69
 1093 -44 1093 -44 1063 -63 c 128,-1,70
 1033 -82 1033 -82 999 -82 c 2,71,-1
 930 -82 l 2,50,51
EndSplineSet
EndChar

StartChar: ampersand
Encoding: 38 38 9
Width: 2668
GlyphClass: 2
Flags: W
LayerCount: 2
Fore
SplineSet
1011 182 m 0,0,1
 1340 182 1340 182 1666 286 c 1,2,3
 1658 327 1658 327 1658 385 c 2,4,-1
 1658 615 l 2,5,6
 1658 645 1658 645 1628 645 c 2,7,-1
 885 645 l 1,8,9
 657.834782609 642.295652174 657.834782609 642.295652174 573.5 553 c 0,10,11
 538.555555556 516 538.555555556 516 532.277777778 459.5 c 0,12,13
 529.067873303 430.610859729 529.067873303 430.610859729 529.067873303 408.649884319 c 0,14,15
 529.067873303 387.660633484 529.067873303 387.660633484 532 373 c 1,16,17
 542.018939394 264.795454545 542.018939394 264.795454545 675.5 222 c 0,18,19
 800.261904762 182 800.261904762 182 1011 182 c 0,0,1
2167 -41 m 0,20,21
 1900 -41 1900 -41 1766 93 c 1,22,23
 1367 -40 1367 -40 1004 -40 c 0,24,25
 356.6375 -40 356.6375 -40 208 213 c 0,26,27
 161 293 161 293 161 415.5 c 128,-1,28
 161 538 161 538 242.5 631 c 128,-1,29
 324 724 324 724 472 740 c 1,30,31
 316 758 316 758 230 840.5 c 128,-1,32
 144 923 144 923 144 1056 c 0,33,34
 144 1270 144 1270 345.5 1372.5 c 128,-1,35
 547 1475 547 1475 994 1475 c 0,36,37
 1126 1475 1126 1475 1284.5 1456.5 c 128,-1,38
 1443 1438 1443 1438 1522 1416 c 0,39,40
 1575 1402 1575 1402 1575 1359 c 0,41,42
 1575 1351 1575 1351 1574 1346 c 2,43,-1
 1564 1242 l 1,44,45
 1558 1198 1558 1198 1520 1198 c 0,46,47
 1508.45454545 1198 1508.45454545 1198 1474.72727273 1205 c 128,-1,48
 1441 1212 1441 1212 1414.5 1217 c 128,-1,49
 1388 1222 1388 1222 1339.5 1228.5 c 128,-1,50
 1291 1235 1291 1235 1242 1240 c 0,51,52
 1124.4 1252 1124.4 1252 988.7 1252 c 128,-1,53
 853 1252 853 1252 759.5 1238 c 128,-1,54
 666 1224 666 1224 615 1197.5 c 0,55,56
 521.940383251 1149.14549326 521.940383251 1149.14549326 516 1064 c 1,57,58
 514.513511896 1049.50674099 514.513511896 1049.50674099 514.513511896 1036.00857768 c 0,59,60
 514.513511896 928.963085805 514.513511896 928.963085805 608 884.5 c 128,-1,61
 701.564102564 840 701.564102564 840 893 840 c 2,62,-1
 1628 840 l 2,63,64
 1658 840 1658 840 1658 870 c 1,65,-1
 1681 1164 l 1,66,67
 1689 1234 1689 1234 1750 1234 c 2,68,-1
 1928 1234 l 2,69,70
 1960 1234 1960 1234 1979 1215 c 128,-1,71
 1998 1196 1998 1196 1998 1164 c 2,72,-1
 1998 870 l 2,73,74
 1998 840 1998 840 2027 840 c 2,75,-1
 2406 840 l 2,76,77
 2438 840 2438 840 2457 821 c 128,-1,78
 2476 802 2476 802 2476 770 c 2,79,-1
 2476 715 l 2,80,81
 2476 683 2476 683 2457 664 c 128,-1,82
 2438 645 2438 645 2406 645 c 2,83,-1
 2027 645 l 2,84,85
 1998 645 1998 645 1998 615 c 2,86,-1
 1998 350 l 2,87,88
 1998 250 1998 250 2057.5 205.5 c 128,-1,89
 2117 161 2117 161 2222 161 c 128,-1,90
 2327 161 2327 161 2446 197 c 0,91,92
 2482 208 2482 208 2497.5 196 c 128,-1,93
 2513 184 2513 184 2520 153 c 1,94,-1
 2527 82 l 1,95,96
 2528.5125 74.3 2528.5125 74.3 2528.5125 67.22390625 c 0,97,98
 2528.5125 22.8375 2528.5125 22.8375 2469 3 c 0,99,100
 2340 -41 2340 -41 2167 -41 c 0,20,21
EndSplineSet
EndChar

StartChar: quotesingle
Encoding: 39 39 10
Width: 580
GlyphClass: 2
Flags: W
LayerCount: 2
Fore
SplineSet
273 743 m 2,0,1
 244 743 244 743 234 758.5 c 128,-1,2
 224 774 224 774 218 813 c 2,3,-1
 130 1383 l 1,4,5
 129.617021277 1387.21276596 129.617021277 1387.21276596 129.617021277 1391.30330466 c 0,6,7
 129.617021277 1419.25531915 129.617021277 1419.25531915 147.5 1441.5 c 0,8,9
 168 1467 168 1467 200 1467 c 2,10,-1
 371 1467 l 2,11,12
 403 1467 403 1467 423 1441.5 c 0,13,14
 440.391304348 1419.32608696 440.391304348 1419.32608696 440.391304348 1391.48109641 c 0,15,16
 440.391304348 1387.30434783 440.391304348 1387.30434783 440 1383 c 1,17,-1
 358 813 l 2,18,19
 353 775 353 775 343 759 c 128,-1,20
 333 743 333 743 303 743 c 2,21,-1
 273 743 l 2,0,1
EndSplineSet
EndChar

StartChar: parenleft
Encoding: 40 40 11
Width: 896
GlyphClass: 2
Flags: W
LayerCount: 2
Fore
SplineSet
701 -143 m 0,0,1
 556 -111 556 -111 446 -31.5 c 128,-1,2
 336 48 336 48 270 161.5 c 0,3,4
 140 385.060606061 140 385.060606061 140 699 c 0,5,6
 140 1009.65925926 140 1009.65925926 275.5 1237.5 c 0,7,8
 343 1351 343 1351 452 1430.5 c 128,-1,9
 561 1510 561 1510 701 1540 c 0,10,11
 707.426229508 1541.60655738 707.426229508 1541.60655738 713.668099973 1541.60655738 c 0,12,13
 734.62295082 1541.60655738 734.62295082 1541.60655738 753.5 1523.5 c 0,14,15
 778 1500 778 1500 778 1470 c 2,16,-1
 778 1427 l 2,17,18
 778 1385.75 778 1385.75 763 1371.375 c 128,-1,19
 748 1357 748 1357 743 1353 c 128,-1,20
 738 1349 738 1349 713.5 1337 c 128,-1,21
 689 1325 689 1325 681 1321 c 0,22,23
 569 1259 569 1259 504 1104 c 128,-1,24
 439 949 439 949 439 694.5 c 128,-1,25
 439 440 439 440 497.5 296.5 c 128,-1,26
 556 153 556 153 681 77 c 0,27,28
 692 70 692 70 718.5 55.5 c 128,-1,29
 745 41 745 41 753 35 c 0,30,31
 778 16.25 778 16.25 778 -30 c 2,32,-1
 778 -73 l 2,33,34
 778 -103 778 -103 753.5 -126.5 c 0,35,36
 734.62295082 -144.606557377 734.62295082 -144.606557377 713.668099973 -144.606557377 c 0,37,38
 707.426229508 -144.606557377 707.426229508 -144.606557377 701 -143 c 0,0,1
EndSplineSet
EndChar

StartChar: parenright
Encoding: 41 41 12
Width: 897
GlyphClass: 2
Flags: W
LayerCount: 2
Fore
SplineSet
194 -143 m 0,0,1
 188.821428571 -143.892857143 188.821428571 -143.892857143 183.802295918 -143.892857143 c 0,2,3
 160.714285714 -143.892857143 160.714285714 -143.892857143 141 -125 c 0,4,5
 117 -102 117 -102 117 -73 c 2,6,-1
 117 -29 l 2,7,8
 117 3.25 117 3.25 124.5 15.125 c 128,-1,9
 132 27 132 27 135 32 c 128,-1,10
 138 37 138 37 150 44.5 c 128,-1,11
 162 52 162 52 167 54.5 c 128,-1,12
 172 57 172 57 190 65.5 c 128,-1,13
 208 74 208 74 214 77 c 0,14,15
 457 198 457 198 457 699 c 128,-1,16
 457 1200 457 1200 214 1321 c 0,17,18
 207 1325 207 1325 189.5 1333 c 128,-1,19
 172 1341 172 1341 167 1344 c 128,-1,20
 162 1347 162 1347 150.5 1354 c 128,-1,21
 139 1361 139 1361 135.5 1366.5 c 128,-1,22
 132 1372 132 1372 126 1381.5 c 0,23,24
 117 1395.75 117 1395.75 117 1428 c 2,25,-1
 117 1470 l 2,26,27
 117 1499 117 1499 141 1522 c 0,28,29
 160.714285714 1540.89285714 160.714285714 1540.89285714 183.802295918 1540.89285714 c 0,30,31
 188.821428571 1540.89285714 188.821428571 1540.89285714 194 1540 c 0,32,33
 537.786704555 1483.17575131 537.786704555 1483.17575131 676.5 1147 c 0,34,35
 755 956.752941176 755 956.752941176 755 698 c 0,36,37
 755 294.582677165 755 294.582677165 570.5 66.5 c 0,38,39
 432.985477304 -103.498268214 432.985477304 -103.498268214 194 -143 c 0,0,1
EndSplineSet
EndChar

StartChar: asterisk
Encoding: 42 42 13
Width: 1300
GlyphClass: 2
Flags: W
LayerCount: 2
Fore
SplineSet
727 782 m 1,0,1
 1004 505 1004 505 1004 434 c 0,2,3
 1004 394 1004 394 973 364.5 c 128,-1,4
 942 335 942 335 908.5 335 c 0,5,6
 844 335 844 335 817 389 c 2,7,-1
 648 728 l 1,8,-1
 479 389 l 2,9,10
 452 335 452 335 402.5 335 c 128,-1,11
 353 335 353 335 322 364.5 c 128,-1,12
 291 394 291 394 291 425.5 c 128,-1,13
 291 457 291 457 313 494 c 128,-1,14
 335 531 335 531 373 575 c 128,-1,15
 411 619 411 619 444.5 654.5 c 128,-1,16
 478 690 478 690 519 731 c 128,-1,17
 560 772 560 772 569 782 c 1,18,-1
 197 864 l 2,19,20
 164 871 164 871 142 897 c 128,-1,21
 120 923 120 923 120 959.5 c 128,-1,22
 120 996 120 996 148 1027.5 c 128,-1,23
 176 1059 176 1059 204.5 1059 c 128,-1,24
 233 1059 233 1059 270 1045 c 128,-1,25
 307 1031 307 1031 359 1004.5 c 128,-1,26
 411 978 411 978 449 957.5 c 128,-1,27
 487 937 487 937 540.5 907.5 c 128,-1,28
 594 878 594 878 600 875 c 1,29,30
 595 912 595 912 580.5 996.5 c 0,31,32
 549 1180.06896552 549 1180.06896552 549 1271 c 0,33,34
 549 1310 549 1310 579 1334.5 c 128,-1,35
 609 1359 609 1359 648.5 1359 c 128,-1,36
 688 1359 688 1359 716 1332 c 128,-1,37
 744 1305 744 1305 744 1257.5 c 128,-1,38
 744 1210 744 1210 736 1145.5 c 128,-1,39
 728 1081 728 1081 714 995 c 128,-1,40
 700 909 700 909 695 875 c 1,41,42
 708 882 708 882 755.5 908 c 128,-1,43
 803 934 803 934 845.5 956.5 c 128,-1,44
 888 979 888 979 937.5 1004 c 0,45,46
 1046.4 1059 1046.4 1059 1083.2 1059 c 128,-1,47
 1120 1059 1120 1059 1147.5 1027.5 c 128,-1,48
 1175 996 1175 996 1175 959.5 c 128,-1,49
 1175 923 1175 923 1153 897 c 128,-1,50
 1131 871 1131 871 1099 864 c 2,51,-1
 727 782 l 1,0,1
EndSplineSet
EndChar

StartChar: plus
Encoding: 43 43 14
Width: 1229
GlyphClass: 2
Flags: W
LayerCount: 2
Fore
SplineSet
759 459 m 2,0,1
 729 459 729 459 729 422 c 2,2,-1
 729 117 l 2,3,4
 729 47 729 47 666 47 c 2,5,-1
 563 47 l 2,6,7
 500 47 500 47 500 117 c 2,8,-1
 500 422 l 2,9,10
 500 459 500 459 470 459 c 2,11,-1
 186 459 l 2,12,13
 123 459 123 459 123 522 c 2,14,-1
 123 624 l 2,15,16
 123 687 123 687 186 687 c 2,17,-1
 470 687 l 2,18,19
 500 687 500 687 500 724 c 2,20,-1
 500 1036 l 2,21,22
 500 1106 500 1106 563 1106 c 2,23,-1
 666 1106 l 2,24,25
 729 1106 729 1106 729 1036 c 2,26,-1
 729 724 l 2,27,28
 729 687 729 687 759 687 c 2,29,-1
 1042 687 l 2,30,31
 1105 687 1105 687 1105 624 c 2,32,-1
 1105 522 l 2,33,34
 1105 459 1105 459 1042 459 c 2,35,-1
 759 459 l 2,0,1
EndSplineSet
EndChar

StartChar: comma
Encoding: 44 44 15
Width: 613
GlyphClass: 2
Flags: W
LayerCount: 2
Fore
SplineSet
304 -276.5 m 0,0,1
 255 -305 255 -305 214 -312 c 0,2,3
 197.830985915 -314.76056338 197.830985915 -314.76056338 184.850228129 -314.76056338 c 0,4,5
 132 -314.76056338 132 -314.76056338 132 -269 c 2,6,-1
 132 -246 l 2,7,8
 132 -211 132 -211 142 -203 c 128,-1,9
 152 -195 152 -195 169 -186 c 0,10,11
 238.721518987 -149.088607595 238.721518987 -149.088607595 264.860759494 -100.544303797 c 128,-1,12
 291 -52 291 -52 291 -26 c 128,-1,13
 291 0 291 0 274 0 c 2,14,-1
 192 0 l 2,15,16
 132 0 132 0 132 56 c 2,17,-1
 132 259 l 2,18,19
 132 327 132 327 192 327 c 2,20,-1
 407 327 l 2,21,22
 439 327 439 327 461.5 304.5 c 128,-1,23
 484 282 484 282 484 250 c 2,24,-1
 484 74 l 2,25,26
 484 -171.806122449 484 -171.806122449 304 -276.5 c 0,0,1
EndSplineSet
EndChar

StartChar: hyphen
Encoding: 45 45 16
Width: 907
GlyphClass: 2
Flags: W
LayerCount: 2
Fore
SplineSet
188 464 m 2,0,1
 124 464 124 464 124 527 c 2,2,-1
 124 624 l 2,3,4
 124 687 124 687 188 687 c 2,5,-1
 720 687 l 2,6,7
 782 687 782 687 782 624 c 2,8,-1
 782 527 l 2,9,10
 782 464 782 464 720 464 c 2,11,-1
 188 464 l 2,0,1
EndSplineSet
EndChar

StartChar: period
Encoding: 46 46 17
Width: 571
GlyphClass: 2
Flags: W
LayerCount: 2
Fore
SplineSet
205 0 m 2,0,1
 173 0 173 0 150.5 22.5 c 128,-1,2
 128 45 128 45 128 77 c 2,3,-1
 128 237 l 2,4,5
 128 269 128 269 150.5 291.5 c 128,-1,6
 173 314 173 314 205 314 c 2,7,-1
 366 314 l 2,8,9
 398 314 398 314 420.5 291.5 c 128,-1,10
 443 269 443 269 443 237 c 2,11,-1
 443 77 l 2,12,13
 443 45 443 45 420.5 22.5 c 128,-1,14
 398 0 398 0 366 0 c 2,15,-1
 205 0 l 2,0,1
EndSplineSet
EndChar

StartChar: slash
Encoding: 47 47 18
Width: 1189
GlyphClass: 2
Flags: W
LayerCount: 2
Fore
SplineSet
172 -230 m 1,0,1
 120.208965285 -226.300640377 120.208965285 -226.300640377 120.208965285 -196.330466044 c 0,2,3
 120.208965285 -189.373104146 120.208965285 -189.373104146 123 -181 c 1,4,-1
 812 1611 l 2,5,6
 825 1647 825 1647 860 1647 c 2,7,-1
 1028 1647 l 2,8,9
 1055 1647 1055 1647 1065 1628.5 c 0,10,11
 1069.76190476 1619.69047619 1069.76190476 1619.69047619 1069.76190476 1607.59297052 c 0,12,13
 1069.76190476 1594.28571429 1069.76190476 1594.28571429 1064 1577 c 1,14,-1
 386 -181 l 1,15,16
 368.36 -230 368.36 -230 322 -230 c 2,17,-1
 172 -230 l 1,0,1
EndSplineSet
EndChar

StartChar: zero
Encoding: 48 48 19
Width: 2060
GlyphClass: 2
Flags: W
LayerCount: 2
Fore
SplineSet
1309.5 -19 m 128,-1,1
 1183 -41 1183 -41 1031.5 -41 c 128,-1,2
 880 -41 880 -41 753.5 -19 c 128,-1,3
 627 3 627 3 510.5 58 c 128,-1,4
 394 113 394 113 313.5 198.5 c 128,-1,5
 233 284 233 284 185 419 c 128,-1,6
 137 554 137 554 137 722 c 128,-1,7
 137 890 137 890 184.5 1018.5 c 128,-1,8
 232 1147 232 1147 313.5 1231 c 128,-1,9
 395 1315 395 1315 510 1371 c 0,10,11
 723.571428571 1475 723.571428571 1475 1031 1475 c 0,12,13
 1514.62721893 1475 1514.62721893 1475 1749 1230.5 c 0,14,15
 1924 1047.9382716 1924 1047.9382716 1924 729 c 0,16,17
 1924 554 1924 554 1876.5 419 c 128,-1,18
 1829 284 1829 284 1749 198.5 c 128,-1,19
 1669 113 1669 113 1552.5 58 c 128,-1,0
 1436 3 1436 3 1309.5 -19 c 128,-1,1
1032 202 m 0,20,21
 1162 202 1162 202 1254.5 228.5 c 128,-1,22
 1347 255 1347 255 1413.5 315.5 c 0,23,24
 1544 434.22556391 1544 434.22556391 1544 711.612781955 c 128,-1,25
 1544 989 1544 989 1418 1112 c 128,-1,26
 1292 1235 1292 1235 1031 1235 c 128,-1,27
 770 1235 770 1235 643 1112.5 c 128,-1,28
 516 990 516 990 516 729 c 0,29,30
 516 435.597014925 516 435.597014925 649 315.5 c 0,31,32
 774.694214876 202 774.694214876 202 1032 202 c 0,20,21
EndSplineSet
EndChar

StartChar: one
Encoding: 49 49 20
Width: 1001
GlyphClass: 2
Flags: W
LayerCount: 2
Fore
SplineSet
529 0 m 2,0,1
 497 0 497 0 478 19 c 128,-1,2
 459 38 459 38 459 70 c 2,3,-1
 459 1134 l 2,4,5
 459 1149 459 1149 448 1160 c 128,-1,6
 437 1171 437 1171 422 1171 c 1,7,-1
 169 1145 l 1,8,9
 137 1145 137 1145 118 1164 c 128,-1,10
 99 1183 99 1183 99 1215 c 2,11,-1
 99 1308 l 2,12,13
 99 1340 99 1340 118 1359 c 128,-1,14
 137 1378 137 1378 169 1378 c 1,15,-1
 772 1438 l 1,16,17
 804 1438 804 1438 822.5 1419 c 128,-1,18
 841 1400 841 1400 841 1368 c 2,19,-1
 841 70 l 2,20,21
 841 38 841 38 822.5 19 c 128,-1,22
 804 0 804 0 772 0 c 2,23,-1
 529 0 l 2,0,1
EndSplineSet
EndChar

StartChar: two
Encoding: 50 50 21
Width: 2060
GlyphClass: 2
Flags: W
LayerCount: 2
Fore
SplineSet
132 91 m 1,0,-1
 138 151 l 1,1,2
 200 524 200 524 526 672 c 0,3,4
 697 749 697 749 1001 781 c 0,5,6
 1040 785 1040 785 1190.5 799 c 128,-1,7
 1341 813 1341 813 1422 837 c 0,8,9
 1574 881.23880597 1574 881.23880597 1574 995 c 0,10,11
 1574 1063 1574 1063 1550.5 1108 c 128,-1,12
 1527 1153 1527 1153 1465.5 1187.5 c 0,13,14
 1348.73913043 1253 1348.73913043 1253 1005 1253 c 0,15,16
 871 1253 871 1253 705 1224.5 c 0,17,18
 458.839687195 1182.23753666 458.839687195 1182.23753666 342 1141 c 1,19,20
 310 1131 310 1131 296 1131 c 0,21,22
 246 1131 246 1131 239 1161 c 1,23,24
 196 1247 196 1247 196 1288.5 c 128,-1,25
 196 1330 196 1330 232 1347 c 1,26,27
 337 1388 337 1388 566 1432 c 128,-1,28
 795 1476 795 1476 951 1476.5 c 0,29,30
 959.210526316 1476.52631579 959.210526316 1476.52631579 967.314404432 1476.52631579 c 0,31,32
 1113.18421053 1476.52631579 1113.18421053 1476.52631579 1224.5 1468 c 0,33,34
 1342 1459 1342 1459 1450 1438 c 128,-1,35
 1558 1417 1558 1417 1638.5 1381 c 128,-1,36
 1719 1345 1719 1345 1779.5 1294 c 0,37,38
 1901.941149 1190.78514713 1901.941149 1190.78514713 1908 1007 c 1,39,40
 1908.24039897 998.265504249 1908.24039897 998.265504249 1908.24039897 989.726529765 c 0,41,42
 1908.24039897 787.569739747 1908.24039897 787.569739747 1773.5 695 c 0,43,44
 1647.67750659 608.557065594 1647.67750659 608.557065594 1435.5 579 c 0,45,46
 1335 565 1335 565 1231.5 555 c 128,-1,47
 1128 545 1128 545 1025 529.5 c 128,-1,48
 922 514 922 514 834.5 489.5 c 0,49,50
 639.829076621 434.992141454 639.829076621 434.992141454 564 295 c 1,51,52
 552 285 552 285 552 264.5 c 128,-1,53
 552 244 552 244 570.5 230 c 128,-1,54
 589 216 589 216 618 216 c 2,55,-1
 1819 216 l 2,56,57
 1867 216 1867 216 1867 152 c 2,58,-1
 1867 59 l 2,59,60
 1867 26 1867 26 1855 13.5 c 128,-1,61
 1843 1 1843 1 1813 1 c 2,62,-1
 228 1 l 2,63,64
 182 1 182 1 157 25 c 128,-1,65
 132 49 132 49 132 91 c 1,0,-1
EndSplineSet
EndChar

StartChar: three
Encoding: 51 51 22
Width: 2040
GlyphClass: 2
Flags: W
LayerCount: 2
Fore
SplineSet
1017 -40 m 0,0,1
 863 -40 863 -40 575.5 -1 c 128,-1,2
 288 38 288 38 194 66 c 1,3,4
 141 80 141 80 141 123 c 0,5,6
 141 131 141 131 142 136 c 2,7,-1
 153 239 l 1,8,9
 159 283 159 283 197 283 c 0,10,11
 206 283 206 283 213.5 281.5 c 2,12,13
 258.5 272.5 l 2,14,15
 848.788236068 184.155872643 848.788236068 184.155872643 1023 182 c 1,16,17
 1396.25 182 1396.25 182 1493 311 c 0,18,19
 1520 347 1520 347 1524.5 393.5 c 0,20,21
 1525.5125 403.9625 1525.5125 403.9625 1525.5125 414.070625 c 0,22,23
 1525.5125 448.8875 1525.5125 448.8875 1513.5 479.5 c 0,24,25
 1498 519 1498 519 1455.5 553.5 c 0,26,27
 1366.1884058 626 1366.1884058 626 1118 626 c 2,28,-1
 882 626 l 2,29,30
 850 626 850 626 850 669 c 2,31,-1
 850 782 l 2,32,33
 850 825 850 825 882 825 c 2,34,-1
 1118 825 l 2,35,36
 1402.01515152 825 1402.01515152 825 1477.5 931 c 0,37,38
 1510.5968689 977.476454207 1510.5968689 977.476454207 1510.5968689 1033.33219128 c 0,39,40
 1510.5968689 1042.88525924 1510.5968689 1042.88525924 1509.62873134 1052.71268657 c 0,41,42
 1503 1120 1503 1120 1468.5 1156.5 c 128,-1,43
 1434 1193 1434 1193 1371.5 1213.5 c 0,44,45
 1254.12195122 1252 1254.12195122 1252 1043 1252 c 0,46,47
 699.6 1252 699.6 1252 266.5 1160.5 c 0,48,49
 216.8 1150 216.8 1150 206 1150 c 0,50,51
 163 1150 163 1150 157 1194 c 2,52,-1
 142 1296 l 2,53,54
 141 1301 141 1301 141 1309 c 0,55,56
 141 1352 141 1352 194 1366 c 1,57,58
 291 1395 291 1395 580.5 1434.5 c 128,-1,59
 870 1474 870 1474 1040 1474 c 0,60,61
 1622.33333333 1474 1622.33333333 1474 1796.5 1274.5 c 0,62,63
 1879 1180 1879 1180 1879 1042 c 128,-1,64
 1879 904 1879 904 1797.5 821 c 128,-1,65
 1716 738 1716 738 1567 723 c 1,66,67
 1723 704 1723 704 1809.5 617 c 128,-1,68
 1896 530 1896 530 1896 396 c 0,69,70
 1896 -40 1896 -40 1017 -40 c 0,0,1
EndSplineSet
EndChar

StartChar: four
Encoding: 52 52 23
Width: 1801
GlyphClass: 2
Flags: W
LayerCount: 2
Fore
SplineSet
556 508 m 0,0,1
 556 481 556 481 587 481 c 2,2,-1
 1081 481 l 1,3,-1
 1081 1368 l 2,4,5
 1081 1400 1081 1400 1100 1419 c 128,-1,6
 1119 1438 1119 1438 1151 1438 c 2,7,-1
 1315 1438 l 2,8,9
 1347 1438 1347 1438 1365.5 1419 c 128,-1,10
 1384 1400 1384 1400 1384 1368 c 2,11,-1
 1384 481 l 1,12,-1
 1608 481 l 2,13,14
 1640 481 1640 481 1659 462 c 128,-1,15
 1678 443 1678 443 1678 411 c 2,16,-1
 1678 314 l 2,17,18
 1678 282 1678 282 1659 263 c 128,-1,19
 1640 244 1640 244 1608 244 c 2,20,-1
 1384 244 l 1,21,-1
 1384 17 l 2,22,23
 1384 -15 1384 -15 1365.5 -34 c 128,-1,24
 1347 -53 1347 -53 1315 -53 c 2,25,-1
 1151 -53 l 2,26,27
 1119 -53 1119 -53 1100 -34 c 128,-1,28
 1081 -15 1081 -15 1081 17 c 2,29,-1
 1081 244 l 1,30,-1
 194 244 l 2,31,32
 165 244 165 244 143.5 259.5 c 128,-1,33
 122 275 122 275 122 290.5 c 128,-1,34
 122 306 122 306 125 314 c 2,35,-1
 447 1368 l 2,36,37
 458 1404 458 1404 472.5 1421 c 128,-1,38
 487 1438 487 1438 517 1438 c 2,39,-1
 726 1438 l 2,40,41
 756 1438 756 1438 777.5 1422.5 c 128,-1,42
 799 1407 799 1407 799 1391.5 c 128,-1,43
 799 1376 799 1376 796 1368 c 2,44,-1
 557 515 l 2,45,46
 556 512 556 512 556 508 c 0,0,1
EndSplineSet
EndChar

StartChar: five
Encoding: 53 53 24
Width: 2141
GlyphClass: 2
Flags: W
LayerCount: 2
Fore
SplineSet
1809 1438 m 2,0,1
 1862 1438 1862 1438 1862 1380 c 0,2,3
 1862 1372 1862 1372 1861 1367 c 2,4,-1
 1848 1263 l 2,5,6
 1842 1219 1842 1219 1804 1219 c 2,7,-1
 590 1233 l 2,8,9
 521.878378378 1233 521.878378378 1233 521.878378378 1166.71950329 c 0,10,11
 521.878378378 1163.91891892 521.878378378 1163.91891892 522 1161 c 2,12,-1
 535 803 l 1,13,14
 648 866 648 866 787 900 c 128,-1,15
 926 934 926 934 1143.5 934 c 128,-1,16
 1361 934 1361 934 1507.5 910 c 128,-1,17
 1654 886 1654 886 1748 844 c 128,-1,18
 1842 802 1842 802 1901 739.5 c 0,19,20
 2008 626.152542373 2008 626.152542373 2008 447 c 0,21,22
 2008 254.213740458 2008 254.213740458 1875.5 147 c 0,23,24
 1741.72569585 38.7551432029 1741.72569585 38.7551432029 1515.5 -1 c 0,25,26
 1293.57142857 -40 1293.57142857 -40 981 -40 c 2,27,-1
 978 -40 l 1,28,29
 815 -39 815 -39 572 -0.5 c 128,-1,30
 329 38 329 38 224 69 c 1,31,32
 171 83 171 83 171 126 c 0,33,34
 171 138 171 138 185 241 c 0,35,36
 191 285 191 285 229 285 c 0,37,38
 240.8 285 240.8 285 302.4 271 c 128,-1,39
 364 257 364 257 433 244 c 128,-1,40
 502 231 502 231 592 216.5 c 0,41,42
 793.724137931 184 793.724137931 184 985 184 c 0,43,44
 1343 184 1343 184 1489 246 c 128,-1,45
 1635 308 1635 308 1635 465 c 0,46,47
 1635 670.567099567 1635 670.567099567 1329.5 719.5 c 0,48,49
 1214 738 1214 738 1076.5 738 c 128,-1,50
 939 738 939 738 852 723.5 c 128,-1,51
 765 709 765 709 713.5 688.5 c 128,-1,52
 662 668 662 668 621.5 647.5 c 0,53,54
 523.707317073 598 523.707317073 598 461 598 c 2,55,-1
 277 598 l 2,56,57
 251.25 598 251.25 598 243.125 603 c 128,-1,58
 235 608 235 608 230 610 c 128,-1,59
 225 612 225 612 221.5 619 c 128,-1,60
 218 626 218 626 216 628.5 c 128,-1,61
 214 631 214 631 212.5 641 c 128,-1,62
 211 651 211 651 210.5 652.5 c 0,63,64
 208 660 208 660 208 680 c 1,65,-1
 144 1318 l 1,66,67
 144 1378 144 1378 164.5 1408 c 128,-1,68
 185 1438 185 1438 234 1438 c 2,69,-1
 1809 1438 l 2,0,1
EndSplineSet
EndChar

StartChar: six
Encoding: 54 54 25
Width: 2018
GlyphClass: 2
Flags: W
LayerCount: 2
Fore
SplineSet
1009 175 m 0,0,1
 1330.3442623 175 1330.3442623 175 1432 254.5 c 0,2,3
 1514 318.628205128 1514 318.628205128 1514 444 c 0,4,5
 1514 608.355769231 1514 608.355769231 1375 668.5 c 0,6,7
 1262.91111111 717 1262.91111111 717 1049.45555556 717 c 128,-1,8
 836 717 836 717 526 670 c 1,9,-1
 526 540 l 2,10,11
 526 353 526 353 644.5 264 c 128,-1,12
 763 175 763 175 1009 175 c 0,0,1
1289 -28 m 0,13,14
 1162 -41 1162 -41 988.5 -41 c 128,-1,15
 815 -41 815 -41 668.5 -6 c 128,-1,16
 522 29 522 29 422.5 93 c 128,-1,17
 323 157 323 157 259 251.5 c 0,18,19
 139 428.6875 139 428.6875 139 713 c 0,20,21
 139 1127.32618026 139 1127.32618026 364.5 1302.5 c 0,22,23
 481 1393 481 1393 653 1433 c 128,-1,24
 825 1473 825 1473 1019 1473 c 128,-1,25
 1213 1473 1213 1473 1408 1440.5 c 128,-1,26
 1603 1408 1603 1408 1697 1373 c 0,27,28
 1732 1361 1732 1361 1732 1329 c 0,29,30
 1732 1320 1732 1320 1730 1315 c 2,31,-1
 1700 1186 l 2,32,33
 1693 1155 1693 1155 1663 1155 c 0,34,35
 1654 1155 1654 1155 1645 1158 c 0,36,37
 1577 1185 1577 1185 1396 1217 c 0,38,39
 1220.48484848 1248.03030303 1220.48484848 1248.03030303 1076.94031221 1248.03030303 c 0,40,41
 1072.45454545 1248.03030303 1072.45454545 1248.03030303 1068 1248 c 0,42,43
 784 1247 784 1247 658.5 1166.5 c 128,-1,44
 533 1086 533 1086 534 909 c 1,45,-1
 534 860 l 1,46,47
 863 907 863 907 1055 907 c 128,-1,48
 1247 907 1247 907 1388.5 883 c 128,-1,49
 1530 859 1530 859 1622.5 816.5 c 128,-1,50
 1715 774 1715 774 1775 713.5 c 0,51,52
 1885 602.583333333 1885 602.583333333 1885 433 c 0,53,54
 1885 33.0078740157 1885 33.0078740157 1289 -28 c 0,13,14
EndSplineSet
EndChar

StartChar: seven
Encoding: 55 55 26
Width: 1215
GlyphClass: 2
Flags: W
LayerCount: 2
Fore
SplineSet
415 0 m 2,0,1
 381 0 381 0 359.5 20 c 128,-1,2
 338 40 338 40 345 70 c 1,3,-1
 683 1171 l 2,4,5
 687 1185 687 1185 678 1195 c 128,-1,6
 669 1205 669 1205 654 1205 c 2,7,-1
 163 1205 l 2,8,9
 131 1205 131 1205 112.5 1224 c 128,-1,10
 94 1243 94 1243 94 1275 c 2,11,-1
 94 1368 l 2,12,13
 94 1400 94 1400 112.5 1419 c 128,-1,14
 131 1438 131 1438 163 1438 c 2,15,-1
 1038 1438 l 2,16,17
 1070 1438 1070 1438 1089 1419 c 128,-1,18
 1108 1400 1108 1400 1108 1368 c 1,19,-1
 714 70 l 1,20,21
 698 0 698 0 644 0 c 2,22,-1
 415 0 l 2,0,1
EndSplineSet
EndChar

StartChar: eight
Encoding: 56 56 27
Width: 2046
GlyphClass: 2
Flags: W
LayerCount: 2
Fore
SplineSet
1355 796 m 1,0,1
 1488 918 1488 918 1488 1046.5 c 128,-1,2
 1488 1175 1488 1175 1376 1232.5 c 128,-1,3
 1264 1290 1264 1290 1023.5 1290 c 128,-1,4
 783 1290 783 1290 671 1241 c 128,-1,5
 559 1192 559 1192 559 1069 c 0,6,7
 559 883 559 883 886 848 c 1,8,9
 1062 822 1062 822 1355 796 c 1,0,1
1438.5 210.5 m 128,-1,11
 1554 261 1554 261 1554 406 c 0,12,13
 1554 500.621848739 1554 500.621848739 1441.5 546 c 0,14,15
 1341.37751004 586.385542169 1341.37751004 586.385542169 1122 615 c 0,16,17
 1010.15748031 629.771653543 1010.15748031 629.771653543 859.578740157 651.385826772 c 128,-1,18
 709 673 709 673 646 682 c 1,19,20
 571 636 571 636 532 568 c 128,-1,21
 493 500 493 500 493 431.5 c 128,-1,22
 493 363 493 363 516 316 c 128,-1,23
 539 269 539 269 580.5 239 c 128,-1,24
 622 209 622 209 690 191.5 c 0,25,26
 812.4 160 812.4 160 1067.7 160 c 129,-1,10
 1323 160 1323 160 1438.5 210.5 c 128,-1,11
1219 -36.5 m 0,27,28
 1130 -41 1130 -41 1023 -41 c 128,-1,29
 916 -41 916 -41 829.5 -37 c 128,-1,30
 743 -33 743 -33 648 -20.5 c 128,-1,31
 553 -8 553 -8 481.5 12.5 c 128,-1,32
 410 33 410 33 343 67.5 c 128,-1,33
 276 102 276 102 232.5 149.5 c 0,34,35
 138 252.689655172 138 252.689655172 138 416 c 0,36,37
 138 533 138 533 224.5 628 c 128,-1,38
 311 723 311 723 425 768 c 1,39,40
 350.41617357 806.299802761 350.41617357 806.299802761 301.708086785 861.649901381 c 0,41,42
 213 962.454545455 213 962.454545455 213 1073 c 0,43,44
 213 1474 213 1474 1024 1474 c 0,45,46
 1474.125 1474 1474.125 1474 1662.5 1342 c 0,47,48
 1811 1237.94160584 1811 1237.94160584 1811 1045 c 0,49,50
 1811 942 1811 942 1745 852 c 128,-1,51
 1679 762 1679 762 1592 731 c 1,52,53
 1731 694 1731 694 1820.5 609.5 c 128,-1,54
 1910 525 1910 525 1910 405 c 0,55,56
 1910 -1.56179775281 1910 -1.56179775281 1219 -36.5 c 0,27,28
EndSplineSet
EndChar

StartChar: nine
Encoding: 57 57 28
Width: 2012
GlyphClass: 2
Flags: W
LayerCount: 2
Fore
SplineSet
1485 762 m 1,0,-1
 1485 892 l 2,1,2
 1485 1079 1485 1079 1367 1168.5 c 128,-1,3
 1249 1258 1249 1258 1003 1258 c 0,4,5
 796.777777778 1258 796.777777778 1258 707.888888889 1233 c 128,-1,6
 619 1208 619 1208 580 1177.5 c 0,7,8
 498 1113.37179487 498 1113.37179487 498 988 c 0,9,10
 498 823.644230769 498 823.644230769 637 763.5 c 0,11,12
 749.088888889 715 749.088888889 715 963.044444444 715 c 128,-1,13
 1177 715 1177 715 1485 762 c 1,0,-1
1358.5 -1 m 128,-1,15
 1186 -41 1186 -41 993 -41 c 128,-1,16
 800 -41 800 -41 605 -8.5 c 128,-1,17
 410 24 410 24 315 59 c 0,18,19
 280 71 280 71 280 103 c 0,20,21
 280 112 280 112 281 117 c 2,22,-1
 311 246 l 2,23,24
 319 277 319 277 349 277 c 0,25,26
 358 277 358 277 367 274 c 0,27,28
 436 247 436 247 616.5 215 c 0,29,30
 791.53030303 183.96969697 791.53030303 183.96969697 935.060146924 183.96969697 c 0,31,32
 939.545454545 183.96969697 939.545454545 183.96969697 944 184 c 0,33,34
 1228 185 1228 185 1353.5 265.5 c 128,-1,35
 1479 346 1479 346 1478 523 c 1,36,-1
 1478 572 l 1,37,38
 1153 524 1153 524 959 524 c 128,-1,39
 765 524 765 524 623.5 548.5 c 128,-1,40
 482 573 482 573 390.5 615 c 128,-1,41
 299 657 299 657 239.5 718.5 c 0,42,43
 131 830.647058824 131 830.647058824 131 1000 c 0,44,45
 131 1399.11067194 131 1399.11067194 723.5 1460 c 0,46,47
 850 1473 850 1473 1023.5 1473 c 128,-1,48
 1197 1473 1197 1473 1343.5 1438 c 128,-1,49
 1490 1403 1490 1403 1589 1339.5 c 128,-1,50
 1688 1276 1688 1276 1752 1181 c 0,51,52
 1872 1002.875 1872 1002.875 1872 719 c 0,53,54
 1872 509 1872 509 1818 364.5 c 128,-1,55
 1764 220 1764 220 1647.5 129.5 c 128,-1,14
 1531 39 1531 39 1358.5 -1 c 128,-1,15
EndSplineSet
EndChar

StartChar: colon
Encoding: 58 58 29
Width: 614
GlyphClass: 2
Flags: W
LayerCount: 2
Fore
SplineSet
226 725 m 2,0,1
 194 725 194 725 171.5 747.5 c 128,-1,2
 149 770 149 770 149 802 c 2,3,-1
 149 961 l 2,4,5
 149 993 149 993 171.5 1015.5 c 128,-1,6
 194 1038 194 1038 226 1038 c 2,7,-1
 388 1038 l 2,8,9
 420 1038 420 1038 442.5 1015.5 c 128,-1,10
 465 993 465 993 465 961 c 2,11,-1
 465 802 l 2,12,13
 465 770 465 770 442.5 747.5 c 128,-1,14
 420 725 420 725 388 725 c 2,15,-1
 226 725 l 2,0,1
226 0 m 2,16,17
 194 0 194 0 171.5 22.5 c 128,-1,18
 149 45 149 45 149 77 c 2,19,-1
 149 237 l 2,20,21
 149 269 149 269 171.5 291.5 c 128,-1,22
 194 314 194 314 226 314 c 2,23,-1
 388 314 l 2,24,25
 420 314 420 314 442.5 291.5 c 128,-1,26
 465 269 465 269 465 237 c 2,27,-1
 465 77 l 2,28,29
 465 45 465 45 442.5 22.5 c 128,-1,30
 420 0 420 0 388 0 c 2,31,-1
 226 0 l 2,16,17
EndSplineSet
EndChar

StartChar: semicolon
Encoding: 59 59 30
Width: 646
GlyphClass: 2
Flags: W
LayerCount: 2
Fore
SplineSet
241 725 m 2,0,1
 209 725 209 725 186.5 747.5 c 128,-1,2
 164 770 164 770 164 802 c 2,3,-1
 164 961 l 2,4,5
 164 993 164 993 186.5 1015.5 c 128,-1,6
 209 1038 209 1038 241 1038 c 2,7,-1
 403 1038 l 2,8,9
 435 1038 435 1038 457.5 1015.5 c 128,-1,10
 480 993 480 993 480 961 c 2,11,-1
 480 802 l 2,12,13
 480 770 480 770 457.5 747.5 c 128,-1,14
 435 725 435 725 403 725 c 2,15,-1
 241 725 l 2,0,1
320 -276.5 m 0,16,17
 271 -305 271 -305 230 -312 c 0,18,19
 213.830985915 -314.76056338 213.830985915 -314.76056338 200.850228129 -314.76056338 c 0,20,21
 148 -314.76056338 148 -314.76056338 148 -269 c 2,22,-1
 148 -246 l 2,23,24
 148 -211 148 -211 158 -203 c 128,-1,25
 168 -195 168 -195 185 -186 c 0,26,27
 254.721518987 -149.088607595 254.721518987 -149.088607595 280.860759494 -100.544303797 c 128,-1,28
 307 -52 307 -52 307 -26 c 128,-1,29
 307 0 307 0 290 0 c 2,30,-1
 208 0 l 2,31,32
 148 0 148 0 148 56 c 2,33,-1
 148 259 l 2,34,35
 148 327 148 327 208 327 c 2,36,-1
 423 327 l 2,37,38
 455 327 455 327 477.5 304.5 c 128,-1,39
 500 282 500 282 500 250 c 2,40,-1
 500 74 l 2,41,42
 500 -171.806122449 500 -171.806122449 320 -276.5 c 0,16,17
EndSplineSet
EndChar

StartChar: less
Encoding: 60 60 31
Width: 1236
GlyphClass: 2
Flags: W
LayerCount: 2
Fore
SplineSet
1060 -46 m 0,0,1
 1056 -46 1056 -46 1022 -32 c 1,2,-1
 194 395 l 1,3,4
 163 409 163 409 145.5 439.5 c 128,-1,5
 128 470 128 470 128 503 c 2,6,-1
 128 705 l 2,7,8
 128 768 128 768 194 806 c 1,9,-1
 1022 1252 l 2,10,11
 1041 1262 1041 1262 1056 1262 c 0,12,13
 1089 1262 1089 1262 1089 1219 c 2,14,-1
 1089 1037 l 2,15,16
 1089 981 1089 981 1021 946 c 2,17,-1
 372 606 l 2,18,19
 363 602 363 602 363 593 c 0,20,21
 363 584 363 584 372 579 c 2,22,-1
 1021 266 l 2,23,24
 1089 233 1089 233 1089 167 c 2,25,-1
 1089 -6 l 2,26,27
 1089 -46 1089 -46 1060 -46 c 0,0,1
EndSplineSet
EndChar

StartChar: equal
Encoding: 61 61 32
Width: 1003
GlyphClass: 2
Flags: W
LayerCount: 2
Fore
SplineSet
202 619 m 2,0,1
 139 619 139 619 139 682 c 2,2,-1
 139 743 l 2,3,4
 139 806 139 806 202 806 c 2,5,-1
 801 806 l 2,6,7
 864 806 864 806 864 743 c 2,8,-1
 864 682 l 2,9,10
 864 619 864 619 801 619 c 2,11,-1
 202 619 l 2,0,1
202 283 m 2,12,13
 139 283 139 283 139 346 c 2,14,-1
 139 406 l 2,15,16
 139 469 139 469 202 469 c 2,17,-1
 801 469 l 2,18,19
 864 469 864 469 864 406 c 2,20,-1
 864 346 l 2,21,22
 864 283 864 283 801 283 c 2,23,-1
 202 283 l 2,12,13
EndSplineSet
EndChar

StartChar: greater
Encoding: 62 62 33
Width: 1237
GlyphClass: 2
Flags: W
LayerCount: 2
Fore
SplineSet
180 -46 m 0,0,1
 146 -46 146 -46 146 -3 c 2,2,-1
 146 179 l 2,3,4
 146 235 146 235 213 270 c 2,5,-1
 863 610 l 2,6,7
 873 616 873 616 873 624.5 c 0,8,9
 873 633 873 633 863 637 c 2,10,-1
 213 950 l 1,11,12
 146 984 146 984 146 1049 c 2,13,-1
 146 1222 l 2,14,15
 146 1262 146 1262 176 1262 c 0,16,17
 181 1262 181 1262 213 1248 c 1,18,-1
 1041 821 l 1,19,20
 1072 807 1072 807 1090 776.5 c 128,-1,21
 1108 746 1108 746 1108 713 c 2,22,-1
 1108 511 l 2,23,24
 1108 449 1108 449 1041 410 c 1,25,-1
 213 -36 l 2,26,27
 196 -46 196 -46 180 -46 c 0,0,1
EndSplineSet
EndChar

StartChar: question
Encoding: 63 63 34
Width: 1789
GlyphClass: 2
Flags: W
LayerCount: 2
Fore
SplineSet
625 0 m 2,0,1
 563 0 563 0 563 63 c 2,2,-1
 563 211 l 2,3,4
 563 274 563 274 625 274 c 2,5,-1
 811 274 l 2,6,7
 874 274 874 274 874 211 c 2,8,-1
 874 63 l 2,9,10
 874 0 874 0 811 0 c 2,11,-1
 625 0 l 2,0,1
609 567 m 0,12,13
 609 643.132075472 609 643.132075472 728 706 c 0,14,15
 781 734 781 734 845 760.5 c 128,-1,16
 909 787 909 787 973 814 c 128,-1,17
 1037 841 1037 841 1089.5 869.5 c 0,18,19
 1208 933.828571429 1208 933.828571429 1208 1010 c 0,20,21
 1208 1159.53266332 1208 1159.53266332 930.5 1193 c 0,22,23
 831 1205 831 1205 718 1205 c 128,-1,24
 605 1205 605 1205 497.5 1189.5 c 128,-1,25
 390 1174 390 1174 306 1158.5 c 128,-1,26
 222 1143 222 1143 196.5 1143 c 0,27,28
 146.888888889 1143 146.888888889 1143 130 1219 c 0,29,30
 118 1273 118 1273 118 1293 c 128,-1,31
 118 1313 118 1313 148.5 1331.5 c 128,-1,32
 179 1350 179 1350 227 1362.5 c 128,-1,33
 275 1375 275 1375 337.5 1385 c 128,-1,34
 400 1395 400 1395 460 1401 c 128,-1,35
 520 1407 520 1407 579 1410.5 c 0,36,37
 671.714285714 1416 671.714285714 1416 782.857142857 1416 c 128,-1,38
 894 1416 894 1416 1027 1392.5 c 128,-1,39
 1160 1369 1160 1369 1262 1321 c 128,-1,40
 1364 1273 1364 1273 1421 1195 c 128,-1,41
 1478 1117 1478 1117 1478 1014 c 0,42,43
 1478 893.162162162 1478 893.162162162 1385 816.5 c 0,44,45
 1296.26923077 743.357068607 1296.26923077 743.357068607 1138 668.5 c 0,46,47
 1101 651 1101 651 1011 610 c 128,-1,48
 921 569 921 569 868.5 544 c 128,-1,49
 816 519 816 519 765.5 482 c 128,-1,50
 715 445 715 445 701 440 c 1,51,52
 609 508 609 508 609 567 c 0,12,13
EndSplineSet
EndChar

StartChar: at
Encoding: 64 64 35
Width: 2244
GlyphClass: 2
Flags: W
LayerCount: 2
Fore
SplineSet
1463 564 m 0,0,1
 1463 766.703389831 1463 766.703389831 1243 824.5 c 0,2,3
 1184 840 1184 840 1112 840 c 128,-1,4
 1040 840 1040 840 981 816.5 c 128,-1,5
 922 793 922 793 888.5 752.5 c 0,6,7
 824 674.52238806 824 674.52238806 824 557.76119403 c 128,-1,8
 824 441 824 441 899.5 362 c 128,-1,9
 975 283 975 283 1116.19354839 283 c 128,-1,10
 1257.38709677 283 1257.38709677 283 1360.19354839 346.108910891 c 128,-1,11
 1463 409.217821782 1463 409.217821782 1463 564 c 0,0,1
1449 -223 m 1,12,13
 1278 -285 1278 -285 1060.5 -285 c 128,-1,14
 843 -285 843 -285 662.5 -213 c 128,-1,15
 482 -141 482 -141 369 -18.5 c 0,16,17
 137 233.004424779 137 233.004424779 137 595 c 0,18,19
 137 780 137 780 208 941 c 128,-1,20
 279 1102 279 1102 407 1220.5 c 128,-1,21
 535 1339 535 1339 725.5 1407 c 128,-1,22
 916 1475 916 1475 1120.5 1475 c 128,-1,23
 1325 1475 1325 1475 1481 1428.5 c 128,-1,24
 1637 1382 1637 1382 1751 1300 c 128,-1,25
 1865 1218 1865 1218 1946 1107.5 c 0,26,27
 2106.93559672 887.95205633 2106.93559672 887.95205633 2109 601 c 1,28,29
 2109 311.831325301 2109 311.831325301 1969.5 192.5 c 0,30,31
 1892.92957746 127 1892.92957746 127 1797.96478873 127 c 128,-1,32
 1703 127 1703 127 1632.5 178.5 c 128,-1,33
 1562 230 1562 230 1558 301 c 1,34,35
 1553 339 1553 339 1541 339 c 0,36,37
 1536 339 1536 339 1533 334.5 c 128,-1,38
 1530 330 1530 330 1528 327.5 c 0,39,40
 1523.33333333 321.666666667 1523.33333333 321.666666667 1520 315 c 0,41,42
 1380 101 1380 101 1112 101 c 0,43,44
 892.330434783 101 892.330434783 101 737.5 220.5 c 0,45,46
 663 278 663 278 619.5 369.5 c 128,-1,47
 576 461 576 461 576 588 c 128,-1,48
 576 715 576 715 644.5 820.5 c 128,-1,49
 713 926 713 926 827.5 978.5 c 128,-1,50
 942 1031 942 1031 1088 1031 c 128,-1,51
 1234 1031 1234 1031 1347.5 967 c 128,-1,52
 1461 903 1461 903 1508 810 c 0,53,54
 1514 798 1514 798 1517.5 798 c 128,-1,55
 1521 798 1521 798 1524 811 c 1,56,-1
 1543 936 l 1,57,58
 1552 986 1552 986 1620 986 c 2,59,-1
 1636 986 l 2,60,61
 1664 986 1664 986 1683 968.5 c 128,-1,62
 1702 951 1702 951 1702 925 c 2,63,-1
 1702 403 l 2,64,65
 1702 338 1702 338 1729 307.5 c 128,-1,66
 1756 277 1756 277 1788.5 277 c 128,-1,67
 1821 277 1821 277 1837.5 287 c 128,-1,68
 1854 297 1854 297 1871.5 327.5 c 0,69,70
 1907 389.371428571 1907 389.371428571 1907 566.185714286 c 128,-1,71
 1907 743 1907 743 1858 866 c 128,-1,72
 1809 989 1809 989 1716 1083 c 128,-1,73
 1623 1177 1623 1177 1477 1231 c 128,-1,74
 1331 1285 1331 1285 1147 1285 c 128,-1,75
 963 1285 963 1285 814.5 1230 c 128,-1,76
 666 1175 666 1175 571 1080 c 0,77,78
 376 885 376 885 376 590 c 0,79,80
 376 238.81097561 376 238.81097561 623 38.5 c 0,81,82
 801.180451128 -106 801.180451128 -106 1096 -106 c 0,83,84
 1266 -106 1266 -106 1398 -53 c 1,85,-1
 1449 -223 l 1,12,13
EndSplineSet
EndChar

StartChar: A
Encoding: 65 65 36
Width: 2066
GlyphClass: 2
Flags: W
LayerCount: 2
Fore
SplineSet
682 509 m 1,0,-1
 681 505 l 1,1,2
 681 495 681 495 693 495 c 2,3,-1
 1338 495 l 2,4,5
 1348 495 1348 495 1348 501.5 c 128,-1,6
 1348 508 1348 508 1346 510 c 2,7,-1
 1029 1186 l 2,8,9
 1028 1190 1028 1190 1024.5 1190 c 128,-1,10
 1021 1190 1021 1190 1019 1186 c 2,11,-1
 682 509 l 1,0,-1
1959 36 m 0,12,13
 1959 0 1959 0 1914 0 c 2,14,-1
 1639 0 l 2,15,16
 1568 0 1568 0 1538 64 c 2,17,-1
 1436 280 l 1,18,19
 1432 292 1432 292 1419 292 c 2,20,-1
 600 292 l 2,21,22
 588 292 588 292 582 279 c 2,23,-1
 477 64 l 1,24,25
 447 0 447 0 378 0 c 2,26,-1
 150 0 l 2,27,28
 105 0 105 0 105 37 c 0,29,30
 105 52 105 52 113 68 c 2,31,-1
 787 1370 l 2,32,33
 820 1435 820 1435 885 1438 c 1,34,-1
 1210 1438 l 1,35,36
 1276 1435 1276 1435 1309 1370 c 2,37,-1
 1949 68 l 2,38,39
 1959 48 1959 48 1959 36 c 0,12,13
EndSplineSet
EndChar

StartChar: B
Encoding: 66 66 37
Width: 2312
GlyphClass: 2
Flags: W
LayerCount: 2
Fore
SplineSet
567 844 m 2,0,-1
 1458 844 l 1,1,2
 1585.32994718 847.800893946 1585.32994718 847.800893946 1637.16497359 874.400446973 c 128,-1,3
 1689 901 1689 901 1707 937 c 128,-1,4
 1725 973 1725 973 1725 1021 c 128,-1,5
 1725 1069 1725 1069 1713.5 1102 c 128,-1,6
 1702 1135 1702 1135 1686 1156 c 128,-1,7
 1670 1177 1670 1177 1640 1192 c 128,-1,8
 1610 1207 1610 1207 1585 1215 c 128,-1,9
 1560 1223 1560 1223 1518.5 1227 c 0,10,11
 1466.625 1232 1466.625 1232 1378 1232 c 2,12,-1
 567 1232 l 2,13,14
 530 1232 530 1232 530 1192 c 2,15,-1
 530 899 l 2,16,17
 530 877 530 877 541 860.5 c 128,-1,18
 552 844 552 844 567 844 c 2,0,-1
567 222 m 2,19,-1
 1387 222 l 2,20,21
 1580.375 222 1580.375 222 1662.5 258 c 0,22,23
 1752.67209776 297.527494908 1752.67209776 297.527494908 1779.5 358.5 c 0,24,25
 1796 396 1796 396 1796 447 c 128,-1,26
 1796 498 1796 498 1779 536.5 c 128,-1,27
 1762 575 1762 575 1732.5 598 c 128,-1,28
 1703 621 1703 621 1656.5 634.5 c 0,29,30
 1575.55555556 658 1575.55555556 658 1441 658 c 2,31,-1
 567 658 l 2,32,33
 530 658 530 658 530 620 c 2,34,-1
 530 257 l 2,35,36
 530 222 530 222 567 222 c 2,19,-1
237 0 m 2,37,38
 205 0 205 0 182.5 22.5 c 128,-1,39
 160 45 160 45 160 77 c 2,40,-1
 160 1359 l 2,41,42
 160 1391 160 1391 182.5 1414.5 c 128,-1,43
 205 1438 205 1438 237 1438 c 2,44,-1
 1435 1438 l 2,45,46
 1767 1438 1767 1438 1922.5 1348 c 128,-1,47
 2078 1258 2078 1258 2078 1040 c 0,48,49
 2078 887 2078 887 1909 788 c 0,50,51
 1900 783.5 1900 783.5 1900 772.75 c 128,-1,52
 1900 762 1900 762 1912 757 c 0,53,54
 2176 649 2176 649 2176 424 c 0,55,56
 2176 233.157480315 2176 233.157480315 2043.5 133 c 0,57,58
 1867.55208333 1.13686837722e-13 1867.55208333 1.13686837722e-13 1390 0 c 2,59,-1
 237 0 l 2,37,38
EndSplineSet
EndChar

StartChar: C
Encoding: 67 67 38
Width: 2284
GlyphClass: 2
Flags: W
LayerCount: 2
Fore
SplineSet
976.5 -31.5 m 0,0,1
 873 -22 873 -22 765 2 c 128,-1,2
 657 26 657 26 566.5 64 c 128,-1,3
 476 102 476 102 394.5 162 c 128,-1,4
 313 222 313 222 256.5 299 c 0,5,6
 134 465.946902655 134 465.946902655 134 720 c 0,7,8
 134 1068.30246914 134 1068.30246914 394 1262.5 c 0,9,10
 678.504132231 1475 678.504132231 1475 1192 1475 c 0,11,12
 1596.55769231 1475 1596.55769231 1475 1860.5 1325 c 0,13,14
 1952 1273 1952 1273 2025.5 1191.5 c 128,-1,15
 2099 1110 2099 1110 2137 1007 c 1,16,17
 2140 992 2140 992 2140 990 c 0,18,19
 2140 977 2140 977 2123 974 c 0,20,21
 2013 958 2013 958 1896 949 c 2,22,-1
 1857 946 l 1,23,24
 1854.69230769 945.897435897 1854.69230769 945.897435897 1852.44247206 945.897435897 c 0,25,26
 1810.82051282 945.897435897 1810.82051282 945.897435897 1789 981 c 1,27,28
 1614 1237 1614 1237 1192 1237 c 1,29,30
 832.519520921 1233.73199564 832.519520921 1233.73199564 656 1063 c 0,31,32
 524 935.327868852 524 935.327868852 524 720 c 0,33,34
 524 375.220338983 524 375.220338983 807.5 261.5 c 0,35,36
 960.653376206 200.065594855 960.653376206 200.065594855 1185.3266881 199.032797428 c 0,37,38
 1189.32515154 199.01441695 1189.32515154 199.01441695 1193.29996402 199.01441695 c 0,39,40
 1412.66951829 199.01441695 1412.66951829 199.01441695 1560 255 c 0,41,42
 1710 312 1710 312 1791 446 c 1,43,44
 1815.02785128 492.053381618 1815.02785128 492.053381618 1855.24291886 492.053381618 c 0,45,46
 1856.61207793 492.053381618 1856.61207793 492.053381618 1858 492 c 1,47,48
 1910.625 492 1910.625 492 2116 461 c 1,49,50
 2140 460 2140 460 2144 431 c 1,51,52
 2144 414 2144 414 2143 407 c 1,53,54
 2082.18461848 232.662572982 2082.18461848 232.662572982 1927.5 133 c 0,55,56
 1771.42671698 32.4427169811 1771.42671698 32.4427169811 1582.5 -4 c 0,57,58
 1389.35346507 -41.2566920177 1389.35346507 -41.2566920177 1186.5693065 -41.2566920177 c 0,59,60
 1082.79659198 -41.2566920177 1082.79659198 -41.2566920177 976.5 -31.5 c 0,0,1
EndSplineSet
EndChar

StartChar: D
Encoding: 68 68 39
Width: 2281
GlyphClass: 2
Flags: W
LayerCount: 2
Fore
SplineSet
230 0 m 2,0,1
 198 0 198 0 179 19 c 128,-1,2
 160 38 160 38 160 70 c 2,3,-1
 160 1367 l 2,4,5
 160 1399 160 1399 179 1418.5 c 128,-1,6
 198 1438 198 1438 230 1438 c 2,7,-1
 1198 1438 l 2,8,9
 1818.45833333 1438 1818.45833333 1438 2041 1111 c 0,10,11
 2145 958.183673469 2145 958.183673469 2145 725 c 0,12,13
 2145 335.185430464 2145 335.185430464 1915.5 168 c 0,14,15
 1723.47678609 28.1155395378 1723.47678609 28.1155395378 1377 6 c 0,16,17
 1283 0 1283 0 1165 0 c 2,18,-1
 230 0 l 2,0,1
1153 1215 m 2,19,-1
 556 1214 l 2,20,21
 551 1214 551 1214 540.5 1204 c 128,-1,22
 530 1194 530 1194 530 1190 c 2,23,-1
 530 252 l 2,24,25
 530 248 530 248 543 237 c 128,-1,26
 556 226 556 226 561 226 c 0,27,28
 852.5 226 852.5 226 1039.75 226 c 128,-1,29
 1227 226 1227 226 1291.5 230.5 c 128,-1,30
 1356 235 1356 235 1424.5 248 c 128,-1,31
 1493 261 1493 261 1543 283.5 c 128,-1,32
 1593 306 1593 306 1639.5 343.5 c 128,-1,33
 1686 381 1686 381 1714.5 432.5 c 0,34,35
 1777 545.438596491 1777 545.438596491 1777 723 c 0,36,37
 1777 1040.91304348 1777 1040.91304348 1521.5 1152 c 0,38,39
 1376.6 1215 1376.6 1215 1153 1215 c 2,19,-1
EndSplineSet
EndChar

StartChar: E
Encoding: 69 69 40
Width: 1868
GlyphClass: 2
Flags: W
LayerCount: 2
Fore
SplineSet
230 0 m 2,0,1
 198 0 198 0 179 19 c 128,-1,2
 160 38 160 38 160 70 c 2,3,-1
 160 1361 l 2,4,5
 160 1394 160 1394 179 1416 c 128,-1,6
 198 1438 198 1438 230 1438 c 2,7,-1
 1640 1438 l 2,8,9
 1671 1438 1671 1438 1690 1416 c 128,-1,10
 1709 1394 1709 1394 1709 1361 c 2,11,-1
 1709 1290 l 2,12,13
 1709 1257 1709 1257 1690 1235 c 128,-1,14
 1671 1213 1671 1213 1640 1213 c 2,15,-1
 571 1213 l 2,16,17
 556 1213 556 1213 549.5 1208 c 128,-1,18
 543 1203 543 1203 543 1188 c 2,19,-1
 543 863 l 2,20,21
 543 858 543 858 550.5 847.5 c 128,-1,22
 558 837 558 837 562 837 c 2,23,-1
 1535 837 l 2,24,25
 1567 837 1567 837 1586 815 c 128,-1,26
 1605 793 1605 793 1605 760 c 2,27,-1
 1605 717 l 2,28,29
 1605 684 1605 684 1586 662 c 128,-1,30
 1567 640 1567 640 1535 640 c 2,31,-1
 566 640 l 2,32,33
 561 640 561 640 552 632 c 128,-1,34
 543 624 543 624 543 620 c 2,35,-1
 543 243 l 2,36,37
 543 238 543 238 550.5 230.5 c 128,-1,38
 558 223 558 223 562 223 c 2,39,-1
 1659 223 l 2,40,41
 1691 223 1691 223 1710 201.5 c 128,-1,42
 1729 180 1729 180 1729 147 c 2,43,-1
 1729 77 l 2,44,45
 1729 44 1729 44 1710 22 c 128,-1,46
 1691 0 1691 0 1659 0 c 2,47,-1
 230 0 l 2,0,1
EndSplineSet
EndChar

StartChar: F
Encoding: 70 70 41
Width: 1806
GlyphClass: 2
Flags: W
LayerCount: 2
Fore
SplineSet
230 0 m 2,0,1
 198 0 198 0 179 19 c 128,-1,2
 160 38 160 38 160 70 c 2,3,-1
 160 1361 l 2,4,5
 160 1394 160 1394 179 1416 c 128,-1,6
 198 1438 198 1438 230 1438 c 2,7,-1
 1625 1438 l 2,8,9
 1656 1438 1656 1438 1675 1416 c 128,-1,10
 1694 1394 1694 1394 1694 1361 c 2,11,-1
 1694 1288 l 2,12,13
 1694 1255 1694 1255 1675 1233 c 128,-1,14
 1656 1211 1656 1211 1625 1211 c 2,15,-1
 568 1211 l 2,16,17
 553 1211 553 1211 548 1204.5 c 128,-1,18
 543 1198 543 1198 543 1183 c 2,19,-1
 543 804 l 2,20,21
 543 800 543 800 549.5 793.5 c 128,-1,22
 556 787 556 787 560 787 c 2,23,-1
 1436 787 l 2,24,25
 1468 787 1468 787 1487 765 c 128,-1,26
 1506 743 1506 743 1506 710 c 2,27,-1
 1506 646 l 2,28,29
 1506 613 1506 613 1487 591 c 128,-1,30
 1468 569 1468 569 1436 569 c 2,31,-1
 564 569 l 2,32,33
 560 569 560 569 551.5 560 c 128,-1,34
 543 551 543 551 543 546 c 2,35,-1
 543 70 l 2,36,37
 543 38 543 38 524 19 c 128,-1,38
 505 0 505 0 473 0 c 2,39,-1
 230 0 l 2,0,1
EndSplineSet
EndChar

StartChar: G
Encoding: 71 71 42
Width: 2352
GlyphClass: 2
Flags: W
LayerCount: 2
Fore
SplineSet
1810.5 421 m 128,-1,1
 1862 485 1862 485 1862 536.5 c 128,-1,2
 1862 588 1862 588 1840 588 c 2,3,-1
 1360 588 l 2,4,5
 1327 588 1327 588 1305 607.5 c 128,-1,6
 1283 627 1283 627 1283 659 c 2,7,-1
 1283 695 l 2,8,9
 1283 727 1283 727 1305 746.5 c 128,-1,10
 1327 766 1327 766 1360 766 c 2,11,-1
 2124 766 l 2,12,13
 2156 766 2156 766 2178.5 743.5 c 128,-1,14
 2201 721 2201 721 2201 689 c 2,15,-1
 2201 77 l 2,16,17
 2201 44 2201 44 2182 22 c 128,-1,18
 2163 0 2163 0 2131 0 c 0,19,20
 2062 0 2062 0 2040 67 c 128,-1,21
 2018 134 2018 134 1994 259 c 1,22,23
 1988 279 1988 279 1983.5 279 c 128,-1,24
 1979 279 1979 279 1969 269 c 1,25,26
 1820.38396772 68.0931415541 1820.38396772 68.0931415541 1503 -4.5 c 0,27,28
 1341.77182043 -41.3766580935 1341.77182043 -41.3766580935 1158.94851076 -41.3766580935 c 0,29,30
 1059.65896434 -41.3766580935 1059.65896434 -41.3766580935 954 -30.5 c 0,31,32
 456.798185941 20.6825396825 456.798185941 20.6825396825 253 306 c 0,33,34
 134 472.6 134 472.6 134 720 c 0,35,36
 134 1067.55555556 134 1067.55555556 395 1262.5 c 0,37,38
 679.504132231 1475 679.504132231 1475 1194 1475 c 0,39,40
 1604.67961165 1475 1604.67961165 1475 1873.5 1328.5 c 0,41,42
 1968 1277 1968 1277 2044.5 1197.5 c 128,-1,43
 2121 1118 2121 1118 2160 1017 c 0,44,45
 2163 1008 2163 1008 2163 996 c 128,-1,46
 2163 984 2163 984 2146 981 c 1,47,48
 2015.8 970.5 2015.8 970.5 1952.9 961.25 c 128,-1,49
 1890 952 1890 952 1889 952 c 0,50,51
 1832 952 1832 952 1792 1010 c 0,52,53
 1713 1123 1713 1123 1556.5 1182.5 c 0,54,55
 1401.30416667 1241.50416667 1401.30416667 1241.50416667 1230.37388889 1241.50416667 c 0,56,57
 1228.9375 1241.50416667 1228.9375 1241.50416667 1227.5 1241.5 c 0,58,59
 1055 1241 1055 1241 937 1211 c 128,-1,60
 819 1181 819 1181 725 1120.5 c 128,-1,61
 631 1060 631 1060 577.5 957.5 c 128,-1,62
 524 855 524 855 524 720 c 0,63,64
 524 195 524 195 1189 195 c 0,65,66
 1330 195 1330 195 1457 226 c 128,-1,67
 1584 257 1584 257 1671.5 307 c 128,-1,0
 1759 357 1759 357 1810.5 421 c 128,-1,1
EndSplineSet
EndChar

StartChar: H
Encoding: 72 72 43
Width: 2159
GlyphClass: 2
Flags: W
LayerCount: 2
Fore
SplineSet
230 0 m 2,0,1
 198 0 198 0 179 19 c 128,-1,2
 160 38 160 38 160 70 c 2,3,-1
 160 1368 l 2,4,5
 160 1400 160 1400 179 1419 c 128,-1,6
 198 1438 198 1438 230 1438 c 2,7,-1
 454 1438 l 2,8,9
 486 1438 486 1438 504.5 1419 c 128,-1,10
 523 1400 523 1400 523 1368 c 2,11,-1
 523 874 l 2,12,13
 523 869 523 869 531.5 860.5 c 128,-1,14
 540 852 540 852 544 852 c 2,15,-1
 1607 852 l 2,16,17
 1612 852 1612 852 1621.5 862 c 128,-1,18
 1631 872 1631 872 1631 876 c 2,19,-1
 1631 1368 l 2,20,21
 1631 1400 1631 1400 1650 1419 c 128,-1,22
 1669 1438 1669 1438 1701 1438 c 2,23,-1
 1929 1438 l 2,24,25
 1961 1438 1961 1438 1980 1419 c 128,-1,26
 1999 1400 1999 1400 1999 1368 c 2,27,-1
 1999 70 l 2,28,29
 1999 38 1999 38 1980 19 c 128,-1,30
 1961 0 1961 0 1929 0 c 2,31,-1
 1700 0 l 2,32,33
 1668 0 1668 0 1649 19 c 128,-1,34
 1630 38 1630 38 1630 70 c 2,35,-1
 1630 607 l 2,36,37
 1630 612 1630 612 1621 621.5 c 128,-1,38
 1612 631 1612 631 1608 631 c 2,39,-1
 547 631 l 2,40,41
 543 631 543 631 534 622 c 128,-1,42
 525 613 525 613 525 609 c 2,43,-1
 525 70 l 2,44,45
 525 38 525 38 506 19 c 128,-1,46
 487 0 487 0 455 0 c 2,47,-1
 230 0 l 2,0,1
EndSplineSet
EndChar

StartChar: I
Encoding: 73 73 44
Width: 695
GlyphClass: 2
Flags: W
LayerCount: 2
Fore
SplineSet
230 0 m 2,0,1
 198 0 198 0 179 19 c 128,-1,2
 160 38 160 38 160 70 c 2,3,-1
 160 1368 l 2,4,5
 160 1400 160 1400 179 1419 c 128,-1,6
 198 1438 198 1438 230 1438 c 2,7,-1
 465 1438 l 2,8,9
 497 1438 497 1438 516 1419 c 128,-1,10
 535 1400 535 1400 535 1368 c 2,11,-1
 535 70 l 2,12,13
 535 38 535 38 516 19 c 128,-1,14
 497 0 497 0 465 0 c 2,15,-1
 230 0 l 2,0,1
EndSplineSet
EndChar

StartChar: J
Encoding: 74 74 45
Width: 1271
GlyphClass: 2
Flags: W
LayerCount: 2
Fore
SplineSet
1057 1438 m 2,0,1
 1116 1438 1116 1438 1116 1380 c 2,2,-1
 1116 504 l 2,3,4
 1116 133.387096774 1116 133.387096774 874.5 -38 c 0,5,6
 632.136363636 -210 632.136363636 -210 123 -210 c 1,7,8
 110 -210 110 -210 100 -196.5 c 128,-1,9
 90 -183 90 -183 90 -162 c 2,10,-1
 90 -16 l 2,11,12
 90 8 90 8 100 20.5 c 128,-1,13
 110 33 110 33 123 33 c 0,14,15
 386.989783282 36.2591331269 386.989783282 36.2591331269 498.5 86.5 c 0,16,17
 609.521072797 136.520483348 609.521072797 136.520483348 657 226 c 0,18,19
 714 333.423076923 714 333.423076923 714 504 c 2,20,-1
 714 1380 l 2,21,22
 714 1407 714 1407 730 1422.5 c 128,-1,23
 746 1438 746 1438 773 1438 c 2,24,-1
 1057 1438 l 2,0,1
EndSplineSet
EndChar

StartChar: K
Encoding: 75 75 46
Width: 1808
GlyphClass: 2
Flags: W
LayerCount: 2
Fore
SplineSet
230 0 m 2,0,1
 198 0 198 0 179 19 c 128,-1,2
 160 38 160 38 160 70 c 2,3,-1
 160 1368 l 2,4,5
 160 1400 160 1400 179 1419 c 128,-1,6
 198 1438 198 1438 230 1438 c 2,7,-1
 465 1438 l 2,8,9
 497 1438 497 1438 516 1419 c 128,-1,10
 535 1400 535 1400 535 1368 c 2,11,-1
 535 782 l 1,12,-1
 1176 1377 l 1,13,14
 1239 1438 1239 1438 1290 1438 c 2,15,-1
 1562 1438 l 2,16,17
 1592 1438 1592 1438 1601.5 1415 c 128,-1,18
 1611 1392 1611 1392 1587 1369 c 1,19,-1
 940 790 l 2,20,21
 937 786 937 786 930.5 780 c 128,-1,22
 924 774 924 774 922 771 c 1,23,24
 933 758 933 758 938 753 c 2,25,-1
 1664 66 l 1,26,27
 1681.45454545 47.8181818182 1681.45454545 47.8181818182 1681.45454545 32.0165289256 c 0,28,29
 1681.45454545 26.0909090909 1681.45454545 26.0909090909 1679 20.5 c 0,30,31
 1670 0 1670 0 1639 0 c 2,32,-1
 1327 0 l 2,33,34
 1279 0 1279 0 1213 66 c 1,35,-1
 535 711 l 1,36,-1
 535 70 l 2,37,38
 535 38 535 38 516 19 c 128,-1,39
 497 0 497 0 465 0 c 2,40,-1
 230 0 l 2,0,1
EndSplineSet
EndChar

StartChar: L
Encoding: 76 76 47
Width: 1565
GlyphClass: 2
Flags: W
LayerCount: 2
Fore
SplineSet
230 0 m 2,0,1
 198 0 198 0 179 19 c 128,-1,2
 160 38 160 38 160 70 c 2,3,-1
 160 1368 l 2,4,5
 160 1400 160 1400 179 1419 c 128,-1,6
 198 1438 198 1438 230 1438 c 2,7,-1
 473 1438 l 2,8,9
 505 1438 505 1438 524 1419 c 128,-1,10
 543 1400 543 1400 543 1368 c 2,11,-1
 543 264 l 2,12,13
 543 249 543 249 554 238 c 128,-1,14
 565 227 565 227 580 227 c 2,15,-1
 1381 227 l 2,16,17
 1413 227 1413 227 1431.5 208.5 c 128,-1,18
 1450 190 1450 190 1450 158 c 2,19,-1
 1450 70 l 2,20,21
 1450 38 1450 38 1431.5 19 c 128,-1,22
 1413 0 1413 0 1381 0 c 2,23,-1
 230 0 l 2,0,1
EndSplineSet
EndChar

StartChar: M
Encoding: 77 77 48
Width: 2595
GlyphClass: 2
Flags: W
LayerCount: 2
Fore
SplineSet
213 0 m 2,0,1
 181 0 181 0 163 19 c 128,-1,2
 145 38 145 38 146 70 c 1,3,-1
 251 1368 l 1,4,5
 255.24217119 1435.87473904 255.24217119 1435.87473904 319 1438 c 1,6,-1
 595 1438 l 1,7,8
 662 1435 662 1435 698 1371 c 2,9,-1
 1279 366 l 2,10,11
 1284 357 1284 357 1291.5 357 c 128,-1,12
 1299 357 1299 357 1304 366 c 2,13,-1
 1899 1371 l 2,14,15
 1936 1435 1936 1435 2003 1438 c 1,16,-1
 2280 1438 l 1,17,18
 2343.75782881 1435.87473904 2343.75782881 1435.87473904 2348 1368 c 2,19,-1
 2448 70 l 2,20,21
 2448.2 66.8 2448.2 66.8 2448.2 63.73 c 0,22,23
 2448.2 36.1 2448.2 36.1 2432 19 c 0,24,25
 2414 0 2414 0 2382 0 c 2,26,-1
 2174 0 l 2,27,28
 2142 0 2142 0 2122 19 c 128,-1,29
 2102 38 2102 38 2100 70 c 2,30,-1
 2027 982 l 2,31,32
 2025.3 997.3 2025.3 997.3 2015.5 987.5 c 0,33,34
 2014 986 2014 986 2013 984 c 2,35,-1
 1468 67 l 2,36,37
 1430 2 1430 2 1363 0 c 1,38,-1
 1217 0 l 1,39,40
 1150 2 1150 2 1113 67 c 2,41,-1
 585 974 l 2,42,43
 574.276595745 992.765957447 574.276595745 992.765957447 572 970 c 2,44,-1
 493 70 l 1,45,46
 492 38 492 38 472.5 19 c 128,-1,47
 453 0 453 0 421 0 c 2,48,-1
 213 0 l 2,0,1
EndSplineSet
EndChar

StartChar: N
Encoding: 78 78 49
Width: 2208
GlyphClass: 2
Flags: W
LayerCount: 2
Fore
SplineSet
230 0 m 2,0,1
 198 0 198 0 179 19 c 128,-1,2
 160 38 160 38 160 70 c 2,3,-1
 160 1373 l 2,4,5
 160 1405 160 1405 179 1424 c 128,-1,6
 198 1443 198 1443 230 1443 c 2,7,-1
 518 1443 l 2,8,9
 566 1443 566 1443 592 1415 c 1,10,-1
 1687 464 l 2,11,12
 1690.4 460.6 1690.4 460.6 1696.7 467.8 c 128,-1,13
 1703 475 1703 475 1703 477 c 2,14,-1
 1703 1367 l 2,15,16
 1703 1399 1703 1399 1722 1418 c 128,-1,17
 1741 1437 1741 1437 1773 1437 c 2,18,-1
 1978 1437 l 2,19,20
 2010 1437 2010 1437 2029 1418 c 128,-1,21
 2048 1399 2048 1399 2048 1367 c 2,22,-1
 2048 65 l 2,23,24
 2048 33 2048 33 2029 14 c 128,-1,25
 2010 -5 2010 -5 1978 -5 c 2,26,-1
 1746 -5 l 2,27,28
 1698 -5 1698 -5 1672 23 c 1,29,-1
 525 1029 l 2,30,31
 523 1031 523 1031 515 1026.5 c 128,-1,32
 507 1022 507 1022 507 1019 c 2,33,-1
 507 70 l 2,34,35
 507 38 507 38 488.5 19 c 128,-1,36
 470 0 470 0 438 0 c 2,37,-1
 230 0 l 2,0,1
EndSplineSet
EndChar

StartChar: O
Encoding: 79 79 50
Width: 2343
GlyphClass: 2
Flags: W
LayerCount: 2
Fore
SplineSet
1172 -41 m 128,-1,1
 1063 -41 1063 -41 963.5 -32 c 128,-1,2
 864 -23 864 -23 757.5 1 c 128,-1,3
 651 25 651 25 562 62 c 128,-1,4
 473 99 473 99 392 159 c 128,-1,5
 311 219 311 219 255.5 296.5 c 0,6,7
 134 466.162162162 134 466.162162162 134 723 c 0,8,9
 134 1067.3875 134 1067.3875 392 1262.5 c 0,10,11
 672.991735537 1475 672.991735537 1475 1172 1475 c 0,12,13
 1519.28205128 1475 1519.28205128 1475 1781.5 1362 c 0,14,15
 2087.78985709 1230.0076859 2087.78985709 1230.0076859 2176.5 947.5 c 0,16,17
 2209 844 2209 844 2209 718 c 128,-1,18
 2209 592 2209 592 2176 483 c 128,-1,19
 2143 374 2143 374 2087.5 296.5 c 128,-1,20
 2032 219 2032 219 1951.5 159 c 128,-1,21
 1871 99 1871 99 1782 62 c 128,-1,22
 1693 25 1693 25 1586.5 1 c 128,-1,23
 1480 -23 1480 -23 1380.5 -32 c 128,-1,0
 1281 -41 1281 -41 1172 -41 c 128,-1,1
1172 196 m 1,24,25
 1283 196 1283 196 1372 209.5 c 128,-1,26
 1461 223 1461 223 1544.5 258.5 c 128,-1,27
 1628 294 1628 294 1684 352 c 0,28,29
 1807 479.392857143 1807 479.392857143 1807 723 c 0,30,31
 1807 1113.53125 1807 1113.53125 1422 1211.5 c 0,32,33
 1310 1240 1310 1240 1186.5 1240 c 128,-1,34
 1063 1240 1063 1240 969.5 1223 c 128,-1,35
 876 1206 876 1206 795 1167 c 128,-1,36
 714 1128 714 1128 657.5 1069 c 0,37,38
 536 942.123893805 536 942.123893805 536 723 c 0,39,40
 536 370.526946108 536 370.526946108 799.5 258.5 c 0,41,42
 946.507042254 196 946.507042254 196 1172 196 c 1,24,25
EndSplineSet
EndChar

StartChar: P
Encoding: 80 80 51
Width: 2136
GlyphClass: 2
Flags: W
LayerCount: 2
Fore
SplineSet
552 1212 m 2,0,1
 530 1212 530 1212 530 1189 c 2,2,-1
 530 687 l 2,3,4
 530 676 530 676 536.5 668.5 c 128,-1,5
 543 661 543 661 552 661 c 2,6,-1
 1073 661 l 2,7,8
 1344.75 661 1344.75 661 1397.875 673.5 c 128,-1,9
 1451 686 1451 686 1492 700 c 128,-1,10
 1533 714 1533 714 1552.5 734.5 c 128,-1,11
 1572 755 1572 755 1591.5 785 c 0,12,13
 1625 836.538461538 1625 836.538461538 1625 919.769230769 c 128,-1,14
 1625 1003 1625 1003 1607.5 1045 c 128,-1,15
 1590 1087 1590 1087 1565.5 1115 c 128,-1,16
 1541 1143 1541 1143 1490 1162 c 128,-1,17
 1439 1181 1439 1181 1398 1191 c 128,-1,18
 1357 1201 1357 1201 1279 1205.5 c 0,19,20
 1166.33333333 1212 1166.33333333 1212 1002 1212 c 2,21,-1
 552 1212 l 2,0,1
230 1437 m 2,22,-1
 1053 1438 l 2,23,24
 1467.57894737 1438 1467.57894737 1438 1632 1394 c 0,25,26
 1821.84979087 1343.19512639 1821.84979087 1343.19512639 1900 1253.5 c 0,27,28
 2002 1136.43181818 2002 1136.43181818 2002 954 c 0,29,30
 2002 765.972972973 2002 765.972972973 1933 669 c 0,31,32
 1896 617 1896 617 1855 579.5 c 128,-1,33
 1814 542 1814 542 1744 518 c 128,-1,34
 1674 494 1674 494 1614.5 479 c 128,-1,35
 1555 464 1555 464 1458 457.5 c 0,36,37
 1286.38461538 446 1286.38461538 446 1098 446 c 2,38,-1
 554 446 l 2,39,40
 544 446 544 446 537 438.5 c 128,-1,41
 530 431 530 431 530 420 c 2,42,-1
 530 70 l 2,43,44
 530 38 530 38 511 19 c 128,-1,45
 492 0 492 0 460 0 c 2,46,-1
 230 0 l 2,47,48
 198 0 198 0 179 19 c 128,-1,49
 160 38 160 38 160 70 c 2,50,-1
 160 1367 l 2,51,52
 160 1399 160 1399 179 1418 c 128,-1,53
 198 1437 198 1437 230 1437 c 2,22,-1
EndSplineSet
EndChar

StartChar: Q
Encoding: 81 81 52
Width: 2343
GlyphClass: 2
Flags: W
LayerCount: 2
Fore
SplineSet
1172 197 m 1,0,1
 1283 197 1283 197 1372 210.5 c 128,-1,2
 1461 224 1461 224 1544.5 259.5 c 128,-1,3
 1628 295 1628 295 1684 353 c 0,4,5
 1807 480.392857143 1807 480.392857143 1807 724 c 0,6,7
 1807 1114.53125 1807 1114.53125 1422 1212.5 c 0,8,9
 1310 1241 1310 1241 1186.5 1241 c 128,-1,10
 1063 1241 1063 1241 969.5 1223.5 c 128,-1,11
 876 1206 876 1206 795 1167 c 128,-1,12
 714 1128 714 1128 657.5 1069 c 0,13,14
 536 942.123893805 536 942.123893805 536 724 c 0,15,16
 536 371.526946108 536 371.526946108 799.5 259.5 c 0,17,18
 946.507042254 197 946.507042254 197 1172 197 c 1,0,1
1643 -513 m 1,19,20
 1621.41860465 -524.906976744 1621.41860465 -524.906976744 1600.94483505 -524.906976744 c 0,21,22
 1593.90697674 -524.906976744 1593.90697674 -524.906976744 1587 -523.5 c 0,23,24
 1560 -518 1560 -518 1544 -491 c 2,25,-1
 1293 -37 l 1,26,27
 1234 -40 1234 -40 1148.5 -40 c 128,-1,28
 1063 -40 1063 -40 963.5 -31 c 128,-1,29
 864 -22 864 -22 757.5 2 c 128,-1,30
 651 26 651 26 562 63 c 128,-1,31
 473 100 473 100 392 160 c 128,-1,32
 311 220 311 220 255.5 297.5 c 0,33,34
 134 467.162162162 134 467.162162162 134 724 c 0,35,36
 134 1068.3875 134 1068.3875 392 1263.5 c 0,37,38
 672.991735537 1476 672.991735537 1476 1172 1476 c 0,39,40
 1519.28205128 1476 1519.28205128 1476 1781.5 1363 c 0,41,42
 2087.78985709 1231.0076859 2087.78985709 1231.0076859 2176.5 948.5 c 0,43,44
 2209 845 2209 845 2209 719 c 128,-1,45
 2209 593 2209 593 2176.5 484.5 c 128,-1,46
 2144 376 2144 376 2088.5 298.5 c 128,-1,47
 2033 221 2033 221 1952.5 161 c 0,48,49
 1805.15625 51.1785714286 1805.15625 51.1785714286 1590 2 c 1,50,-1
 1795 -366 l 2,51,52
 1811 -395 1811 -395 1800 -420.5 c 128,-1,53
 1789 -446 1789 -446 1760 -462 c 1,54,-1
 1643 -513 l 1,19,20
EndSplineSet
EndChar

StartChar: R
Encoding: 82 82 53
Width: 2224
GlyphClass: 2
Flags: W
LayerCount: 2
Fore
SplineSet
552 737 m 2,0,-1
 1158 737 l 2,1,2
 1391.25 737 1391.25 737 1483.125 752 c 128,-1,3
 1575 767 1575 767 1605.5 793 c 0,4,5
 1676 853.098360656 1676 853.098360656 1676 980 c 0,6,7
 1676 1111.04819277 1676 1111.04819277 1556.5 1160 c 0,8,9
 1446.05557019 1205.24229655 1446.05557019 1205.24229655 1237.5 1210.5 c 0,10,11
 1178 1212 1178 1212 1094 1212 c 2,12,-1
 552 1212 l 2,13,14
 548 1212 548 1212 539 1203.5 c 128,-1,15
 530 1195 530 1195 530 1191 c 2,16,-1
 530 757 l 2,17,18
 530 753 530 753 538.5 745 c 128,-1,19
 547 737 547 737 552 737 c 2,0,-1
230 0 m 2,20,21
 198 0 198 0 179 19 c 128,-1,22
 160 38 160 38 160 70 c 2,23,-1
 160 1368 l 2,24,25
 160 1400 160 1400 179 1419 c 128,-1,26
 198 1438 198 1438 230 1438 c 2,27,-1
 1124 1438 l 2,28,29
 1494.2 1438 1494.2 1438 1570.1 1426.5 c 128,-1,30
 1646 1415 1646 1415 1722 1400.5 c 128,-1,31
 1798 1386 1798 1386 1836.5 1365 c 128,-1,32
 1875 1344 1875 1344 1923 1312 c 128,-1,33
 1971 1280 1971 1280 1993.5 1238 c 0,34,35
 2049 1134.4 2049 1134.4 2049 1025.2 c 128,-1,36
 2049 916 2049 916 2023.5 844 c 128,-1,37
 1998 772 1998 772 1948.5 725.5 c 0,38,39
 1858.68580921 641.129093498 1858.68580921 641.129093498 1688 609 c 0,40,41
 1682 607 1682 607 1682 604.5 c 128,-1,42
 1682 602 1682 602 1687 601 c 0,43,44
 1890 554 1890 554 1974 298 c 1,45,46
 1975 288 1975 288 2022 176 c 128,-1,47
 2069 64 2069 64 2069 61 c 1,48,49
 2073.24561404 50.9649122807 2073.24561404 50.9649122807 2073.24561404 42.1960603263 c 0,50,51
 2073.24561404 28.2456140351 2073.24561404 28.2456140351 2062.5 17.5 c 0,52,53
 2045 0 2045 0 2014 0 c 2,54,-1
 1768 0 l 2,55,56
 1734 0 1734 0 1719.5 15 c 128,-1,57
 1705 30 1705 30 1688 68 c 1,58,59
 1684 88 1684 88 1635.5 214 c 128,-1,60
 1587 340 1587 340 1572 370 c 128,-1,61
 1557 400 1557 400 1530 429.5 c 128,-1,62
 1503 459 1503 459 1470 476 c 128,-1,63
 1437 493 1437 493 1408 504 c 128,-1,64
 1379 515 1379 515 1340 519 c 0,65,66
 1281.5 525 1281.5 525 1224 525 c 2,67,-1
 552 525 l 2,68,69
 548 525 548 525 539 516.5 c 128,-1,70
 530 508 530 508 530 503 c 2,71,-1
 530 70 l 2,72,73
 530 38 530 38 511 19 c 128,-1,74
 492 0 492 0 460 0 c 2,75,-1
 230 0 l 2,20,21
EndSplineSet
EndChar

StartChar: S
Encoding: 83 83 54
Width: 2122
GlyphClass: 2
Flags: W
LayerCount: 2
Fore
SplineSet
1394.5 -26 m 0,0,1
 1244 -41 1244 -41 1017 -41 c 128,-1,2
 790 -41 790 -41 595.5 -10.5 c 128,-1,3
 401 20 401 20 190 100 c 0,4,5
 168 108 168 108 156.5 129.5 c 128,-1,6
 145 151 145 151 149 175 c 1,7,-1
 188 281 l 1,8,9
 209.473684211 326.631578947 209.473684211 326.631578947 245.757617729 326.631578947 c 0,10,11
 250.026315789 326.631578947 250.026315789 326.631578947 254.5 326 c 0,12,13
 297 320 297 320 383 294 c 128,-1,14
 469 268 469 268 547.5 248.5 c 0,15,16
 766.897435897 194 766.897435897 194 1031.94871795 194 c 128,-1,17
 1297 194 1297 194 1410.5 218 c 128,-1,18
 1524 242 1524 242 1563 283.5 c 128,-1,19
 1602 325 1602 325 1602 385.5 c 128,-1,20
 1602 446 1602 446 1585 477 c 128,-1,21
 1568 508 1568 508 1516.5 532.5 c 0,22,23
 1422.67394589 577.135695646 1422.67394589 577.135695646 1114 585 c 0,24,25
 661.2 597.754929577 661.2 597.754929577 491 644.5 c 0,26,27
 306.957337884 695.046928328 306.957337884 695.046928328 237 772 c 0,28,29
 147 871 147 871 147 1024 c 0,30,31
 147 1263.48484848 147 1263.48484848 346 1366 c 0,32,33
 557.588235294 1475 557.588235294 1475 1042 1475 c 0,34,35
 1292 1475 1292 1475 1472.5 1442 c 128,-1,36
 1653 1409 1653 1409 1822 1337 c 0,37,38
 1843 1329 1843 1329 1854 1307.5 c 128,-1,39
 1865 1286 1865 1286 1863 1271.5 c 128,-1,40
 1861 1257 1861 1257 1846 1221.5 c 2,41,-1
 1826 1176 l 1,42,43
 1800.71882005 1125.4376401 1800.71882005 1125.4376401 1754.89398961 1125.4376401 c 0,44,45
 1750.06123913 1125.4376401 1750.06123913 1125.4376401 1745 1126 c 1,46,47
 1720 1132 1720 1132 1637.5 1156 c 128,-1,48
 1555 1180 1555 1180 1488.5 1196.5 c 0,49,50
 1301.09090909 1243 1301.09090909 1243 1080.54545455 1243 c 128,-1,51
 860 1243 860 1243 740 1220 c 128,-1,52
 620 1197 620 1197 573 1159 c 128,-1,53
 526 1121 526 1121 526 1076 c 128,-1,54
 526 1031 526 1031 533.5 1009 c 128,-1,55
 541 987 541 987 563.5 966 c 128,-1,56
 586 945 586 945 628 932 c 128,-1,57
 670 919 670 919 740 908 c 0,58,59
 858.906372935 889.314712825 858.906372935 889.314712825 1092.45318647 882.657356412 c 128,-1,60
 1326 876 1326 876 1453 861 c 128,-1,61
 1580 846 1580 846 1685 815 c 128,-1,62
 1790 784 1790 784 1854 735.5 c 0,63,64
 1987 634.7109375 1987 634.7109375 1987 444 c 0,65,66
 1987 227.307142857 1987 227.307142857 1846 113.5 c 0,67,68
 1712.42639117 5.68701573139 1712.42639117 5.68701573139 1394.5 -26 c 0,0,1
EndSplineSet
EndChar

StartChar: T
Encoding: 84 84 55
Width: 1834
GlyphClass: 2
Flags: W
LayerCount: 2
Fore
SplineSet
803 0 m 2,0,1
 771 0 771 0 752.5 19 c 128,-1,2
 734 38 734 38 734 70 c 2,3,-1
 734 1188 l 2,4,5
 734 1217 734 1217 704 1217 c 2,6,-1
 156 1217 l 2,7,8
 124 1217 124 1217 105 1239 c 128,-1,9
 86 1261 86 1261 86 1294 c 2,10,-1
 86 1361 l 2,11,12
 86 1394 86 1394 105 1416 c 128,-1,13
 124 1438 124 1438 156 1438 c 2,14,-1
 1674 1438 l 2,15,16
 1706 1438 1706 1438 1725 1416 c 128,-1,17
 1744 1394 1744 1394 1744 1361 c 2,18,-1
 1744 1294 l 2,19,20
 1744 1261 1744 1261 1725 1239 c 128,-1,21
 1706 1217 1706 1217 1674 1217 c 2,22,-1
 1128 1217 l 2,23,24
 1099 1217 1099 1217 1099 1188 c 2,25,-1
 1099 70 l 2,26,27
 1099 38 1099 38 1080 19 c 128,-1,28
 1061 0 1061 0 1029 0 c 2,29,-1
 803 0 l 2,0,1
EndSplineSet
EndChar

StartChar: U
Encoding: 85 85 56
Width: 2355
GlyphClass: 2
Flags: W
LayerCount: 2
Fore
SplineSet
1183.5 -41 m 1,0,1
 1071 -41 1071 -41 976 -34.5 c 128,-1,2
 881 -28 881 -28 772 -9 c 128,-1,3
 663 10 663 10 577 41.5 c 128,-1,4
 491 73 491 73 409 128 c 128,-1,5
 327 183 327 183 272.5 256 c 0,6,7
 152 417.403669725 152 417.403669725 152 672 c 2,8,-1
 152 1368 l 2,9,10
 152 1398 152 1398 175.5 1418 c 128,-1,11
 199 1438 199 1438 223 1438 c 2,12,-1
 484 1438 l 2,13,14
 525 1438 525 1438 539.5 1420.5 c 128,-1,15
 554 1403 554 1403 554 1368 c 2,16,-1
 554 672 l 2,17,18
 554 413 554 413 695 305 c 0,19,20
 812.867906067 214.718199609 812.867906067 214.718199609 1041 200 c 0,21,22
 1103 196 1103 196 1184.5 196 c 128,-1,23
 1266 196 1266 196 1328 200 c 128,-1,24
 1390 204 1390 204 1458.5 216 c 128,-1,25
 1527 228 1527 228 1577 248.5 c 128,-1,26
 1627 269 1627 269 1674 305 c 128,-1,27
 1721 341 1721 341 1750 390.5 c 0,28,29
 1814 499.74137931 1814 499.74137931 1814 672 c 2,30,-1
 1814 1368 l 2,31,32
 1814 1400 1814 1400 1833 1419 c 128,-1,33
 1852 1438 1852 1438 1884 1438 c 2,34,-1
 2134 1438 l 2,35,36
 2166 1438 2166 1438 2185 1419 c 128,-1,37
 2204 1400 2204 1400 2204 1368 c 2,38,-1
 2204 672 l 2,39,40
 2204 299.790123457 2204 299.790123457 1951 128 c 0,41,42
 1702.10909091 -41 1702.10909091 -41 1183.5 -41 c 1,0,1
EndSplineSet
EndChar

StartChar: V
Encoding: 86 86 57
Width: 2087
GlyphClass: 2
Flags: W
LayerCount: 2
Fore
SplineSet
943 0 m 1,0,1
 877 3 877 3 839 67 c 1,2,-1
 100 1371 l 2,3,4
 88.8846153846 1389.96153846 88.8846153846 1389.96153846 88.8846153846 1404.64792899 c 0,5,6
 88.8846153846 1412.42307692 88.8846153846 1412.42307692 92 1419 c 0,7,8
 101 1438 101 1438 132 1438 c 2,9,-1
 389 1438 l 2,10,11
 459 1438 459 1438 497 1371 c 1,12,-1
 1075 319 l 1,13,-1
 1615 1371 l 2,14,15
 1649.58064516 1438 1649.58064516 1438 1720 1438 c 2,16,-1
 1947 1438 l 2,17,18
 1978 1438 1978 1438 1987.5 1419 c 0,19,20
 1991.18367347 1411.63265306 1991.18367347 1411.63265306 1991.18367347 1402.76176593 c 0,21,22
 1991.18367347 1388.75510204 1991.18367347 1388.75510204 1982 1371 c 2,23,-1
 1286 67 l 2,24,25
 1252 3 1252 3 1187 0 c 1,26,-1
 943 0 l 1,0,1
EndSplineSet
EndChar

StartChar: W
Encoding: 87 87 58
Width: 3304
GlyphClass: 2
Flags: W
LayerCount: 2
Fore
SplineSet
840 0 m 1,0,1
 774 3 774 3 739 68 c 1,2,-1
 104 1370 l 1,3,4
 93.76 1389.2 93.76 1389.2 93.76 1403.8944 c 0,5,6
 93.76 1412.16 93.76 1412.16 97 1419 c 0,7,8
 106 1438 106 1438 137 1438 c 2,9,-1
 394 1438 l 2,10,11
 465 1438 465 1438 500 1370 c 1,12,-1
 972 359 l 1,13,-1
 1453 1370 l 2,14,15
 1484.875 1438 1484.875 1438 1553 1438 c 2,16,-1
 1772 1438 l 1,17,18
 1841 1436 1841 1436 1876 1370 c 1,19,-1
 2391 356 l 1,20,-1
 2835 1370 l 1,21,22
 2867 1438 2867 1438 2939 1438 c 2,23,-1
 3160 1438 l 2,24,25
 3191 1438 3191 1438 3201 1419 c 0,26,27
 3205 1411.4 3205 1411.4 3205 1402.04 c 0,28,29
 3205 1388 3205 1388 3196 1370 c 1,30,-1
 2601 68 l 1,31,32
 2569 3 2569 3 2503 0 c 1,33,-1
 2257 0 l 1,34,35
 2188 3 2188 3 2156 68 c 2,36,-1
 1651 1065 l 1,37,-1
 1173 68 l 2,38,39
 1143 5 1143 5 1078 0 c 1,40,-1
 840 0 l 1,0,1
EndSplineSet
EndChar

StartChar: X
Encoding: 88 88 59
Width: 2113
GlyphClass: 2
Flags: W
LayerCount: 2
Fore
SplineSet
147 0 m 2,0,1
 114 0 114 0 114 23 c 0,2,3
 114 39 114 39 136 62 c 1,4,-1
 855 725 l 1,5,-1
 211 1375 l 1,6,7
 185 1399 185 1399 185 1418.5 c 0,8,9
 185 1438 185 1438 218 1438 c 2,10,-1
 545 1438 l 2,11,12
 615 1438 615 1438 678 1375 c 2,13,-1
 1100 955 l 1,14,-1
 1559 1376 l 1,15,16
 1619 1438 1619 1438 1688 1438 c 2,17,-1
 1927 1438 l 2,18,19
 1960 1438 1960 1438 1960 1415 c 0,20,21
 1960 1401 1960 1401 1938 1376 c 1,22,-1
 1277 770 l 1,23,-1
 1973 63 l 2,24,25
 1998 38 1998 38 1998 23 c 0,26,27
 1998 0 1998 0 1965 0 c 2,28,-1
 1649 0 l 2,29,30
 1579 0 1579 0 1516 63 c 2,31,-1
 1033 542 l 1,32,-1
 506 62 l 1,33,34
 446 0 446 0 377 0 c 2,35,-1
 147 0 l 2,0,1
EndSplineSet
EndChar

StartChar: Y
Encoding: 89 89 60
Width: 1856
GlyphClass: 2
Flags: W
LayerCount: 2
Fore
SplineSet
811 0 m 2,0,1
 779 0 779 0 760.5 19 c 128,-1,2
 742 38 742 38 742 70 c 2,3,-1
 742 628 l 1,4,-1
 99 1373 l 1,5,6
 73 1396 73 1396 73 1414 c 0,7,8
 73 1438 73 1438 108 1438 c 2,9,-1
 388 1438 l 2,10,11
 457 1438 457 1438 517 1373 c 1,12,-1
 947 884 l 1,13,-1
 1368 1372 l 2,14,15
 1425 1438 1425 1438 1494 1438 c 2,16,-1
 1743 1438 l 2,17,18
 1778 1438 1778 1438 1778 1415 c 0,19,20
 1778 1392 1778 1392 1756 1373 c 1,21,-1
 1117 632 l 1,22,-1
 1117 70 l 2,23,24
 1117 38 1117 38 1098 19 c 128,-1,25
 1079 0 1079 0 1047 0 c 2,26,-1
 811 0 l 2,0,1
EndSplineSet
EndChar

StartChar: Z
Encoding: 90 90 61
Width: 1766
GlyphClass: 2
Flags: W
LayerCount: 2
Fore
SplineSet
204 0 m 2,0,1
 172 0 172 0 153 22 c 128,-1,2
 134 44 134 44 134 77 c 2,3,-1
 134 157 l 2,4,5
 134 208 134 208 165 237 c 1,6,-1
 1101 1170 l 1,7,8
 1113 1184 1113 1184 1113 1194 c 0,9,10
 1113 1212 1113 1212 1087 1212 c 2,11,-1
 220 1212 l 2,12,13
 189 1212 189 1212 170 1234 c 128,-1,14
 151 1256 151 1256 151 1289 c 2,15,-1
 151 1361 l 2,16,17
 151 1394 151 1394 170 1416 c 128,-1,18
 189 1438 189 1438 220 1438 c 2,19,-1
 1537 1438 l 2,20,21
 1569 1438 1569 1438 1588 1416 c 128,-1,22
 1607 1394 1607 1394 1607 1361 c 2,23,-1
 1607 1285 l 2,24,25
 1607 1253 1607 1253 1595 1222 c 128,-1,26
 1583 1191 1583 1191 1567 1176 c 2,27,-1
 648 258 l 2,28,29
 637 247 637 247 637 241 c 0,30,31
 637 227 637 227 656 227 c 2,32,-1
 1563 227 l 2,33,34
 1595 227 1595 227 1614 205 c 128,-1,35
 1633 183 1633 183 1633 150 c 2,36,-1
 1633 77 l 2,37,38
 1633 44 1633 44 1614 22 c 128,-1,39
 1595 0 1595 0 1563 0 c 2,40,-1
 204 0 l 2,0,1
EndSplineSet
EndChar

StartChar: bracketleft
Encoding: 91 91 62
Width: 1126
GlyphClass: 2
Flags: W
LayerCount: 2
Fore
SplineSet
238 -107 m 2,0,1
 206 -107 206 -107 183.5 -84.5 c 128,-1,2
 161 -62 161 -62 161 -30 c 2,3,-1
 161 1479 l 2,4,5
 161 1511 161 1511 183.5 1533.5 c 128,-1,6
 206 1556 206 1556 238 1556 c 2,7,-1
 929 1556 l 2,8,9
 999 1556 999 1556 999 1493 c 2,10,-1
 999 1383 l 2,11,12
 999 1320 999 1320 929 1320 c 2,13,-1
 541 1320 l 2,14,15
 511 1320 511 1320 511 1290 c 2,16,-1
 511 152 l 2,17,18
 511 122 511 122 541 122 c 2,19,-1
 929 122 l 2,20,21
 999 122 999 122 999 59 c 2,22,-1
 999 -44 l 2,23,24
 999 -107 999 -107 929 -107 c 2,25,-1
 238 -107 l 2,0,1
EndSplineSet
EndChar

StartChar: backslash
Encoding: 92 92 63
Width: 1189
GlyphClass: 2
Flags: W
LayerCount: 2
Fore
SplineSet
808 -206 m 2,0,1
 771 -206 771 -206 758 -171 c 2,2,-1
 71 1612 l 2,3,4
 69.0769230769 1617 69.0769230769 1617 69.0769230769 1621.70414201 c 0,5,6
 69.0769230769 1629.23076923 69.0769230769 1629.23076923 74 1636 c 0,7,8
 82 1647 82 1647 95 1647 c 2,9,-1
 359 1647 l 2,10,11
 398.0625 1647 398.0625 1647 409 1612 c 1,12,-1
 1096 -170 l 2,13,14
 1097.92307692 -175 1097.92307692 -175 1097.92307692 -179.704142012 c 0,15,16
 1097.92307692 -187.230769231 1097.92307692 -187.230769231 1093 -194 c 0,17,18
 1085 -205 1085 -205 1072 -205 c 2,19,-1
 808 -206 l 2,0,1
EndSplineSet
EndChar

StartChar: bracketright
Encoding: 93 93 64
Width: 1126
GlyphClass: 2
Flags: W
LayerCount: 2
Fore
SplineSet
197 -107 m 2,0,1
 128 -107 128 -107 128 -44 c 2,2,-1
 128 66 l 2,3,4
 128 129 128 129 197 129 c 2,5,-1
 586 129 l 2,6,7
 616 129 616 129 616 159 c 2,8,-1
 616 1297 l 2,9,10
 616 1327 616 1327 586 1327 c 2,11,-1
 197 1327 l 2,12,13
 128 1327 128 1327 128 1390 c 2,14,-1
 128 1493 l 2,15,16
 128 1556 128 1556 197 1556 c 2,17,-1
 889 1556 l 2,18,19
 921 1556 921 1556 943.5 1533.5 c 128,-1,20
 966 1511 966 1511 966 1479 c 2,21,-1
 966 -30 l 2,22,23
 966 -62 966 -62 943.5 -84.5 c 128,-1,24
 921 -107 921 -107 889 -107 c 2,25,-1
 197 -107 l 2,0,1
EndSplineSet
EndChar

StartChar: asciicircum
Encoding: 94 94 65
Width: 1299
GlyphClass: 2
Flags: W
LayerCount: 2
Fore
SplineSet
49 201 m 2,0,1
 29 201 29 201 16 214.5 c 128,-1,2
 3 228 3 228 3 243 c 0,3,4
 3 258 3 258 9 268 c 2,5,-1
 444 1140 l 1,6,7
 481 1207 481 1207 544 1207 c 2,8,-1
 720 1207 l 2,9,10
 783 1207 783 1207 819 1139 c 1,11,-1
 1252 269 l 2,12,13
 1257 260 1257 260 1257 244 c 0,14,15
 1257 228 1257 228 1244 214.5 c 128,-1,16
 1231 201 1231 201 1211 201 c 2,17,-1
 1038 201 l 2,18,19
 975 201 975 201 943 270 c 1,20,-1
 642 895 l 1,21,22
 636 905 636 905 625 905 c 0,23,24
 614 905 614 905 610 895 c 2,25,-1
 321 270 l 1,26,27
 287 201 287 201 226 201 c 2,28,-1
 49 201 l 2,0,1
EndSplineSet
EndChar

StartChar: underscore
Encoding: 95 95 66
Width: 1169
GlyphClass: 2
Flags: W
LayerCount: 2
Fore
SplineSet
167 -194 m 2,0,1
 103 -194 103 -194 103 -131 c 2,2,-1
 103 -62 l 2,3,4
 103 0 103 0 167 0 c 2,5,-1
 999 0 l 2,6,7
 1063 0 1063 0 1063 -62 c 2,8,-1
 1063 -131 l 2,9,10
 1063 -194 1063 -194 999 -194 c 2,11,-1
 167 -194 l 2,0,1
EndSplineSet
EndChar

StartChar: grave
Encoding: 96 96 67
Width: 1745
GlyphClass: 2
Flags: W
LayerCount: 2
Fore
SplineSet
1105 1173 m 2,0,1
 1081 1173 1081 1173 1071 1185.5 c 0,2,3
 1057 1203 1057 1203 1053.5 1209 c 128,-1,4
 1050 1215 1050 1215 1049 1216 c 2,5,-1
 845 1547 l 2,6,7
 829.644031806 1570.73195084 829.644031806 1570.73195084 829.644031806 1580.99222055 c 0,8,9
 829.644031806 1584.64403181 829.644031806 1584.64403181 831.589285714 1586.58928571 c 0,10,11
 839 1594 839 1594 855 1595 c 1,12,13
 855 1598 855 1598 912 1601 c 128,-1,14
 969 1604 969 1604 1028.5 1604 c 128,-1,15
 1088 1604 1088 1604 1101 1591 c 1,16,17
 1126 1582 1126 1582 1132 1548 c 2,18,-1
 1189 1220 l 2,19,20
 1192.13043478 1204.34782609 1192.13043478 1204.34782609 1192.13043478 1194.4120983 c 0,21,22
 1192.13043478 1185.30434783 1192.13043478 1185.30434783 1189.5 1181 c 0,23,24
 1184.55 1172.9 1184.55 1172.9 1171.095 1172.9 c 0,25,26
 1169.6 1172.9 1169.6 1172.9 1168 1173 c 1,27,-1
 1105 1173 l 2,0,1
EndSplineSet
EndChar

StartChar: a
Encoding: 97 97 68
Width: 1780
GlyphClass: 2
Flags: W
LayerCount: 2
Fore
SplineSet
1299 462 m 0,0,1
 1299 485 1299 485 1283 485 c 0,2,3
 1280 485 1280 485 1213.5 481.5 c 128,-1,4
 1147 478 1147 478 1019 467.5 c 128,-1,5
 891 457 891 457 745.5 428.5 c 128,-1,6
 600 400 600 400 537 359.5 c 0,7,8
 474.984375 319.6328125 474.984375 319.6328125 474.984375 257.963256836 c 0,9,10
 474.984375 193.492653918 474.984375 193.492653918 543 160.5 c 0,11,12
 610 128 610 128 761.5 128 c 128,-1,13
 913 128 913 128 1030.5 163 c 128,-1,14
 1148 198 1148 198 1223.5 275.5 c 128,-1,15
 1299 353 1299 353 1299 462 c 0,0,1
1151.5 33 m 128,-1,17
 985 -41 985 -41 713 -41 c 128,-1,18
 441 -41 441 -41 291 32 c 0,19,20
 138.984375 105.9809375 138.984375 105.9809375 138.984375 240.713867188 c 0,21,22
 138.984375 326.046875 138.984375 326.046875 201 392 c 0,23,24
 264 459 264 459 366 497.5 c 128,-1,25
 468 536 468 536 591.5 562.5 c 128,-1,26
 715 589 715 589 838.5 600.5 c 128,-1,27
 962 612 962 612 1064 618 c 0,28,29
 1294 631.529411765 1294 631.529411765 1294 640 c 2,30,-1
 1294 655 l 2,31,32
 1294 767.6 1294 767.6 1217.5 822.5 c 0,33,34
 1134.59016393 882 1134.59016393 882 908 882 c 0,35,36
 751.29787234 882 751.29787234 882 637.14893617 853 c 128,-1,37
 523 824 523 824 480.5 782 c 128,-1,38
 438 740 438 740 413 740 c 0,39,40
 411 740 411 740 393 742 c 2,41,-1
 207 765 l 2,42,43
 194 766 194 766 184.5 777.5 c 128,-1,44
 175 789 175 789 175 808 c 128,-1,45
 175 827 175 827 186 846 c 0,46,47
 249 954 249 954 418 1003.5 c 128,-1,48
 587 1053 587 1053 935.5 1053 c 128,-1,49
 1284 1053 1284 1053 1460 945 c 128,-1,50
 1636 837 1636 837 1636 589 c 2,51,-1
 1636 84 l 2,52,53
 1636 0 1636 0 1582 0 c 2,54,-1
 1524 0 l 2,55,56
 1496 0 1496 0 1479 24.5 c 128,-1,57
 1462 49 1462 49 1447 101 c 2,58,-1
 1412 226 l 1,59,60
 1405 257 1405 257 1401.5 257 c 128,-1,61
 1398 257 1398 257 1395.5 252.5 c 128,-1,62
 1393 248 1393 248 1390 240.5 c 128,-1,63
 1387 233 1387 233 1386 231 c 0,64,16
 1318 107 1318 107 1151.5 33 c 128,-1,17
EndSplineSet
EndChar

StartChar: b
Encoding: 98 98 69
Width: 1796
GlyphClass: 2
Flags: W
LayerCount: 2
Fore
SplineSet
608.5 252.5 m 128,-1,1
 726 159 726 159 909.5 159 c 128,-1,2
 1093 159 1093 159 1209.5 252 c 128,-1,3
 1326 345 1326 345 1326 507 c 0,4,5
 1326 622 1326 622 1268 703 c 0,6,7
 1157.01234568 858 1157.01234568 858 911 858 c 0,8,9
 734.047058824 858 734.047058824 858 616 771.5 c 0,10,11
 491 679.905172414 491 679.905172414 491 512.952586207 c 128,-1,0
 491 346 491 346 608.5 252.5 c 128,-1,1
655 23.5 m 128,-1,13
 499 88 499 88 410 206 c 1,14,15
 406 213 406 213 401 213 c 128,-1,16
 396 213 396 213 390 201 c 2,17,-1
 352 120 l 1,18,19
 304 0 304 0 257 0 c 2,20,-1
 215 0 l 2,21,22
 184 0 184 0 172 16.5 c 128,-1,23
 160 33 160 33 160 67 c 2,24,-1
 160 1364 l 2,25,26
 160 1396 160 1396 179 1415 c 128,-1,27
 198 1434 198 1434 230 1434 c 2,28,-1
 421 1434 l 2,29,30
 453 1434 453 1434 472 1415 c 128,-1,31
 491 1396 491 1396 491 1364 c 2,32,-1
 491 885 l 2,33,34
 491 874 491 874 494.5 874 c 128,-1,35
 498 874 498 874 504 878 c 1,36,37
 666.790697674 1053 666.790697674 1053 979 1053 c 0,38,39
 1323.21774194 1053 1323.21774194 1053 1519.5 870 c 0,40,41
 1586 808 1586 808 1626 713 c 128,-1,42
 1666 618 1666 618 1666 504 c 128,-1,43
 1666 390 1666 390 1625 297.5 c 128,-1,44
 1584 205 1584 205 1516 143.5 c 128,-1,45
 1448 82 1448 82 1358.5 39.5 c 0,46,47
 1188.97647059 -41 1188.97647059 -41 999.988235294 -41 c 128,-1,12
 811 -41 811 -41 655 23.5 c 128,-1,13
EndSplineSet
EndChar

StartChar: c
Encoding: 99 99 70
Width: 1627
GlyphClass: 2
Flags: W
LayerCount: 2
Fore
SplineSet
1181.5 -14.5 m 128,-1,1
 1043 -41 1043 -41 924 -41 c 128,-1,2
 805 -41 805 -41 697 -23.5 c 128,-1,3
 589 -6 589 -6 484.5 35.5 c 128,-1,4
 380 77 380 77 302 138.5 c 128,-1,5
 224 200 224 200 176 294.5 c 128,-1,6
 128 389 128 389 128 496.5 c 128,-1,7
 128 604 128 604 161 687 c 128,-1,8
 194 770 194 770 252.5 828.5 c 128,-1,9
 311 887 311 887 386.5 931 c 128,-1,10
 462 975 462 975 551.5 1001.5 c 0,11,12
 725.433962264 1053 725.433962264 1053 890.216981132 1053 c 0,13,14
 1225.45454545 1053 1225.45454545 1053 1445 938 c 0,15,16
 1481.23188406 918.434782609 1481.23188406 918.434782609 1481.23188406 888.367569838 c 0,17,18
 1481.23188406 876.942028986 1481.23188406 876.942028986 1476 864 c 0,19,20
 1474 858 1474 858 1460.5 825 c 128,-1,21
 1447 792 1447 792 1445 786 c 0,22,23
 1432.93243243 756.148648649 1432.93243243 756.148648649 1403.11541271 756.148648649 c 0,24,25
 1385.98648649 756.148648649 1385.98648649 756.148648649 1363 766 c 1,26,27
 1170 857 1170 857 940 857 c 0,28,29
 757 857 757 857 619 777 c 0,30,31
 550 737 550 737 509 667 c 128,-1,32
 468 597 468 597 468 508 c 128,-1,33
 468 419 468 419 507.5 350 c 128,-1,34
 547 281 547 281 616 238.5 c 0,35,36
 754.811764706 153 754.811764706 153 949.905882353 153 c 129,-1,37
 1145 153 1145 153 1352 237 c 0,38,39
 1373.52777778 245.680555556 1373.52777778 245.680555556 1389.50964506 245.680555556 c 0,40,41
 1419.55555556 245.680555556 1419.55555556 245.680555556 1430 215 c 1,42,-1
 1438 195 l 2,43,44
 1450.5 163.75 1450.5 163.75 1459.25 137.875 c 0,45,46
 1463.76687872 124.51794437 1463.76687872 124.51794437 1463.76687872 112.880148419 c 0,47,48
 1463.76687872 77.4912100673 1463.76687872 77.4912100673 1422 58 c 0,49,0
 1320 12 1320 12 1181.5 -14.5 c 128,-1,1
EndSplineSet
EndChar

StartChar: d
Encoding: 100 100 71
Width: 1797
GlyphClass: 2
Flags: W
LayerCount: 2
Fore
SplineSet
587 252 m 128,-1,1
 704 159 704 159 887.5 159 c 128,-1,2
 1071 159 1071 159 1189 252.5 c 0,3,4
 1306.00840336 345.214285714 1306.00840336 345.214285714 1306.00840336 504.29888426 c 0,5,6
 1306.00840336 620.988264271 1306.00840336 620.988264271 1248 702 c 0,7,8
 1136.2962963 858 1136.2962963 858 885 858 c 1,9,10
 638.987654321 858 638.987654321 858 528 703 c 0,11,12
 470 622 470 622 470 507 c 0,13,0
 470 345 470 345 587 252 c 128,-1,1
171 297.5 m 0,14,15
 130 390 130 390 130 504 c 128,-1,16
 130 618 130 618 170 713 c 128,-1,17
 210 808 210 808 276.5 870 c 128,-1,18
 343 932 343 932 433 974.5 c 0,19,20
 599.235294118 1053 599.235294118 1053 817 1053 c 0,21,22
 1125.14117647 1053 1125.14117647 1053 1290 880 c 0,23,24
 1292 878 1292 878 1296 874.5 c 128,-1,25
 1300 871 1300 871 1303 870.5 c 128,-1,26
 1306 870 1306 870 1306 889 c 2,27,-1
 1306 1364 l 2,28,29
 1306 1396 1306 1396 1324.5 1415 c 128,-1,30
 1343 1434 1343 1434 1375 1434 c 2,31,-1
 1567 1434 l 2,32,33
 1599 1434 1599 1434 1618 1415 c 128,-1,34
 1637 1396 1637 1396 1637 1364 c 2,35,-1
 1637 70 l 2,36,37
 1637 0 1637 0 1577 0 c 2,38,-1
 1548 0 l 2,39,40
 1502 0 1502 0 1466 69 c 1,41,42
 1419 166 1419 166 1410.5 190 c 128,-1,43
 1402 214 1402 214 1397 217 c 1,44,45
 1388 210 1388 210 1383 202 c 0,46,47
 1294 86 1294 86 1139 22.5 c 128,-1,48
 984 -41 984 -41 796.235294118 -41 c 128,-1,49
 608.470588235 -41 608.470588235 -41 426.710037756 44.8313710596 c 128,-1,50
 244.949487277 130.662742119 244.949487277 130.662742119 171 297.5 c 0,14,15
EndSplineSet
EndChar

StartChar: e
Encoding: 101 101 72
Width: 1703
GlyphClass: 2
Flags: W
LayerCount: 2
Fore
SplineSet
488 599 m 2,0,-1
 1275 599 l 2,1,2
 1278 599 1278 599 1278 609 c 1,3,4
 1233.74228234 758.795352064 1233.74228234 758.795352064 1133 820.5 c 0,5,6
 1040.75510204 877 1040.75510204 877 914.87755102 877 c 128,-1,7
 789 877 789 877 702.5 849 c 128,-1,8
 616 821 616 821 553.5 760 c 128,-1,9
 491 699 491 699 478 614 c 1,10,11
 478 599 478 599 488 599 c 2,0,-1
1204.5 -11 m 128,-1,13
 1040 -42 1040 -42 918 -42 c 128,-1,14
 796 -42 796 -42 691 -27.5 c 128,-1,15
 586 -13 586 -13 481 25.5 c 128,-1,16
 376 64 376 64 300.5 123.5 c 128,-1,17
 225 183 225 183 178 280.5 c 128,-1,18
 131 378 131 378 131 502 c 128,-1,19
 131 626 131 626 177 723 c 128,-1,20
 223 820 223 820 297 880.5 c 128,-1,21
 371 941 371 941 471.5 981 c 0,22,23
 652.4 1053 652.4 1053 886 1053 c 0,24,25
 1184 1053 1184 1053 1363 922.5 c 128,-1,26
 1542 792 1542 792 1569 581 c 1,27,-1
 1569 533 l 1,28,29
 1567 502 1567 502 1542.5 476 c 128,-1,30
 1518 450 1518 450 1462 450 c 2,31,-1
 494 450 l 2,32,33
 475 450 475 450 475 433 c 0,34,35
 475 322.378378378 475 322.378378378 586.5 238 c 0,36,37
 709.392857143 145 709.392857143 145 952.196428571 145 c 129,-1,38
 1195 145 1195 145 1405 229 c 1,39,40
 1426.65327091 236.68341871 1426.65327091 236.68341871 1442.60940428 236.68341871 c 0,41,42
 1473.43886043 236.68341871 1473.43886043 236.68341871 1483 208 c 2,43,-1
 1493.5 176.5 l 2,44,45
 1501 154 1501 154 1505 141 c 0,46,47
 1509.56338028 126.549295775 1509.56338028 126.549295775 1509.56338028 114.348145209 c 0,48,49
 1509.56338028 78.4225352113 1509.56338028 78.4225352113 1470 62 c 0,50,12
 1369 20 1369 20 1204.5 -11 c 128,-1,13
EndSplineSet
EndChar

StartChar: f
Encoding: 102 102 73
Width: 1345
GlyphClass: 2
Flags: W
LayerCount: 2
Fore
SplineSet
1161 1438 m 0,0,1
 1211 1424.36363636 1211 1424.36363636 1211 1384 c 2,2,-1
 1211 1297 l 2,3,4
 1211 1269 1211 1269 1203 1260.5 c 128,-1,5
 1195 1252 1195 1252 1170 1252 c 1,6,-1
 1132 1259 l 2,7,8
 1020.57142857 1279 1020.57142857 1279 963 1279 c 0,9,10
 820 1279 820 1279 761.5 1221 c 128,-1,11
 703 1163 703 1163 703 1061 c 2,12,-1
 703 1016 l 2,13,14
 703 1006 703 1006 713 1006 c 2,15,-1
 1120 1006 l 2,16,17
 1154 1006 1154 1006 1170.5 994 c 128,-1,18
 1187 982 1187 982 1187 951 c 2,19,-1
 1187 889 l 2,20,21
 1187 859 1187 859 1171 848 c 128,-1,22
 1155 837 1155 837 1120 837 c 2,23,-1
 726 837 l 2,24,25
 703 837 703 837 703 800 c 2,26,-1
 703 77 l 2,27,28
 703 45 703 45 680.5 22.5 c 128,-1,29
 658 0 658 0 626 0 c 2,30,-1
 440 0 l 2,31,32
 408 0 408 0 385.5 22.5 c 128,-1,33
 363 45 363 45 363 77 c 2,34,-1
 363 800 l 2,35,36
 363 837 363 837 343 837 c 2,37,-1
 191 837 l 2,38,39
 156 837 156 837 140 848 c 128,-1,40
 124 859 124 859 124 889 c 2,41,-1
 124 945 l 2,42,43
 124 1006 124 1006 191 1006 c 2,44,-1
 341 1006 l 2,45,46
 356 1006 356 1006 360 1014.5 c 128,-1,47
 364 1023 364 1023 365 1081 c 128,-1,48
 366 1139 366 1139 395.5 1215 c 128,-1,49
 425 1291 425 1291 472 1339 c 128,-1,50
 519 1387 519 1387 585 1418.5 c 0,51,52
 703.380952381 1475 703.380952381 1475 868 1475 c 0,53,54
 964.117647059 1475 964.117647059 1475 1062.05882353 1456.5 c 128,-1,55
 1160 1438 1160 1438 1161 1438 c 0,0,1
EndSplineSet
EndChar

StartChar: g
Encoding: 103 103 74
Width: 1629
GlyphClass: 2
Flags: W
LayerCount: 2
Fore
SplineSet
786 508 m 0,0,1
 1094.26666667 508 1094.26666667 508 1128 634.5 c 0,2,3
 1134 657 1134 657 1134 687.5 c 128,-1,4
 1134 718 1134 718 1126.5 743 c 128,-1,5
 1119 768 1119 768 1096.5 794 c 128,-1,6
 1074 820 1074 820 1036.5 837 c 0,7,8
 950.470588235 876 950.470588235 876 782 876 c 0,9,10
 433 876 433 876 433 699 c 0,11,12
 433 508 433 508 786 508 c 0,0,1
808 -388 m 0,13,14
 1110.25925926 -388 1110.25925926 -388 1203.5 -335 c 0,15,16
 1251 -308 1251 -308 1267.5 -278 c 128,-1,17
 1284 -248 1284 -248 1284 -203 c 0,18,19
 1284 -140 1284 -140 1197.5 -102.5 c 128,-1,20
 1111 -65 1111 -65 969 -65 c 2,21,-1
 626 -65 l 2,22,23
 570 -65 570 -65 496 -132 c 128,-1,24
 422 -199 422 -199 422 -258 c 0,25,26
 422 -388 422 -388 808 -388 c 0,13,14
1228 -549 m 128,-1,28
 1065 -595 1065 -595 772 -595 c 128,-1,29
 479 -595 479 -595 320 -529.5 c 128,-1,30
 161 -464 161 -464 161 -352 c 0,31,32
 161 -177 161 -177 366 -49 c 1,33,34
 380 -42 380 -42 380 -33.5 c 128,-1,35
 380 -25 380 -25 364 -20 c 0,36,37
 260 11 260 11 210.5 50.5 c 128,-1,38
 161 90 161 90 161 157 c 128,-1,39
 161 224 161 224 207.5 291.5 c 128,-1,40
 254 359 254 359 319 399 c 0,41,42
 336 410 336 410 336 415.5 c 128,-1,43
 336 421 336 421 334.5 423 c 128,-1,44
 333 425 333 425 328 427.5 c 128,-1,45
 323 430 323 430 322 431 c 0,46,47
 141 537 141 537 141 695 c 0,48,49
 141 965.424107143 141 965.424107143 532 1033.5 c 0,50,51
 644 1053 644 1053 730.5 1053 c 128,-1,52
 817 1053 817 1053 940 1039 c 0,53,54
 954 1038 954 1038 966 1046.5 c 128,-1,55
 978 1055 978 1055 981 1068 c 1,56,-1
 1080 1334 l 1,57,58
 1086 1364 1086 1364 1110 1384 c 128,-1,59
 1134 1404 1134 1404 1165 1404 c 2,60,-1
 1306 1404 l 2,61,62
 1330 1404 1330 1404 1341.5 1383 c 128,-1,63
 1353 1362 1353 1362 1340 1343 c 2,64,-1
 1121 1033 l 2,65,66
 1114 1022 1114 1022 1118 1009 c 128,-1,67
 1122 996 1122 996 1134 991 c 1,68,69
 1265 950 1265 950 1341 868.5 c 128,-1,70
 1417 787 1417 787 1417 709.5 c 128,-1,71
 1417 632 1417 632 1401.5 580 c 128,-1,72
 1386 528 1386 528 1345 479.5 c 128,-1,73
 1304 431 1304 431 1238.5 398 c 0,74,75
 1095.59090909 326 1095.59090909 326 824 326 c 1,76,77
 644 326 644 326 523 354 c 1,78,79
 519.692943412 354.551176098 519.692943412 354.551176098 516.234746414 354.551176098 c 0,80,81
 488.854587838 354.551176098 488.854587838 354.551176098 452 320 c 1,82,83
 430 302 430 302 414 276 c 128,-1,84
 398 250 398 250 398 227.5 c 128,-1,85
 398 205 398 205 412 189 c 0,86,87
 444.375 152 444.375 152 598 152 c 2,88,-1
 971 152 l 2,89,90
 1403.5625 152 1403.5625 152 1502 -73 c 0,91,92
 1530 -137 1530 -137 1530 -216 c 0,93,94
 1530 -339 1530 -339 1460.5 -421 c 128,-1,27
 1391 -503 1391 -503 1228 -549 c 128,-1,28
EndSplineSet
EndChar

StartChar: h
Encoding: 104 104 75
Width: 1701
GlyphClass: 2
Flags: W
LayerCount: 2
Fore
SplineSet
230 0 m 2,0,1
 198 0 198 0 179 19 c 128,-1,2
 160 38 160 38 160 70 c 2,3,-1
 160 1367 l 2,4,5
 160 1399 160 1399 179 1418 c 128,-1,6
 198 1437 198 1437 230 1437 c 2,7,-1
 422 1437 l 2,8,9
 454 1437 454 1437 473 1418 c 128,-1,10
 492 1399 492 1399 492 1367 c 2,11,-1
 492 879 l 2,12,13
 492 875 492 875 498.5 871.5 c 128,-1,14
 505 868 505 868 507 870 c 0,15,16
 694 1053 694 1053 991 1053 c 0,17,18
 1336.5106383 1053 1336.5106383 1053 1483 823.5 c 0,19,20
 1558 706 1558 706 1558 540 c 2,21,-1
 1558 70 l 2,22,23
 1558 38 1558 38 1539.5 19 c 128,-1,24
 1521 0 1521 0 1489 0 c 2,25,-1
 1292 0 l 2,26,27
 1260 0 1260 0 1241 19 c 128,-1,28
 1222 38 1222 38 1222 70 c 2,29,-1
 1222 573 l 2,30,31
 1222 715 1222 715 1134.5 786.5 c 128,-1,32
 1047 858 1047 858 901 858 c 0,33,34
 805 858 805 858 709 815 c 128,-1,35
 613 772 613 772 552.5 705 c 128,-1,36
 492 638 492 638 492 573 c 2,37,-1
 492 70 l 2,38,39
 492 38 492 38 473.5 19 c 128,-1,40
 455 0 455 0 423 0 c 2,41,-1
 230 0 l 2,0,1
EndSplineSet
EndChar

StartChar: i
Encoding: 105 105 76
Width: 652
GlyphClass: 2
Flags: W
LayerCount: 2
Fore
SplineSet
230 1171 m 2,0,1
 198 1171 198 1171 179 1190 c 128,-1,2
 160 1209 160 1209 160 1241 c 2,3,-1
 160 1378 l 2,4,5
 160 1410 160 1410 179 1429 c 128,-1,6
 198 1448 198 1448 230 1448 c 2,7,-1
 422 1448 l 2,8,9
 454 1448 454 1448 473 1429 c 128,-1,10
 492 1410 492 1410 492 1378 c 2,11,-1
 492 1241 l 2,12,13
 492 1209 492 1209 473 1190 c 128,-1,14
 454 1171 454 1171 422 1171 c 2,15,-1
 230 1171 l 2,0,1
230 0 m 2,16,17
 198 0 198 0 179 19 c 128,-1,18
 160 38 160 38 160 70 c 2,19,-1
 160 936 l 2,20,21
 160 968 160 968 179 987 c 128,-1,22
 198 1006 198 1006 230 1006 c 2,23,-1
 422 1006 l 2,24,25
 454 1006 454 1006 473 987 c 128,-1,26
 492 968 492 968 492 936 c 2,27,-1
 492 70 l 2,28,29
 492 38 492 38 473 19 c 128,-1,30
 454 0 454 0 422 0 c 2,31,-1
 230 0 l 2,16,17
EndSplineSet
EndChar

StartChar: j
Encoding: 106 106 77
Width: 914
GlyphClass: 2
Flags: W
LayerCount: 2
Fore
SplineSet
291.5 -402 m 0,0,1
 183 -402 183 -402 135 -388 c 0,2,3
 55.1505882353 -364.710588235 55.1505882353 -364.710588235 53 -326 c 1,4,-1
 51 -237 l 2,5,6
 50 -203 50 -203 66 -186.5 c 128,-1,7
 82 -170 82 -170 95.5 -171 c 128,-1,8
 109 -172 109 -172 157 -180 c 128,-1,9
 205 -188 205 -188 246 -188 c 128,-1,10
 287 -188 287 -188 316.5 -175.5 c 128,-1,11
 346 -163 346 -163 371 -132 c 0,12,13
 422 -68.76 422 -68.76 422 108 c 2,14,-1
 422 936 l 2,15,16
 422 968 422 968 441 987 c 128,-1,17
 460 1006 460 1006 492 1006 c 2,18,-1
 684 1006 l 2,19,20
 716 1006 716 1006 735 987 c 128,-1,21
 754 968 754 968 754 936 c 2,22,-1
 754 96 l 2,23,24
 754 -95 754 -95 709 -195 c 0,25,26
 664.324324324 -294.279279279 664.324324324 -294.279279279 580 -343 c 0,27,28
 477.884615385 -402 477.884615385 -402 291.5 -402 c 0,0,1
492 1171 m 2,29,30
 460 1171 460 1171 441 1190 c 128,-1,31
 422 1209 422 1209 422 1241 c 2,32,-1
 422 1378 l 2,33,34
 422 1410 422 1410 441 1429 c 128,-1,35
 460 1448 460 1448 492 1448 c 2,36,-1
 684 1448 l 2,37,38
 716 1448 716 1448 735 1429 c 128,-1,39
 754 1410 754 1410 754 1378 c 2,40,-1
 754 1241 l 2,41,42
 754 1209 754 1209 735 1190 c 128,-1,43
 716 1171 716 1171 684 1171 c 2,44,-1
 492 1171 l 2,29,30
EndSplineSet
EndChar

StartChar: k
Encoding: 107 107 78
Width: 1795
GlyphClass: 2
Flags: W
LayerCount: 2
Fore
SplineSet
230 0 m 2,0,1
 198 0 198 0 179 19 c 128,-1,2
 160 38 160 38 160 70 c 2,3,-1
 160 1379 l 2,4,5
 160 1411 160 1411 179 1430 c 128,-1,6
 198 1449 198 1449 230 1449 c 2,7,-1
 422 1449 l 2,8,9
 454 1449 454 1449 473 1430 c 128,-1,10
 492 1411 492 1411 492 1379 c 2,11,-1
 492 564 l 2,12,13
 492 552 492 552 499 552 c 128,-1,14
 506 552 506 552 510 555 c 2,15,-1
 1136 946 l 2,16,17
 1231 1006 1231 1006 1283 1006 c 2,18,-1
 1597 1006 l 2,19,20
 1626 1006 1626 1006 1626 986 c 128,-1,21
 1626 966 1626 966 1589 946 c 1,22,-1
 1023 581 l 1,23,24
 1016 578 1016 578 1016 570.5 c 128,-1,25
 1016 563 1016 563 1023 556 c 1,26,-1
 1649 63 l 2,27,28
 1676 42 1676 42 1676 25 c 0,29,30
 1676 0 1676 0 1641 0 c 2,31,-1
 1367 0 l 2,32,33
 1337 0 1337 0 1311 15.5 c 128,-1,34
 1285 31 1285 31 1244 64 c 2,35,-1
 775 433 l 2,36,37
 764 442 764 442 755 442 c 128,-1,38
 746 442 746 442 731 433 c 128,-1,39
 716 424 716 424 659.5 389.5 c 0,40,41
 510.545454545 298.545454545 510.545454545 298.545454545 501.272727273 290.772727273 c 128,-1,42
 492 283 492 283 492 264 c 2,43,-1
 492 70 l 2,44,45
 492 38 492 38 473 19 c 128,-1,46
 454 0 454 0 422 0 c 2,47,-1
 230 0 l 2,0,1
EndSplineSet
EndChar

StartChar: l
Encoding: 108 108 79
Width: 656
GlyphClass: 2
Flags: W
LayerCount: 2
Fore
SplineSet
231 0 m 2,0,1
 199 0 199 0 180.5 19 c 128,-1,2
 162 38 162 38 162 70 c 2,3,-1
 162 1379 l 2,4,5
 162 1411 162 1411 180.5 1430 c 128,-1,6
 199 1449 199 1449 231 1449 c 2,7,-1
 424 1449 l 2,8,9
 456 1449 456 1449 475 1430 c 128,-1,10
 494 1411 494 1411 494 1379 c 2,11,-1
 494 70 l 2,12,13
 494 38 494 38 475 19 c 128,-1,14
 456 0 456 0 424 0 c 2,15,-1
 231 0 l 2,0,1
EndSplineSet
EndChar

StartChar: m
Encoding: 109 109 80
Width: 2673
GlyphClass: 2
Flags: W
LayerCount: 2
Fore
SplineSet
1506 551 m 1,0,-1
 1505 495 l 1,1,-1
 1505 70 l 2,2,3
 1505 38 1505 38 1486 19 c 128,-1,4
 1467 0 1467 0 1435 0 c 2,5,-1
 1242 0 l 2,6,7
 1210 0 1210 0 1191 19 c 128,-1,8
 1172 38 1172 38 1172 70 c 2,9,-1
 1172 573 l 2,10,11
 1172 716 1172 716 1092.5 787 c 128,-1,12
 1013 858 1013 858 877 858 c 0,13,14
 805 858 805 858 732.5 829 c 128,-1,15
 660 800 660 800 606 755 c 128,-1,16
 552 710 552 710 518.5 652.5 c 128,-1,17
 485 595 485 595 485 541 c 2,18,-1
 485 70 l 2,19,20
 485 38 485 38 466 19 c 128,-1,21
 447 0 447 0 415 0 c 2,22,-1
 222 0 l 2,23,24
 190 0 190 0 171.5 19 c 128,-1,25
 153 38 153 38 153 70 c 2,26,-1
 153 929 l 2,27,28
 153 1006 153 1006 215 1006 c 2,29,-1
 260 1006 l 2,30,31
 329.057142857 1006 329.057142857 1006 351 942 c 2,32,-1
 394 820 l 1,33,34
 402 808 402 808 411 808 c 128,-1,35
 420 808 420 808 431 822 c 0,36,37
 522 938 522 938 658 995.5 c 128,-1,38
 794 1053 794 1053 950 1053 c 0,39,40
 1276 1053 1276 1053 1412 840 c 0,41,42
 1424 822 1424 822 1432.5 822 c 128,-1,43
 1441 822 1441 822 1458 843 c 0,44,45
 1548 949 1548 949 1680 1001 c 128,-1,46
 1812 1053 1812 1053 1969.5 1053 c 128,-1,47
 2127 1053 2127 1053 2253 997.5 c 128,-1,48
 2379 942 2379 942 2454.5 824.5 c 128,-1,49
 2530 707 2530 707 2530 540 c 2,50,-1
 2530 70 l 2,51,52
 2530 38 2530 38 2511 19 c 128,-1,53
 2492 0 2492 0 2460 0 c 2,54,-1
 2263 0 l 2,55,56
 2231 0 2231 0 2212 19 c 128,-1,57
 2193 38 2193 38 2193 70 c 2,58,-1
 2193 573 l 2,59,60
 2193 859 2193 859 1885 859 c 0,61,62
 1798 859 1798 859 1711.5 822 c 128,-1,63
 1625 785 1625 785 1565.5 715 c 128,-1,64
 1506 645 1506 645 1506 563 c 2,65,-1
 1506 551 l 1,0,-1
EndSplineSet
EndChar

StartChar: n
Encoding: 110 110 81
Width: 1695
GlyphClass: 2
Flags: W
LayerCount: 2
Fore
SplineSet
153 929 m 2,0,1
 153 1006 153 1006 215 1006 c 2,2,-1
 260 1006 l 2,3,4
 329.057142857 1006 329.057142857 1006 351 942 c 2,5,-1
 394 820 l 1,6,7
 402 807 402 807 411 807 c 128,-1,8
 420 807 420 807 432 821 c 0,9,10
 526 937 526 937 667 995 c 128,-1,11
 808 1053 808 1053 969 1053 c 0,12,13
 1240 1053 1240 1053 1396 923 c 128,-1,14
 1552 793 1552 793 1552 540 c 2,15,-1
 1552 70 l 2,16,17
 1552 38 1552 38 1533.5 19 c 128,-1,18
 1515 0 1515 0 1483 0 c 2,19,-1
 1290 0 l 2,20,21
 1258 0 1258 0 1239 19 c 128,-1,22
 1220 38 1220 38 1220 70 c 2,23,-1
 1220 573 l 2,24,25
 1220 715 1220 715 1130.5 787 c 128,-1,26
 1041 859 1041 859 894 859 c 0,27,28
 798 859 798 859 702 815.5 c 128,-1,29
 606 772 606 772 545.5 705 c 128,-1,30
 485 638 485 638 485 573 c 2,31,-1
 485 70 l 2,32,33
 485 38 485 38 466 19 c 128,-1,34
 447 0 447 0 415 0 c 2,35,-1
 222 0 l 2,36,37
 190 0 190 0 171.5 19 c 128,-1,38
 153 38 153 38 153 70 c 2,39,-1
 153 929 l 2,0,1
EndSplineSet
EndChar

StartChar: o
Encoding: 111 111 82
Width: 1763
GlyphClass: 2
Flags: W
LayerCount: 2
Fore
SplineSet
868 -41 m 0,0,1
 780 -41 780 -41 681 -26 c 128,-1,2
 582 -11 582 -11 479.5 28 c 128,-1,3
 377 67 377 67 301.5 126.5 c 128,-1,4
 226 186 226 186 178 283.5 c 128,-1,5
 130 381 130 381 130 488.5 c 128,-1,6
 130 596 130 596 154.5 672.5 c 128,-1,7
 179 749 179 749 220.5 804 c 128,-1,8
 262 859 262 859 321.5 903 c 128,-1,9
 381 947 381 947 446.5 974.5 c 128,-1,10
 512 1002 512 1002 588 1020 c 128,-1,11
 664 1038 664 1038 736.5 1045.5 c 128,-1,12
 809 1053 809 1053 884 1053 c 128,-1,13
 959 1053 959 1053 1030 1045.5 c 128,-1,14
 1101 1038 1101 1038 1177 1020 c 128,-1,15
 1253 1002 1253 1002 1318.5 974.5 c 128,-1,16
 1384 947 1384 947 1443 903 c 128,-1,17
 1502 859 1502 859 1543.5 804 c 0,18,19
 1634 684.060240964 1634 684.060240964 1634 505 c 0,20,21
 1634 252.428571429 1634 252.428571429 1438.5 109.5 c 0,22,23
 1232.64367816 -41 1232.64367816 -41 868 -41 c 0,0,1
578 240.5 m 128,-1,25
 695 148 695 148 881.5 148 c 128,-1,26
 1068 148 1068 148 1185 240 c 128,-1,27
 1302 332 1302 332 1302 505 c 0,28,29
 1302 623 1302 623 1243.5 706 c 0,30,31
 1132.13855422 864 1132.13855422 864 883 864 c 1,32,33
 631.890909091 864 631.890909091 864 519.5 705.5 c 0,34,35
 461 623 461 623 461 505 c 0,36,24
 461 333 461 333 578 240.5 c 128,-1,25
EndSplineSet
EndChar

StartChar: p
Encoding: 112 112 83
Width: 1792
GlyphClass: 2
Flags: W
LayerCount: 2
Fore
SplineSet
694.5 186 m 128,-1,1
 788 147 788 147 889.5 147 c 128,-1,2
 991 147 991 147 1065.5 169.5 c 128,-1,3
 1140 192 1140 192 1197.5 235.5 c 0,4,5
 1322 329.686956522 1322 329.686956522 1322 498.343478261 c 128,-1,6
 1322 667 1322 667 1204.5 762.5 c 128,-1,7
 1087 858 1087 858 904.5 858 c 128,-1,8
 722 858 722 858 603.5 762 c 128,-1,9
 485 666 485 666 485 504 c 0,10,11
 485 389 485 389 543 307 c 128,-1,0
 601 225 601 225 694.5 186 c 128,-1,1
221 -389 m 2,12,13
 189 -389 189 -389 171 -370.5 c 128,-1,14
 153 -352 153 -352 153 -320 c 2,15,-1
 153 937 l 2,16,17
 153 1007 153 1007 213 1007 c 2,18,-1
 253 1007 l 2,19,20
 311 1007 311 1007 343 922 c 0,21,22
 347 910 347 910 366.5 866.5 c 128,-1,23
 386 823 386 823 392 810 c 128,-1,24
 398 797 398 797 404 797 c 1,25,-1
 417 807 l 1,26,27
 505 924 505 924 657.5 988.5 c 128,-1,28
 810 1053 810 1053 975 1053 c 0,29,30
 1183.52941176 1053 1183.52941176 1053 1354 972.5 c 0,31,32
 1547.27423614 881.231610713 1547.27423614 881.231610713 1621 714 c 0,33,34
 1662 621 1662 621 1662 506.5 c 128,-1,35
 1662 392 1662 392 1622 297.5 c 128,-1,36
 1582 203 1582 203 1515.5 140.5 c 128,-1,37
 1449 78 1449 78 1358.5 36 c 0,38,39
 1190.42857143 -42 1190.42857143 -42 974 -42 c 0,40,41
 664.975609756 -42 664.975609756 -42 501 124 c 1,42,43
 498 129 498 129 491.5 129 c 128,-1,44
 485 129 485 129 485 117 c 2,45,-1
 485 -320 l 2,46,47
 485 -352 485 -352 466.5 -370.5 c 128,-1,48
 448 -389 448 -389 416 -389 c 2,49,-1
 221 -389 l 2,12,13
EndSplineSet
EndChar

StartChar: q
Encoding: 113 113 84
Width: 1792
GlyphClass: 2
Flags: W
LayerCount: 2
Fore
SplineSet
679.5 185.5 m 128,-1,1
 772 147 772 147 888.5 147 c 128,-1,2
 1005 147 1005 147 1098.5 186 c 128,-1,3
 1192 225 1192 225 1250 307 c 128,-1,4
 1308 389 1308 389 1308 504 c 0,5,6
 1308 666 1308 666 1189.5 762 c 128,-1,7
 1071 858 1071 858 888 858 c 128,-1,8
 705 858 705 858 588 762.5 c 128,-1,9
 471 667 471 667 471 504 c 0,10,11
 471 389 471 389 529 306.5 c 128,-1,0
 587 224 587 224 679.5 185.5 c 128,-1,1
1299 128 m 1,12,-1
 1290 123 l 1,13,14
 1125 -42 1125 -42 819 -42 c 0,15,16
 602.571428571 -42 602.571428571 -42 434.5 36 c 0,17,18
 244.331150642 124.255156608 244.331150642 124.255156608 171 297.5 c 0,19,20
 131 392 131 392 131 506.5 c 128,-1,21
 131 621 131 621 172 714 c 128,-1,22
 213 807 213 807 281 868.5 c 128,-1,23
 349 930 349 930 439 972.5 c 0,24,25
 609.470588235 1053 609.470588235 1053 796.735294118 1053 c 128,-1,26
 984 1053 984 1053 1136.5 988.5 c 128,-1,27
 1289 924 1289 924 1376 807 c 0,28,29
 1381 800 1381 800 1387.5 800 c 128,-1,30
 1394 800 1394 800 1397.5 808.5 c 128,-1,31
 1401 817 1401 817 1425 865.5 c 128,-1,32
 1449 914 1449 914 1454 929 c 0,33,34
 1483 1007 1483 1007 1540 1007 c 2,35,-1
 1580 1007 l 2,36,37
 1640 1007 1640 1007 1640 937 c 2,38,-1
 1640 -319 l 2,39,40
 1640 -351 1640 -351 1621 -370 c 128,-1,41
 1602 -389 1602 -389 1570 -389 c 2,42,-1
 1378 -389 l 2,43,44
 1346 -389 1346 -389 1327 -370 c 128,-1,45
 1308 -351 1308 -351 1308 -319 c 2,46,-1
 1308 116 l 2,47,48
 1308 128 1308 128 1299 128 c 1,12,-1
EndSplineSet
EndChar

StartChar: r
Encoding: 114 114 85
Width: 1134
GlyphClass: 2
Flags: W
LayerCount: 2
Fore
SplineSet
222 0 m 2,0,1
 190 0 190 0 171.5 19 c 128,-1,2
 153 38 153 38 153 70 c 2,3,-1
 153 929 l 2,4,5
 153 1006 153 1006 210 1006 c 2,6,-1
 268 1006 l 2,7,8
 303 1006 303 1006 321 992 c 128,-1,9
 339 978 339 978 351 942 c 1,10,-1
 394 826 l 2,11,12
 400 807 400 807 409 807 c 0,13,14
 418 807 418 807 432 826 c 0,15,16
 506 924 506 924 625 988 c 128,-1,17
 744 1052 744 1052 872 1053 c 1,18,-1
 920 1053 l 2,19,20
 1012 1053 1012 1053 1012 987 c 2,21,-1
 1012 884 l 2,22,23
 1012 820 1012 820 952 820 c 2,24,-1
 834 820 l 2,25,26
 688 820 688 820 586.5 737.5 c 128,-1,27
 485 655 485 655 485 557 c 2,28,-1
 485 70 l 2,29,30
 485 38 485 38 466 19 c 128,-1,31
 447 0 447 0 415 0 c 2,32,-1
 222 0 l 2,0,1
EndSplineSet
EndChar

StartChar: s
Encoding: 115 115 86
Width: 1633
GlyphClass: 2
Flags: W
LayerCount: 2
Fore
SplineSet
1356.5 44 m 128,-1,1
 1193 -41 1193 -41 819 -41 c 128,-1,2
 445 -41 445 -41 197 59 c 0,3,4
 172 69 172 69 160.5 98 c 128,-1,5
 149 127 149 127 160 152 c 2,6,-1
 182 199 l 2,7,8
 196 230 196 230 223 242 c 128,-1,9
 250 254 250 254 281 243 c 0,10,11
 541 152 541 152 878 152 c 1,12,13
 1077 152 1077 152 1154.5 186.5 c 128,-1,14
 1232 221 1232 221 1232 295 c 0,15,16
 1232 342 1232 342 1205.5 365 c 0,17,18
 1151.85984214 411.555608706 1151.85984214 411.555608706 807 426 c 1,19,20
 532.675675676 438.909379968 532.675675676 438.909379968 402 473.5 c 0,21,22
 275.16303584 507.074490513 275.16303584 507.074490513 219.5 560 c 0,23,24
 151 625.131147541 151 625.131147541 151 723 c 0,25,26
 151 1053 151 1053 809 1053 c 0,27,28
 1152.36170213 1053 1152.36170213 1053 1373 968 c 0,29,30
 1399 958 1399 958 1410 932.5 c 128,-1,31
 1421 907 1421 907 1409 883 c 1,32,-1
 1386 832 l 2,33,34
 1374 806 1374 806 1342.5 798 c 0,35,36
 1333.81034483 795.793103448 1333.81034483 795.793103448 1322.68549346 795.793103448 c 0,37,38
 1293.48275862 795.793103448 1293.48275862 795.793103448 1247.5 811 c 0,39,40
 1090.26190476 863 1090.26190476 863 862.630952381 863 c 128,-1,41
 635 863 635 863 538 836 c 128,-1,42
 441 809 441 809 441 748 c 128,-1,43
 441 687 441 687 510.5 670 c 128,-1,44
 580 653 580 653 771.5 640.5 c 128,-1,45
 963 628 963 628 1008.5 624.5 c 128,-1,46
 1054 621 1054 621 1128.5 613 c 128,-1,47
 1203 605 1203 605 1241.5 595 c 128,-1,48
 1280 585 1280 585 1333.5 568.5 c 128,-1,49
 1387 552 1387 552 1414 529 c 128,-1,50
 1441 506 1441 506 1469.5 475 c 0,51,52
 1520 420.070175439 1520 420.070175439 1520 307 c 0,53,0
 1520 129 1520 129 1356.5 44 c 128,-1,1
EndSplineSet
EndChar

StartChar: t
Encoding: 116 116 87
Width: 1340
GlyphClass: 2
Flags: W
LayerCount: 2
Fore
SplineSet
843 -41 m 0,0,1
 606 -41 606 -41 469.5 67.5 c 128,-1,2
 333 176 333 176 333 385 c 2,3,-1
 333 800 l 2,4,5
 333 830 333 830 303 830 c 2,6,-1
 175 830 l 2,7,8
 143 830 143 830 124 849 c 128,-1,9
 105 868 105 868 105 900 c 2,10,-1
 105 936 l 2,11,12
 105 968 105 968 124 987 c 128,-1,13
 143 1006 143 1006 175 1006 c 2,14,-1
 303 1006 l 2,15,16
 333 1006 333 1006 333 1036 c 1,17,-1
 356 1405 l 1,18,19
 364 1475 364 1475 425 1475 c 2,20,-1
 603 1475 l 2,21,22
 635 1475 635 1475 654 1456 c 128,-1,23
 673 1437 673 1437 673 1405 c 2,24,-1
 673 1036 l 2,25,26
 673 1006 673 1006 703 1006 c 2,27,-1
 1082 1006 l 2,28,29
 1114 1006 1114 1006 1132.5 987 c 128,-1,30
 1151 968 1151 968 1151 936 c 2,31,-1
 1151 900 l 2,32,33
 1151 868 1151 868 1132.5 849 c 128,-1,34
 1114 830 1114 830 1082 830 c 2,35,-1
 703 830 l 2,36,37
 673 830 673 830 673 800 c 2,38,-1
 673 350 l 2,39,40
 673 250 673 250 732.5 205.5 c 128,-1,41
 792 161 792 161 896 161 c 128,-1,42
 1000 161 1000 161 1121 197 c 0,43,44
 1157 208 1157 208 1173 196 c 128,-1,45
 1189 184 1189 184 1195 153 c 1,46,-1
 1201 82 l 1,47,48
 1202.77777778 73.8518518519 1202.77777778 73.8518518519 1202.77777778 66.3840877915 c 0,49,50
 1202.77777778 23.4444444444 1202.77777778 23.4444444444 1144 3 c 0,51,52
 1015 -41 1015 -41 843 -41 c 0,0,1
EndSplineSet
EndChar

StartChar: u
Encoding: 117 117 88
Width: 1701
GlyphClass: 2
Flags: W
LayerCount: 2
Fore
SplineSet
1550 77 m 2,0,1
 1550 0 1550 0 1487 0 c 2,2,-1
 1443 0 l 2,3,4
 1371 0 1371 0 1352 64 c 1,5,-1
 1307 187 l 1,6,7
 1299 200 1299 200 1290 200 c 128,-1,8
 1281 200 1281 200 1270 187 c 0,9,10
 1176 71 1176 71 1034 13 c 128,-1,11
 892 -45 892 -45 748.5 -45 c 128,-1,12
 605 -45 605 -45 499.5 -13 c 128,-1,13
 394 19 394 19 314 81.5 c 0,14,15
 145 213.53125 145 213.53125 145 468 c 2,16,-1
 145 940 l 2,17,18
 145 972 145 972 164 991 c 128,-1,19
 183 1010 183 1010 215 1010 c 2,20,-1
 415 1010 l 2,21,22
 447 1010 447 1010 466 991 c 128,-1,23
 485 972 485 972 485 940 c 2,24,-1
 485 435 l 2,25,26
 485 293 485 293 571.5 223.5 c 128,-1,27
 658 154 658 154 806 154 c 0,28,29
 902 154 902 154 998.5 196 c 128,-1,30
 1095 238 1095 238 1156.5 304 c 128,-1,31
 1218 370 1218 370 1218 435 c 2,32,-1
 1218 940 l 2,33,34
 1218 972 1218 972 1236.5 991 c 128,-1,35
 1255 1010 1255 1010 1287 1010 c 2,36,-1
 1480 1010 l 2,37,38
 1512 1010 1512 1010 1531 991 c 128,-1,39
 1550 972 1550 972 1550 940 c 2,40,-1
 1550 77 l 2,0,1
EndSplineSet
EndChar

StartChar: v
Encoding: 118 118 89
Width: 1678
GlyphClass: 2
Flags: W
LayerCount: 2
Fore
SplineSet
108 972 m 0,0,1
 108 1006 108 1006 152 1006 c 2,2,-1
 383 1006 l 2,3,4
 438 1006 438 1006 473 938 c 1,5,-1
 846 252 l 2,6,7
 850 243 850 243 859 243 c 128,-1,8
 868 243 868 243 873 252 c 2,9,-1
 1217 938 l 2,10,11
 1252 1006 1252 1006 1316 1006 c 2,12,-1
 1527 1006 l 2,13,14
 1567 1006 1567 1006 1567 976 c 0,15,16
 1567 962 1567 962 1552 939 c 1,17,-1
 1070 67 l 1,18,19
 1027 1 1027 1 962 1 c 2,20,-1
 722 1 l 2,21,22
 660 1 660 1 622 68 c 2,23,-1
 118 939 l 2,24,25
 108 958 108 958 108 972 c 0,0,1
EndSplineSet
EndChar

StartChar: w
Encoding: 119 119 90
Width: 2566
GlyphClass: 2
Flags: W
LayerCount: 2
Fore
SplineSet
650 0 m 2,0,1
 586 0 586 0 551 69 c 1,2,-1
 127 938 l 2,3,4
 118 956 118 956 118 970 c 0,5,6
 118 1006 118 1006 163 1006 c 2,7,-1
 388 1006 l 2,8,9
 445 1006 445 1006 475 937 c 2,10,-1
 779 258 l 2,11,12
 784 249 784 249 790.5 249 c 0,13,14
 797 249 797 249 801 258 c 2,15,-1
 1101 937 l 1,16,17
 1130 1006 1130 1006 1196 1006 c 2,18,-1
 1392 1006 l 2,19,20
 1442 1006 1442 1006 1475 937 c 2,21,-1
 1802 258 l 2,22,23
 1805 250 1805 250 1814 250 c 0,24,25
 1823 250 1823 250 1825 258 c 1,26,-1
 2103 937 l 2,27,28
 2132 1006 2132 1006 2198 1006 c 2,29,-1
 2403 1006 l 2,30,31
 2445 1006 2445 1006 2445 974 c 0,32,33
 2445 959 2445 959 2431 938 c 1,34,-1
 2026 68 l 2,35,36
 2012 37 2012 37 1982.5 18.5 c 128,-1,37
 1953 0 1953 0 1920 0 c 2,38,-1
 1673 0 l 2,39,40
 1643 0 1643 0 1617 19 c 128,-1,41
 1591 38 1591 38 1577 69 c 2,42,-1
 1289 675 l 2,43,44
 1286 682 1286 682 1278 682 c 0,45,46
 1270 682 1270 682 1268 675 c 1,47,-1
 998 69 l 1,48,49
 985 37 985 37 956 18.5 c 128,-1,50
 927 0 927 0 895 0 c 2,51,-1
 650 0 l 2,0,1
EndSplineSet
EndChar

StartChar: x
Encoding: 120 120 91
Width: 1867
GlyphClass: 2
Flags: W
LayerCount: 2
Fore
SplineSet
165 0 m 2,0,1
 154 0 154 0 146.5 8 c 128,-1,2
 139 16 139 16 139 27.5 c 128,-1,3
 139 39 139 39 149 46 c 0,4,5
 222 101 222 101 436.5 267.5 c 128,-1,6
 651 434 651 434 711 479 c 1,7,8
 717 487 717 487 717 492.5 c 128,-1,9
 717 498 717 498 711 506 c 1,10,11
 611 585 611 585 390 767 c 128,-1,12
 169 949 169 949 158 957 c 128,-1,13
 147 965 147 965 147 977.5 c 128,-1,14
 147 990 147 990 155 998 c 128,-1,15
 163 1006 163 1006 175 1006 c 2,16,-1
 482 1006 l 2,17,18
 538 1006 538 1006 600 956 c 0,19,20
 616 944 616 944 671.5 899 c 0,21,22
 792.64516129 800.774193548 792.64516129 800.774193548 936 690 c 0,23,24
 941 685 941 685 950.5 685 c 128,-1,25
 960 685 960 685 969 690 c 1,26,27
 1129 810 1129 810 1314 958 c 0,28,29
 1375 1006 1375 1006 1429 1006 c 2,30,-1
 1673 1006 l 2,31,32
 1685 1006 1685 1006 1692 998.5 c 128,-1,33
 1699 991 1699 991 1699 979.5 c 128,-1,34
 1699 968 1699 968 1665 941.5 c 128,-1,35
 1631 915 1631 915 1421.5 749.5 c 128,-1,36
 1212 584 1212 584 1179.5 559 c 128,-1,37
 1147 534 1147 534 1147 526 c 128,-1,38
 1147 518 1147 518 1154 510 c 1,39,40
 1203 472 1203 472 1422.5 292.5 c 128,-1,41
 1642 113 1642 113 1727 48 c 0,42,43
 1737 41 1737 41 1737 29 c 128,-1,44
 1737 17 1737 17 1729 8.5 c 128,-1,45
 1721 0 1721 0 1709 0 c 2,46,-1
 1406 0 l 2,47,48
 1331 0 1331 0 1271 50 c 0,49,50
 1259 60 1259 60 1200.5 107 c 128,-1,51
 1142 154 1142 154 1070.5 211.5 c 128,-1,52
 999 269 999 269 966 295.5 c 128,-1,53
 933 322 933 322 921 322 c 128,-1,54
 909 322 909 322 897 315 c 1,55,56
 848 277 848 277 766 213 c 0,57,58
 594.641025641 79.2564102564 594.641025641 79.2564102564 542.820512821 39.6282051282 c 128,-1,59
 491 0 491 0 413 0 c 2,60,-1
 165 0 l 2,0,1
EndSplineSet
EndChar

StartChar: y
Encoding: 121 121 92
Width: 1664
GlyphClass: 2
Flags: W
LayerCount: 2
Fore
SplineSet
227 -465 m 1,0,1
 199 -452 199 -452 197.5 -424 c 128,-1,2
 196 -396 196 -396 204 -378 c 1,3,-1
 226 -314 l 1,4,5
 241 -279 241 -279 287 -279 c 0,6,7
 295 -279 295 -279 319.5 -287 c 128,-1,8
 344 -295 344 -295 403.5 -303 c 128,-1,9
 463 -311 463 -311 491 -311 c 2,10,-1
 509 -311 l 2,11,12
 631 -311 631 -311 695 -202 c 1,13,14
 708 -189 708 -189 743 -106 c 1,15,16
 743 -102 743 -102 704 -31 c 1,17,-1
 129 940 l 2,18,19
 119 955 119 955 119 973 c 0,20,21
 119 1006 119 1006 162 1006 c 2,22,-1
 393 1006 l 2,23,24
 448 1006 448 1006 484 938 c 1,25,-1
 864 265 l 1,26,27
 868 253 868 253 880 253 c 128,-1,28
 892 253 892 253 900.5 269 c 128,-1,29
 909 285 909 285 990.5 450.5 c 0,30,31
 1228 932.785276074 1228 932.785276074 1228 934 c 0,32,33
 1258 1006 1258 1006 1328 1006 c 2,34,-1
 1510 1006 l 2,35,36
 1531 1006 1531 1006 1545.5 991.5 c 0,37,38
 1560.55555556 976.444444444 1560.55555556 976.444444444 1560.55555556 956.345679012 c 0,39,40
 1560.55555556 942.222222222 1560.55555556 942.222222222 1557 936 c 2,41,-1
 945 -231 l 1,42,43
 860.70955562 -402.822828928 860.70955562 -402.822828928 750.5 -463.5 c 0,44,45
 649.693877551 -519 649.693877551 -519 489.846938776 -519 c 128,-1,46
 330 -519 330 -519 227 -465 c 1,0,1
EndSplineSet
EndChar

StartChar: z
Encoding: 122 122 93
Width: 1528
GlyphClass: 2
Flags: W
LayerCount: 2
Fore
SplineSet
203 0 m 2,0,1
 186 0 186 0 165 11.5 c 128,-1,2
 144 23 144 23 144 37 c 2,3,-1
 144 156 l 2,4,5
 144 196 144 196 173 216 c 1,6,-1
 940 813 l 1,7,-1
 185 813 l 2,8,9
 170 813 170 813 159 824 c 128,-1,10
 148 835 148 835 148 850 c 2,11,-1
 148 969 l 2,12,13
 148 984 148 984 159 995 c 128,-1,14
 170 1006 170 1006 185 1006 c 2,15,-1
 1292 1006 l 2,16,17
 1309 1006 1309 1006 1330 994.5 c 128,-1,18
 1351 983 1351 983 1351 969 c 2,19,-1
 1351 838 l 2,20,21
 1351 803 1351 803 1322 777 c 1,22,-1
 591 193 l 1,23,-1
 1353 193 l 2,24,25
 1368 193 1368 193 1379 182 c 128,-1,26
 1390 171 1390 171 1390 156 c 2,27,-1
 1390 37 l 2,28,29
 1390 22 1390 22 1379 11 c 128,-1,30
 1368 0 1368 0 1353 0 c 2,31,-1
 203 0 l 2,0,1
EndSplineSet
EndChar

StartChar: braceleft
Encoding: 123 123 94
Width: 1012
GlyphClass: 2
Flags: W
LayerCount: 2
Fore
SplineSet
700 -121 m 2,0,1
 506.639534884 -121 506.639534884 -121 449.5 5 c 0,2,3
 414.794041451 81.5310880829 414.794041451 81.5310880829 407.897020725 247.265544041 c 128,-1,4
 401 413 401 413 372 494 c 128,-1,5
 343 575 343 575 270 588 c 1,6,7
 264 594 264 594 213.5 596 c 128,-1,8
 163 598 163 598 144.5 622 c 128,-1,9
 126 646 126 646 126 712.5 c 128,-1,10
 126 779 126 779 144.5 802 c 128,-1,11
 163 825 163 825 213 829 c 1,12,13
 260 829 260 829 270 834 c 1,14,15
 343 848 343 848 372 928.5 c 128,-1,16
 401 1009 401 1009 406.5 1144.5 c 128,-1,17
 412 1280 412 1280 421 1327.5 c 128,-1,18
 430 1375 430 1375 449.5 1418 c 128,-1,19
 469 1461 469 1461 500.5 1487 c 0,20,21
 568.346153846 1543 568.346153846 1543 700 1543 c 2,22,-1
 811 1543 l 2,23,24
 844 1543 844 1543 866 1526.5 c 128,-1,25
 888 1510 888 1510 888 1480 c 2,26,-1
 888 1412 l 2,27,28
 888 1374 888 1374 870 1358 c 128,-1,29
 852 1342 852 1342 808 1339 c 128,-1,30
 764 1336 764 1336 738.5 1329 c 128,-1,31
 713 1322 713 1322 694 1302 c 0,32,33
 663 1269.36842105 663 1269.36842105 663 1152 c 2,34,-1
 663 1111 l 2,35,36
 663 760 663 760 516 725 c 0,37,38
 506 722 506 722 506 711.5 c 128,-1,39
 506 701 506 701 516 698 c 0,40,41
 663 660 663 660 663 312 c 2,42,-1
 663 271 l 2,43,44
 663 126.771929825 663 126.771929825 719.5 101 c 0,45,46
 748 88 748 88 800 84.5 c 128,-1,47
 852 81 852 81 870 65 c 128,-1,48
 888 49 888 49 888 11 c 2,49,-1
 888 -58 l 2,50,51
 888 -88 888 -88 866 -104.5 c 128,-1,52
 844 -121 844 -121 811 -121 c 2,53,-1
 700 -121 l 2,0,1
EndSplineSet
EndChar

StartChar: bar
Encoding: 124 124 95
Width: 559
GlyphClass: 2
Flags: W
LayerCount: 2
Fore
SplineSet
398 -87 m 2,0,1
 398 -150 398 -150 321 -150 c 2,2,-1
 238 -150 l 2,3,4
 161 -150 161 -150 161 -87 c 2,5,-1
 161 1492 l 2,6,7
 161 1555 161 1555 238 1555 c 2,8,-1
 321 1555 l 2,9,10
 398 1555 398 1555 398 1492 c 2,11,-1
 398 -87 l 2,0,1
EndSplineSet
EndChar

StartChar: braceright
Encoding: 125 125 96
Width: 1012
GlyphClass: 2
Flags: W
LayerCount: 2
Fore
SplineSet
201 -121 m 2,0,1
 168 -121 168 -121 146 -104.5 c 128,-1,2
 124 -88 124 -88 124 -58 c 2,3,-1
 124 11 l 2,4,5
 124 49 124 49 142 65 c 128,-1,6
 160 81 160 81 212 84.5 c 128,-1,7
 264 88 264 88 292 101 c 0,8,9
 348 127 348 127 348 271 c 2,10,-1
 348 312 l 2,11,12
 348 663 348 663 496 698 c 0,13,14
 506 701 506 701 506 711.5 c 128,-1,15
 506 722 506 722 496 725 c 0,16,17
 348 763 348 763 348 1111 c 2,18,-1
 348 1152 l 2,19,20
 348 1296 348 1296 292 1322 c 0,21,22
 264 1335 264 1335 212 1338.5 c 128,-1,23
 160 1342 160 1342 142 1358 c 128,-1,24
 124 1374 124 1374 124 1412 c 2,25,-1
 124 1480 l 2,26,27
 124 1510 124 1510 146 1526.5 c 128,-1,28
 168 1543 168 1543 201 1543 c 2,29,-1
 311 1543 l 2,30,31
 504.813953488 1543 504.813953488 1543 561.5 1418 c 0,32,33
 596.205958549 1341.46891192 596.205958549 1341.46891192 603.102979275 1175.73445596 c 128,-1,34
 610 1010 610 1010 639.5 929 c 0,35,36
 675.919753086 829 675.919753086 829 798 829 c 1,37,38
 848 825 848 825 867 800.5 c 128,-1,39
 886 776 886 776 886 710 c 128,-1,40
 886 644 886 644 867.5 621 c 128,-1,41
 849 598 849 598 798 594 c 1,42,43
 748 594 748 594 742 588 c 1,44,45
 669 575 669 575 639.5 494 c 128,-1,46
 610 413 610 413 602 209 c 1,47,48
 592.711927982 4.6624156039 592.711927982 4.6624156039 510.5 -64.5 c 0,49,50
 443.339622642 -121 443.339622642 -121 311 -121 c 2,51,-1
 201 -121 l 2,0,1
EndSplineSet
EndChar

StartChar: asciitilde
Encoding: 126 126 97
Width: 1458
GlyphClass: 2
Flags: W
LayerCount: 2
Fore
SplineSet
471 763 m 0,0,1
 414 763 414 763 370 775 c 128,-1,2
 326 787 326 787 294 805 c 128,-1,3
 262 823 262 823 231.5 851 c 0,4,5
 181.266824085 897.115702479 181.266824085 897.115702479 136 966 c 1,6,7
 120 982 120 982 120 1001 c 128,-1,8
 120 1020 120 1020 142 1034 c 1,9,-1
 208 1091 l 1,10,11
 224 1109 224 1109 242 1109 c 128,-1,12
 260 1109 260 1109 280 1086 c 1,13,14
 373 970 373 970 465 970 c 0,15,16
 549.482142857 970 549.482142857 970 703.5 1045 c 128,-1,17
 857.517857143 1120 857.517857143 1120 974 1120 c 0,18,19
 1163 1120 1163 1120 1312 939 c 1,20,21
 1330 922 1330 922 1330 903 c 128,-1,22
 1330 884 1330 884 1310 867 c 1,23,-1
 1271 815 l 1,24,25
 1246 788 1246 788 1225.5 788 c 128,-1,26
 1205 788 1205 788 1188 810 c 1,27,28
 1090 916 1090 916 997 916 c 0,29,30
 899.368421053 916 899.368421053 916 741 839.5 c 128,-1,31
 582.631578947 763 582.631578947 763 471 763 c 0,0,1
EndSplineSet
EndChar

StartChar: cent
Encoding: 162 162 99
Width: 1617
GlyphClass: 2
Flags: W
LayerCount: 2
Fore
SplineSet
824 167 m 1,0,-1
 824 842 l 1,1,2
 673.433883434 819.61855024 673.433883434 819.61855024 573.5 742 c 0,3,4
 463.497524752 656.561184274 463.497524752 656.561184274 463.497524752 510.036819753 c 0,5,6
 463.497524752 365.571782178 463.497524752 365.571782178 563.5 279.5 c 0,7,8
 664 193 664 193 824 167 c 1,0,-1
993 -147 m 2,9,10
 993 -204 993 -204 926 -204 c 2,11,-1
 891 -204 l 2,12,13
 824 -204 824 -204 824 -146 c 2,14,-1
 824 -25 l 1,15,16
 424.401337793 2.55852842809 424.401337793 2.55852842809 234 212 c 0,17,18
 129 327.5 129 327.5 129 505 c 0,19,20
 129 610 129 610 169.5 697 c 128,-1,21
 210 784 210 784 276.5 842.5 c 128,-1,22
 343 901 343 901 434 943.5 c 0,23,24
 597.600182983 1019.90667887 597.600182983 1019.90667887 824 1035 c 1,25,-1
 824 1215 l 2,26,27
 824 1246 824 1246 840.5 1258.5 c 128,-1,28
 857 1271 857 1271 891 1271 c 2,29,-1
 926 1271 l 2,30,31
 993 1271 993 1271 993 1214 c 2,32,-1
 993 1036 l 1,33,34
 1258 1020 1258 1020 1435 927 c 1,35,36
 1471.37878788 906.954545455 1471.37878788 906.954545455 1471.37878788 876.987603306 c 0,37,38
 1471.37878788 866.590909091 1471.37878788 866.590909091 1467 855 c 1,39,40
 1441 798 1441 798 1436 779 c 1,41,42
 1424 752 1424 752 1399.5 750 c 128,-1,43
 1375 748 1375 748 1355 760 c 1,44,45
 1186 838 1186 838 993 849 c 1,46,-1
 993 158 l 1,47,48
 1155 167 1155 167 1343 241 c 1,49,50
 1365.56483099 249.006875513 1365.56483099 249.006875513 1382.19484188 249.006875513 c 0,51,52
 1413.84759357 249.006875513 1413.84759357 249.006875513 1424 220 c 0,53,54
 1427 211 1427 211 1435 185.5 c 128,-1,55
 1443 160 1443 160 1448 145 c 0,56,57
 1452.10126582 132.924050633 1452.10126582 132.924050633 1452.10126582 122.301714469 c 0,58,59
 1452.10126582 86.3037974684 1452.10126582 86.3037974684 1405 67 c 0,60,61
 1218 -12 1218 -12 993 -26 c 1,62,-1
 993 -147 l 2,9,10
EndSplineSet
EndChar

StartChar: sterling
Encoding: 163 163 100
Width: 1880
GlyphClass: 2
Flags: W
LayerCount: 2
Fore
SplineSet
209 0 m 2,0,1
 146 0 146 0 146 66 c 2,2,-1
 146 125 l 2,3,4
 146 195 146 195 209 195 c 2,5,-1
 338 195 l 2,6,7
 359 195 359 195 364.5 205 c 128,-1,8
 370 215 370 215 370 249 c 2,9,-1
 370 616 l 2,10,11
 370 659 370 659 338 659 c 2,12,-1
 209 659 l 2,13,14
 146 659 146 659 146 725 c 2,15,-1
 146 777 l 2,16,17
 146 843 146 843 209 843 c 2,18,-1
 365 843 l 1,19,20
 378.959526432 1146.12114537 378.959526432 1146.12114537 545.5 1306 c 0,21,22
 721.541666667 1475 721.541666667 1475 1121 1475 c 0,23,24
 1413 1475 1413 1475 1694 1393 c 1,25,26
 1747 1379 1747 1379 1747 1336 c 0,27,28
 1747 1328 1747 1328 1746 1323 c 2,29,-1
 1725 1222 l 2,30,31
 1719 1198 1719 1198 1709.5 1188 c 128,-1,32
 1700 1178 1700 1178 1686 1178 c 128,-1,33
 1672 1178 1672 1178 1664 1179.5 c 128,-1,34
 1656 1181 1656 1181 1589.5 1195.5 c 128,-1,35
 1523 1210 1523 1210 1458.5 1222 c 0,36,37
 1270.375 1257 1270.375 1257 1155 1257 c 0,38,39
 934 1257 934 1257 841.5 1179 c 128,-1,40
 749 1101 749 1101 750 906 c 1,41,-1
 750 843 l 1,42,-1
 1161 843 l 2,43,44
 1224 843 1224 843 1224 777 c 2,45,-1
 1224 725 l 2,46,47
 1224 659 1224 659 1161 659 c 2,48,-1
 748 659 l 1,49,-1
 748 275 l 2,50,51
 748 221 748 221 761 208 c 128,-1,52
 774 195 774 195 836 195 c 2,53,-1
 1678 195 l 2,54,55
 1737 195 1737 195 1737 139 c 2,56,-1
 1737 45 l 2,57,58
 1737 0 1737 0 1678 0 c 2,59,-1
 209 0 l 2,0,1
EndSplineSet
EndChar

StartChar: currency
Encoding: 164 164 101
Width: 1326
GlyphClass: 2
Flags: W
LayerCount: 2
Fore
SplineSet
662 548 m 0,0,1
 743 548 743 548 809 571 c 128,-1,2
 875 594 875 594 918.5 631.5 c 128,-1,3
 962 669 962 669 991.5 719.5 c 0,4,5
 1047 814.508474576 1047 814.508474576 1047 909.754237288 c 128,-1,6
 1047 1005 1047 1005 1025.5 1071 c 128,-1,7
 1004 1137 1004 1137 960 1194 c 0,8,9
 864.280701754 1318 864.280701754 1318 662 1318 c 1,10,11
 433.099009901 1318 433.099009901 1318 333.5 1147.5 c 0,12,13
 278 1052.49152542 278 1052.49152542 278 931 c 0,14,15
 278 743.127906977 278 743.127906977 406 631.5 c 0,16,17
 501.746666667 548 501.746666667 548 662 548 c 0,0,1
971 515 m 1,18,19
 834.533333333 426 834.533333333 426 662.266666667 426 c 128,-1,20
 490 426 490 426 355 515 c 1,21,-1
 324 484 l 2,22,23
 285 445 285 445 269 445 c 128,-1,24
 253 445 253 445 242 457 c 2,25,-1
 210 489 l 2,26,27
 196 503 196 503 196 520 c 128,-1,28
 196 537 196 537 233 574 c 2,29,-1
 258 599 l 1,30,31
 140 734 140 734 140 932 c 128,-1,32
 140 1130 140 1130 260 1268 c 1,33,-1
 233 1295 l 2,34,35
 194 1334 194 1334 194 1349.5 c 128,-1,36
 194 1365 194 1365 207 1377 c 2,37,-1
 239 1409 l 2,38,39
 253 1423 253 1423 270 1423 c 128,-1,40
 287 1423 287 1423 324 1386 c 2,41,-1
 358 1352 l 1,42,43
 494 1440 494 1440 663 1440 c 128,-1,44
 832 1440 832 1440 968 1352 c 1,45,-1
 1001 1385 l 2,46,47
 1039 1423 1039 1423 1055.5 1423 c 128,-1,48
 1072 1423 1072 1423 1086 1409 c 2,49,-1
 1119 1377 l 2,50,51
 1131 1364 1131 1364 1131 1349 c 128,-1,52
 1131 1334 1131 1334 1092 1295 c 2,53,-1
 1065 1268 l 1,54,55
 1185 1130 1185 1130 1185 933 c 128,-1,56
 1185 736 1185 736 1068 599 c 1,57,-1
 1092 575 l 2,58,59
 1130 537 1130 537 1130 520.5 c 128,-1,60
 1130 504 1130 504 1116 490 c 2,61,-1
 1084 457 l 1,62,63
 1070 445 1070 445 1054.5 445 c 128,-1,64
 1039 445 1039 445 1002 484 c 1,65,-1
 971 515 l 1,18,19
EndSplineSet
EndChar

StartChar: yen
Encoding: 165 165 102
Width: 1866
GlyphClass: 2
Flags: W
LayerCount: 2
Fore
SplineSet
816 0 m 2,0,1
 784 0 784 0 765 19 c 128,-1,2
 746 38 746 38 746 70 c 2,3,-1
 746 227 l 1,4,-1
 493 227 l 2,5,6
 463 227 463 227 454.5 240.5 c 128,-1,7
 446 254 446 254 446 290 c 2,8,-1
 446 321 l 2,9,10
 446 357 446 357 454.5 370.5 c 128,-1,11
 463 384 463 384 493 384 c 2,12,-1
 746 384 l 1,13,-1
 721 566 l 1,14,-1
 429 566 l 2,15,16
 399 566 399 566 390.5 579.5 c 128,-1,17
 382 593 382 593 382 629 c 2,18,-1
 382 660 l 2,19,20
 382 696 382 696 390.5 709.5 c 128,-1,21
 399 723 399 723 429 723 c 2,22,-1
 681 723 l 1,23,-1
 103 1373 l 1,24,25
 78 1397 78 1397 78 1414 c 0,26,27
 78 1438 78 1438 112 1438 c 2,28,-1
 392 1438 l 2,29,30
 462 1438 462 1438 522 1373 c 1,31,-1
 952 884 l 1,32,-1
 1373 1372 l 1,33,34
 1428 1438 1428 1438 1498 1438 c 2,35,-1
 1747 1438 l 2,36,37
 1783 1438 1783 1438 1783 1415 c 0,38,39
 1783 1392 1783 1392 1761 1373 c 1,40,-1
 1182 723 l 1,41,-1
 1430 723 l 2,42,43
 1460 723 1460 723 1468.5 709.5 c 128,-1,44
 1477 696 1477 696 1477 660 c 2,45,-1
 1477 629 l 2,46,47
 1477 593 1477 593 1468.5 579.5 c 128,-1,48
 1460 566 1460 566 1430 566 c 2,49,-1
 1145 566 l 1,50,-1
 1121 384 l 1,51,-1
 1398 384 l 2,52,53
 1428 384 1428 384 1436.5 370.5 c 128,-1,54
 1445 357 1445 357 1445 321 c 2,55,-1
 1445 290 l 2,56,57
 1445 254 1445 254 1436.5 240.5 c 128,-1,58
 1428 227 1428 227 1398 227 c 2,59,-1
 1121 227 l 1,60,-1
 1121 70 l 2,61,62
 1121 38 1121 38 1102 19 c 128,-1,63
 1083 0 1083 0 1051 0 c 2,64,-1
 816 0 l 2,0,1
EndSplineSet
EndChar

StartChar: brokenbar
Encoding: 166 166 103
Width: 546
GlyphClass: 2
Flags: W
LayerCount: 2
Fore
SplineSet
386 896 m 2,0,1
 386 819 386 819 324 819 c 2,2,-1
 223 819 l 2,3,4
 160 819 160 819 160 896 c 2,5,-1
 160 1478 l 2,6,7
 160 1555 160 1555 223 1555 c 2,8,-1
 324 1555 l 2,9,10
 386 1555 386 1555 386 1478 c 2,11,-1
 386 896 l 2,0,1
386 -73 m 2,12,13
 386 -150 386 -150 324 -150 c 2,14,-1
 223 -150 l 2,15,16
 160 -150 160 -150 160 -73 c 2,17,-1
 160 509 l 2,18,19
 160 586 160 586 223 586 c 2,20,-1
 324 586 l 2,21,22
 386 586 386 586 386 509 c 2,23,-1
 386 -73 l 2,12,13
EndSplineSet
EndChar

StartChar: section
Encoding: 167 167 104
Width: 1672
GlyphClass: 2
Flags: W
LayerCount: 2
Fore
SplineSet
1232 598 m 1,0,1
 1272 688 1272 688 1272 725.5 c 128,-1,2
 1272 763 1272 763 1235.5 787 c 0,3,4
 1166.27440786 832.518197574 1166.27440786 832.518197574 880.637203928 845.259098787 c 128,-1,5
 595 858 595 858 471 886 c 1,6,7
 426 824 426 824 426 757 c 0,8,9
 426 728 426 728 438 712 c 128,-1,10
 450 696 450 696 497 681 c 0,11,12
 574.664389411 656.213492741 574.664389411 656.213492741 942 630.5 c 0,13,14
 1149.22713864 615.994100295 1149.22713864 615.994100295 1232 598 c 1,0,1
156 724 m 0,15,16
 156 851.75862069 156 851.75862069 282 943 c 1,17,18
 156 1013 156 1013 156 1146 c 0,19,20
 156 1452.81553398 156 1452.81553398 701.5 1474 c 0,21,22
 753 1476 753 1476 872 1476 c 0,23,24
 1156.36170213 1476 1156.36170213 1476 1377 1391 c 0,25,26
 1403 1380 1403 1380 1414 1355 c 128,-1,27
 1425 1330 1425 1330 1413 1306 c 1,28,-1
 1390 1254 l 2,29,30
 1378 1228 1378 1228 1346.5 1220.5 c 0,31,32
 1338.21052632 1218.52631579 1338.21052632 1218.52631579 1327.77423823 1218.52631579 c 0,33,34
 1298.55263158 1218.52631579 1298.55263158 1218.52631579 1252.5 1234 c 0,35,36
 1097.73809524 1286 1097.73809524 1286 868.369047619 1286 c 128,-1,37
 639 1286 639 1286 542 1258.5 c 128,-1,38
 445 1231 445 1231 445 1170.5 c 128,-1,39
 445 1110 445 1110 515.5 1093 c 128,-1,40
 586 1076 586 1076 866.5 1057.5 c 128,-1,41
 1147 1039 1147 1039 1250 1016 c 0,42,43
 1436 975 1436 975 1493 869 c 0,44,45
 1524 811 1524 811 1524 716 c 128,-1,46
 1524 621 1524 621 1428 521 c 1,47,48
 1524 450 1524 450 1524 308 c 0,49,50
 1524 130 1524 130 1360.5 44.5 c 128,-1,51
 1197 -41 1197 -41 823 -41 c 128,-1,52
 449 -41 449 -41 202 60 c 0,53,54
 176 70 176 70 164.5 98.5 c 128,-1,55
 153 127 153 127 164 152 c 2,56,-1
 186 199 l 2,57,58
 200 230 200 230 227.5 242.5 c 128,-1,59
 255 255 255 255 285 244 c 0,60,61
 543.142857143 153 543.142857143 153 882 153 c 0,62,63
 1082 153 1082 153 1159.5 187.5 c 128,-1,64
 1237 222 1237 222 1237 296 c 0,65,66
 1237 331 1237 331 1224.5 350.5 c 128,-1,67
 1212 370 1212 370 1167 386.5 c 0,68,69
 1087.78091873 415.546996466 1087.78091873 415.546996466 811 427 c 1,70,71
 536.675675676 439.909379968 536.675675676 439.909379968 406 474.5 c 0,72,73
 280.548840478 507.707659874 280.548840478 507.707659874 224.5 561 c 0,74,75
 156 626.131147541 156 626.131147541 156 724 c 0,15,16
EndSplineSet
EndChar

StartChar: dieresis
Encoding: 168 168 105
Width: 1209
GlyphClass: 2
Flags: W
LayerCount: 2
Fore
SplineSet
850 735 m 2,0,1
 818 735 818 735 795.5 757.5 c 128,-1,2
 773 780 773 780 773 812 c 2,3,-1
 773 920 l 2,4,5
 773 952 773 952 795.5 974.5 c 128,-1,6
 818 997 818 997 850 997 c 2,7,-1
 982 997 l 2,8,9
 1014 997 1014 997 1036.5 974.5 c 128,-1,10
 1059 952 1059 952 1059 920 c 2,11,-1
 1059 812 l 2,12,13
 1059 780 1059 780 1036.5 757.5 c 128,-1,14
 1014 735 1014 735 982 735 c 2,15,-1
 850 735 l 2,0,1
228 735 m 2,16,17
 196 735 196 735 173.5 757.5 c 128,-1,18
 151 780 151 780 151 812 c 2,19,-1
 151 920 l 2,20,21
 151 952 151 952 173.5 974.5 c 128,-1,22
 196 997 196 997 228 997 c 2,23,-1
 361 997 l 2,24,25
 393 997 393 997 415.5 974.5 c 128,-1,26
 438 952 438 952 438 920 c 2,27,-1
 438 812 l 2,28,29
 438 780 438 780 415.5 757.5 c 128,-1,30
 393 735 393 735 361 735 c 2,31,-1
 228 735 l 2,16,17
EndSplineSet
EndChar

StartChar: copyright
Encoding: 169 169 106
Width: 1901
GlyphClass: 2
Flags: W
LayerCount: 2
Fore
SplineSet
950 -41 m 128,-1,1
 752 -41 752 -41 594 21 c 128,-1,2
 436 83 436 83 337 189 c 128,-1,3
 238 295 238 295 186 430 c 128,-1,4
 134 565 134 565 134 717 c 128,-1,5
 134 869 134 869 186 1004 c 128,-1,6
 238 1139 238 1139 337 1245 c 128,-1,7
 436 1351 436 1351 594 1413 c 128,-1,8
 752 1475 752 1475 950 1475 c 128,-1,9
 1148 1475 1148 1475 1306 1413 c 128,-1,10
 1464 1351 1464 1351 1563 1245 c 128,-1,11
 1662 1139 1662 1139 1714 1004 c 128,-1,12
 1766 869 1766 869 1766 717 c 128,-1,13
 1766 565 1766 565 1714 430 c 128,-1,14
 1662 295 1662 295 1563 189 c 128,-1,15
 1464 83 1464 83 1306 21 c 128,-1,0
 1148 -41 1148 -41 950 -41 c 128,-1,1
953 96 m 128,-1,17
 1089 96 1089 96 1200 133 c 128,-1,18
 1311 170 1311 170 1384 230.5 c 128,-1,19
 1457 291 1457 291 1506.5 372.5 c 0,20,21
 1599 524.797979798 1599 524.797979798 1599 713 c 0,22,23
 1599 908.636363636 1599 908.636363636 1506.5 1060 c 0,24,25
 1339.05555556 1334 1339.05555556 1334 953 1334 c 0,26,27
 565.944444444 1334 565.944444444 1334 398.5 1060 c 0,28,29
 306 908.636363636 306 908.636363636 306 713 c 0,30,31
 306 524.797979798 306 524.797979798 398.5 372.5 c 0,32,33
 503.187988836 200.134927471 503.187988836 200.134927471 705.5 133 c 0,34,16
 817 96 817 96 953 96 c 128,-1,17
657 419 m 0,35,36
 590 465 590 465 551 544.5 c 128,-1,37
 512 624 512 624 512 717.5 c 128,-1,38
 512 811 512 811 539.5 879 c 128,-1,39
 567 947 567 947 611.5 991.5 c 128,-1,40
 656 1036 656 1036 715.5 1066.5 c 0,41,42
 827.672131148 1124 827.672131148 1124 986.336065574 1124 c 128,-1,43
 1145 1124 1145 1124 1278 1050 c 1,44,45
 1303.51686171 1037.65313143 1303.51686171 1037.65313143 1303.51686171 1000.67086577 c 0,46,47
 1303.51686171 981.981303207 1303.51686171 981.981303207 1297 957 c 0,48,49
 1291 934 1291 934 1287 921 c 128,-1,50
 1283 908 1283 908 1267.5 897 c 128,-1,51
 1252 886 1252 886 1236 894 c 0,52,53
 1110 950 1110 950 995 950 c 128,-1,54
 880 950 880 950 806.5 895 c 128,-1,55
 733 840 733 840 733 724 c 128,-1,56
 733 608 733 608 807 552.5 c 128,-1,57
 881 497 881 497 997.5 497 c 128,-1,58
 1114 497 1114 497 1245 547 c 1,59,60
 1260 554 1260 554 1273.5 544.5 c 128,-1,61
 1287 535 1287 535 1290 523.5 c 128,-1,62
 1293 512 1293 512 1299 491 c 128,-1,63
 1305 470 1305 470 1309.5 454.5 c 0,64,65
 1311.12 448.92 1311.12 448.92 1311.12 442.692 c 0,66,67
 1311.12 431.62 1311.12 431.62 1306 418.5 c 0,68,69
 1298 398 1298 398 1283 391 c 0,70,71
 1142 327 1142 327 966.5 327 c 128,-1,72
 791 327 791 327 657 419 c 0,35,36
EndSplineSet
EndChar

StartChar: ordfeminine
Encoding: 170 170 107
Width: 1871
GlyphClass: 2
Flags: W
LayerCount: 2
Fore
SplineSet
358.5 705 m 0,0,1
 416 677 416 677 547.5 677 c 128,-1,2
 679 677 679 677 780 707 c 128,-1,3
 881 737 881 737 944.5 803.5 c 128,-1,4
 1008 870 1008 870 1008 964 c 0,5,6
 1008 975 1008 975 1006 979.5 c 128,-1,7
 1004 984 1004 984 997 984 c 0,8,9
 893 984 893 984 875 978 c 1,10,11
 553 952 553 952 425 909.5 c 0,12,13
 298.969230769 867.653846154 298.969230769 867.653846154 298.969230769 791.391597633 c 0,14,15
 298.969230769 733.988896321 298.969230769 733.988896321 358.5 705 c 0,0,1
881.5 596 m 128,-1,17
 737 531 737 531 507 531 c 128,-1,18
 277 531 277 531 144.5 594 c 0,19,20
 9.97701149425 657.96187378 9.97701149425 657.96187378 9.97701149425 775.02761263 c 0,21,22
 9.97701149425 839.218390805 9.97701149425 839.218390805 51.5 891 c 0,23,24
 94 944 94 944 163.5 976.5 c 128,-1,25
 233 1009 233 1009 322.5 1034 c 128,-1,26
 412 1059 412 1059 505.5 1071 c 128,-1,27
 599 1083 599 1083 688.5 1091 c 128,-1,28
 778 1099 778 1099 848 1102 c 0,29,30
 1004 1108.68571429 1004 1108.68571429 1004 1118 c 2,31,-1
 1004 1131 l 2,32,33
 1004 1225.91666667 1004 1225.91666667 938 1274.5 c 0,34,35
 868.037735849 1326 868.037735849 1326 672 1326 c 0,36,37
 539.75 1326 539.75 1326 440.375 1301 c 128,-1,38
 341 1276 341 1276 304.5 1240 c 128,-1,39
 268 1204 268 1204 246 1204 c 1,40,-1
 69 1225 l 2,41,42
 58 1226 58 1226 49.5 1236.5 c 128,-1,43
 41 1247 41 1247 41 1262.5 c 128,-1,44
 41 1278 41 1278 50 1296 c 1,45,46
 105 1388 105 1388 250.5 1430.5 c 128,-1,47
 396 1473 396 1473 695.5 1473 c 128,-1,48
 995 1473 995 1473 1146.5 1380 c 128,-1,49
 1298 1287 1298 1287 1298 1074 c 2,50,-1
 1298 640 l 2,51,52
 1298 568 1298 568 1251 568 c 2,53,-1
 1202 568 l 2,54,55
 1155 568 1155 568 1135 655 c 0,56,57
 1125 695 1125 695 1112.5 742 c 128,-1,58
 1100 789 1100 789 1096.5 789 c 128,-1,59
 1093 789 1093 789 1091 785 c 128,-1,60
 1089 781 1089 781 1086.5 775 c 128,-1,61
 1084 769 1084 769 1083 767 c 0,62,16
 1026 661 1026 661 881.5 596 c 128,-1,17
EndSplineSet
EndChar

StartChar: guillemotleft
Encoding: 171 171 108
Width: 1384
GlyphClass: 2
Flags: W
LayerCount: 2
Fore
SplineSet
1224.5 182.5 m 128,-1,1
 1211 169 1211 169 1196 169 c 128,-1,2
 1181 169 1181 169 1161 179 c 1,3,-1
 733 488 l 2,4,5
 695 516 695 516 678 538.5 c 128,-1,6
 661 561 661 561 661 596 c 2,7,-1
 661 688 l 2,8,9
 661 723 661 723 678.5 747.5 c 128,-1,10
 696 772 696 772 734 799 c 2,11,-1
 1160 1097 l 1,12,13
 1180 1107 1180 1107 1195.5 1107 c 128,-1,14
 1211 1107 1211 1107 1224.5 1093.5 c 128,-1,15
 1238 1080 1238 1080 1238 1063 c 2,16,-1
 1238 979 l 2,17,18
 1238 945 1238 945 1224.5 925 c 128,-1,19
 1211 905 1211 905 1177 878 c 1,20,-1
 881 665 l 1,21,22
 870 655 870 655 870 644 c 128,-1,23
 870 633 870 633 881 623 c 1,24,-1
 1177 410 l 1,25,26
 1211 383 1211 383 1224.5 362.5 c 128,-1,27
 1238 342 1238 342 1238 308 c 2,28,-1
 1238 213 l 2,29,0
 1238 196 1238 196 1224.5 182.5 c 128,-1,1
691 182.5 m 128,-1,31
 678 169 678 169 662 169 c 128,-1,32
 646 169 646 169 626 179 c 1,33,-1
 198 488 l 2,34,35
 160 516 160 516 143 538.5 c 128,-1,36
 126 561 126 561 126 596 c 2,37,-1
 126 688 l 2,38,39
 126 723 126 723 143.5 747.5 c 128,-1,40
 161 772 161 772 199 799 c 2,41,-1
 626 1097 l 1,42,43
 644 1107 644 1107 661 1107 c 128,-1,44
 678 1107 678 1107 691 1093.5 c 128,-1,45
 704 1080 704 1080 704 1063 c 2,46,-1
 704 979 l 2,47,48
 704 945 704 945 690.5 925 c 128,-1,49
 677 905 677 905 643 878 c 1,50,-1
 346 665 l 1,51,52
 335 655 335 655 335 644 c 128,-1,53
 335 633 335 633 346 623 c 1,54,-1
 643 410 l 1,55,56
 677 383 677 383 690.5 362.5 c 128,-1,57
 704 342 704 342 704 308 c 2,58,-1
 704 213 l 2,59,30
 704 196 704 196 691 182.5 c 128,-1,31
EndSplineSet
EndChar

StartChar: logicalnot
Encoding: 172 172 109
Width: 1270
GlyphClass: 2
Flags: W
LayerCount: 2
Fore
SplineSet
1131 277 m 2,0,1
 1131 200 1131 200 1068 200 c 2,2,-1
 941 200 l 2,3,4
 879 200 879 200 879 277 c 2,5,-1
 879 540 l 2,6,7
 879 555 879 555 868 566 c 128,-1,8
 857 577 857 577 842 577 c 2,9,-1
 189 577 l 2,10,11
 126 577 126 577 126 640 c 2,12,-1
 126 729 l 2,13,14
 126 792 126 792 189 792 c 2,15,-1
 1054 792 l 2,16,17
 1087 792 1087 792 1109 773 c 128,-1,18
 1131 754 1131 754 1131 722 c 2,19,-1
 1131 277 l 2,0,1
EndSplineSet
EndChar

StartChar: uni00AD
Encoding: 173 173 110
Width: 1024
GlyphClass: 2
Flags: W
LayerCount: 2
Fore
SplineSet
127 449 m 1,0,-1
 127 709 l 1,1,-1
 896 709 l 1,2,-1
 896 449 l 1,3,-1
 127 449 l 1,0,-1
EndSplineSet
EndChar

StartChar: registered
Encoding: 174 174 111
Width: 1901
GlyphClass: 2
Flags: W
LayerCount: 2
Fore
SplineSet
950 -41 m 128,-1,1
 752 -41 752 -41 594 21 c 128,-1,2
 436 83 436 83 337 189 c 128,-1,3
 238 295 238 295 186 430 c 128,-1,4
 134 565 134 565 134 717 c 128,-1,5
 134 869 134 869 186 1004 c 128,-1,6
 238 1139 238 1139 337 1245 c 128,-1,7
 436 1351 436 1351 594 1413 c 128,-1,8
 752 1475 752 1475 950 1475 c 128,-1,9
 1148 1475 1148 1475 1306 1413 c 128,-1,10
 1464 1351 1464 1351 1563 1245 c 128,-1,11
 1662 1139 1662 1139 1714 1004 c 128,-1,12
 1766 869 1766 869 1766 717 c 128,-1,13
 1766 565 1766 565 1714 430 c 128,-1,14
 1662 295 1662 295 1563 189 c 128,-1,15
 1464 83 1464 83 1306 21 c 128,-1,0
 1148 -41 1148 -41 950 -41 c 128,-1,1
953 96 m 128,-1,17
 1089 96 1089 96 1200 133 c 128,-1,18
 1311 170 1311 170 1384 230.5 c 128,-1,19
 1457 291 1457 291 1506.5 372.5 c 0,20,21
 1599 524.797979798 1599 524.797979798 1599 713 c 0,22,23
 1599 908.636363636 1599 908.636363636 1506.5 1060 c 0,24,25
 1339.05555556 1334 1339.05555556 1334 953 1334 c 0,26,27
 565.944444444 1334 565.944444444 1334 398.5 1060 c 0,28,29
 306 908.636363636 306 908.636363636 306 713 c 0,30,31
 306 524.797979798 306 524.797979798 398.5 372.5 c 0,32,33
 503.187988836 200.134927471 503.187988836 200.134927471 705.5 133 c 0,34,16
 817 96 817 96 953 96 c 128,-1,17
765 771 m 2,35,36
 765 754 765 754 781 754 c 2,37,-1
 1097 754 l 2,38,39
 1136 754 1136 754 1156 776 c 128,-1,40
 1176 798 1176 798 1176 827.5 c 128,-1,41
 1176 857 1176 857 1168 873 c 128,-1,42
 1160 889 1160 889 1149.5 897.5 c 128,-1,43
 1139 906 1139 906 1117 910 c 0,44,45
 1084 916 1084 916 1030 916 c 2,46,-1
 781 916 l 2,47,48
 765 916 765 916 765 899 c 2,49,-1
 765 771 l 2,35,36
587 387 m 2,50,51
 574 387 574 387 564.5 397.5 c 128,-1,52
 555 408 555 408 555 422 c 2,53,-1
 555 1014 l 2,54,55
 555 1029 555 1029 564 1039 c 128,-1,56
 573 1049 573 1049 587 1049 c 2,57,-1
 1006 1049 l 2,58,59
 1186.85714286 1049 1186.85714286 1049 1227.92857143 1037.5 c 128,-1,60
 1269 1026 1269 1026 1300 1011.5 c 128,-1,61
 1331 997 1331 997 1346 976.5 c 0,62,63
 1383 925.933333333 1383 925.933333333 1383 854.966666667 c 128,-1,64
 1383 784 1383 784 1342 743.5 c 128,-1,65
 1301 703 1301 703 1236 692 c 0,66,67
 1235 692 1235 692 1235 690 c 128,-1,68
 1235 688 1235 688 1236 688 c 0,69,70
 1301 674 1301 674 1331 620.5 c 128,-1,71
 1361 567 1361 567 1371 472 c 0,72,73
 1372.78571429 452.357142857 1372.78571429 452.357142857 1375.89285714 432.678571429 c 128,-1,74
 1379 413 1379 413 1379 409 c 0,75,76
 1379 387 1379 387 1362 387 c 2,77,-1
 1214 387 l 2,78,79
 1194 387 1194 387 1185.5 393.5 c 128,-1,80
 1177 400 1177 400 1174 414 c 128,-1,81
 1171 428 1171 428 1165.5 461.5 c 128,-1,82
 1160 495 1160 495 1156 516 c 0,83,84
 1145.06666667 573.4 1145.06666667 573.4 1127.53333333 600.7 c 128,-1,85
 1110 628 1110 628 1094.5 633 c 128,-1,86
 1079 638 1079 638 1034 638 c 2,87,-1
 781 638 l 2,88,89
 775 638 775 638 770 632.5 c 128,-1,90
 765 627 765 627 765 620 c 2,91,-1
 765 422 l 2,92,93
 765 408 765 408 755.5 397.5 c 128,-1,94
 746 387 746 387 733 387 c 2,95,-1
 587 387 l 2,50,51
EndSplineSet
EndChar

StartChar: macron
Encoding: 175 175 112
Width: 1079
GlyphClass: 2
Flags: W
LayerCount: 2
Fore
SplineSet
203 1057 m 2,0,1
 141 1057 141 1057 141 1127 c 2,2,-1
 141 1188 l 2,3,4
 141 1258 141 1258 203 1258 c 2,5,-1
 878 1258 l 2,6,7
 941 1258 941 1258 941 1188 c 2,8,-1
 941 1127 l 2,9,10
 941 1057 941 1057 878 1057 c 2,11,-1
 203 1057 l 2,0,1
EndSplineSet
EndChar

StartChar: degree
Encoding: 176 176 113
Width: 1333
GlyphClass: 2
Flags: W
LayerCount: 2
Fore
SplineSet
666 129 m 128,-1,1
 537 129 537 129 433.5 171 c 128,-1,2
 330 213 330 213 265.5 285 c 0,3,4
 132 434.023255814 132 434.023255814 132 646 c 0,5,6
 132 912.12 132 912.12 324.5 1061.5 c 0,7,8
 457.87628866 1165 457.87628866 1165 666 1165 c 0,9,10
 795 1165 795 1165 898.5 1123 c 128,-1,11
 1002 1081 1002 1081 1067 1008.5 c 0,12,13
 1201 859.038461538 1201 859.038461538 1201 646 c 0,14,15
 1201 433.430769231 1201 433.430769231 1067 285 c 0,16,17
 1002 213 1002 213 898.5 171 c 128,-1,0
 795 129 795 129 666 129 c 128,-1,1
667 261 m 0,18,19
 748 261 748 261 814 284 c 128,-1,20
 880 307 880 307 923.5 344.5 c 128,-1,21
 967 382 967 382 996.5 432.5 c 0,22,23
 1052 527.508474576 1052 527.508474576 1052 622.754237288 c 128,-1,24
 1052 718 1052 718 1030.5 784 c 128,-1,25
 1009 850 1009 850 965 907 c 0,26,27
 869.280701754 1031 869.280701754 1031 667 1031 c 1,28,29
 438.099009901 1031 438.099009901 1031 338.5 860.5 c 0,30,31
 283 765.491525424 283 765.491525424 283 644 c 0,32,33
 283 456.127906977 283 456.127906977 411 344.5 c 0,34,35
 506.746666667 261 506.746666667 261 667 261 c 0,18,19
EndSplineSet
EndChar

StartChar: plusminus
Encoding: 177 177 114
Width: 1289
GlyphClass: 2
Flags: W
LayerCount: 2
Fore
SplineSet
172 -72 m 2,0,1
 140 -72 140 -72 121 -53 c 128,-1,2
 102 -34 102 -34 102 -2 c 2,3,-1
 102 78 l 2,4,5
 102 110 102 110 121 129 c 128,-1,6
 140 148 140 148 172 148 c 2,7,-1
 1061 148 l 2,8,9
 1093 148 1093 148 1111.5 129 c 128,-1,10
 1130 110 1130 110 1130 78 c 2,11,-1
 1130 -2 l 2,12,13
 1130 -34 1130 -34 1111.5 -53 c 128,-1,14
 1093 -72 1093 -72 1061 -72 c 2,15,-1
 172 -72 l 2,0,1
476 843 m 2,16,17
 506 843 506 843 506 880 c 2,18,-1
 506 1192 l 2,19,20
 506 1262 506 1262 568 1262 c 2,21,-1
 672 1262 l 2,22,23
 735 1262 735 1262 735 1192 c 2,24,-1
 735 880 l 2,25,26
 735 843 735 843 764 843 c 2,27,-1
 1048 843 l 2,28,29
 1110 843 1110 843 1110 780 c 2,30,-1
 1110 678 l 2,31,32
 1110 615 1110 615 1048 615 c 2,33,-1
 764 615 l 2,34,35
 735 615 735 615 735 578 c 2,36,-1
 735 273 l 2,37,38
 735 203 735 203 672 203 c 2,39,-1
 568 203 l 2,40,41
 506 203 506 203 506 273 c 2,42,-1
 506 578 l 2,43,44
 506 615 506 615 476 615 c 2,45,-1
 192 615 l 2,46,47
 129 615 129 615 129 678 c 2,48,-1
 129 780 l 2,49,50
 129 843 129 843 192 843 c 2,51,-1
 476 843 l 2,16,17
EndSplineSet
EndChar

StartChar: acute
Encoding: 180 180 117
Width: 1745
GlyphClass: 2
Flags: W
LayerCount: 2
Fore
SplineSet
983 1168 m 2,0,1
 960.3125 1168 960.3125 1168 960.3125 1199.66796875 c 0,2,3
 960.3125 1214.0625 960.3125 1214.0625 965 1235 c 1,4,-1
 1028 1550 l 2,5,6
 1034 1582 1034 1582 1048 1593.5 c 128,-1,7
 1062 1605 1062 1605 1095 1605 c 2,8,-1
 1291 1605 l 2,9,10
 1319 1605 1319 1605 1319 1577 c 0,11,12
 1319 1561 1319 1561 1307 1540 c 1,13,-1
 1095 1207 l 2,14,15
 1069 1168 1069 1168 1045 1168 c 2,16,-1
 983 1168 l 2,0,1
EndSplineSet
EndChar

StartChar: uni00B5
Encoding: 181 181 118
Width: 1709
GlyphClass: 2
Flags: W
LayerCount: 2
Fore
SplineSet
1278 187 m 0,0,1
 1090 -45 1090 -45 724 -45 c 0,2,3
 548 -45 548 -45 468 27 c 1,4,-1
 468 -229 l 2,5,6
 468 -299 468 -299 404 -299 c 2,7,-1
 223 -299 l 2,8,9
 191 -299 191 -299 172 -280 c 128,-1,10
 153 -261 153 -261 153 -229 c 2,11,-1
 153 940 l 2,12,13
 153 972 153 972 171.5 991 c 128,-1,14
 190 1010 190 1010 222 1010 c 2,15,-1
 423 1010 l 2,16,17
 455 1010 455 1010 474 991 c 128,-1,18
 493 972 493 972 493 940 c 2,19,-1
 493 435 l 2,20,21
 493 293 493 293 579.5 223.5 c 128,-1,22
 666 154 666 154 814 154 c 0,23,24
 910 154 910 154 1006.5 196 c 128,-1,25
 1103 238 1103 238 1164.5 304 c 128,-1,26
 1226 370 1226 370 1226 435 c 2,27,-1
 1226 940 l 2,28,29
 1226 972 1226 972 1244 991 c 128,-1,30
 1262 1010 1262 1010 1294 1010 c 2,31,-1
 1488 1010 l 2,32,33
 1520 1010 1520 1010 1539 991 c 128,-1,34
 1558 972 1558 972 1558 940 c 2,35,-1
 1558 77 l 2,36,37
 1558 0 1558 0 1495 0 c 2,38,-1
 1451 0 l 2,39,40
 1380 0 1380 0 1359 64 c 1,41,-1
 1315 188 l 1,42,43
 1307 201 1307 201 1298.5 201 c 128,-1,44
 1290 201 1290 201 1278 187 c 0,0,1
EndSplineSet
EndChar

StartChar: paragraph
Encoding: 182 182 119
Width: 1423
GlyphClass: 2
Flags: W
LayerCount: 2
Fore
SplineSet
845 76 m 2,0,1
 845 -1 845 -1 782 -1 c 2,2,-1
 680 -1 l 2,3,4
 618 -1 618 -1 618 76 c 2,5,-1
 618 730 l 1,6,-1
 591 730 l 2,7,8
 122 730 122 730 122 1091 c 0,9,10
 122 1273 122 1273 263.5 1355.5 c 128,-1,11
 405 1438 405 1438 697.5 1438 c 128,-1,12
 990 1438 990 1438 1195 1412 c 1,13,14
 1264 1401.21875 1264 1401.21875 1264 1334 c 2,15,-1
 1264 76 l 2,16,17
 1264 -1 1264 -1 1201 -1 c 2,18,-1
 1099 -1 l 2,19,20
 1037 -1 1037 -1 1037 76 c 2,21,-1
 1037 709 l 2,22,23
 1037 730 1037 730 1018 730 c 2,24,-1
 845 730 l 1,25,-1
 845 76 l 2,0,1
EndSplineSet
EndChar

StartChar: periodcentered
Encoding: 183 183 120
Width: 571
GlyphClass: 2
Flags: W
LayerCount: 2
Fore
SplineSet
205 687 m 2,0,1
 173 687 173 687 150.5 709.5 c 128,-1,2
 128 732 128 732 128 764 c 2,3,-1
 128 924 l 2,4,5
 128 956 128 956 150.5 978.5 c 128,-1,6
 173 1001 173 1001 205 1001 c 2,7,-1
 366 1001 l 2,8,9
 398 1001 398 1001 420.5 978.5 c 128,-1,10
 443 956 443 956 443 924 c 2,11,-1
 443 764 l 2,12,13
 443 732 443 732 420.5 709.5 c 128,-1,14
 398 687 398 687 366 687 c 2,15,-1
 205 687 l 2,0,1
EndSplineSet
EndChar

StartChar: cedilla
Encoding: 184 184 121
Width: 716
GlyphClass: 2
Flags: W
LayerCount: 2
Fore
SplineSet
410 -486 m 0,0,1
 483 -486 483 -486 483 -345 c 0,2,3
 483 -285 483 -285 460.5 -238.5 c 128,-1,4
 438 -192 438 -192 402 -192 c 2,5,-1
 363 -192 l 1,6,7
 347 -193 347 -193 347 -182 c 2,8,-1
 347 -111 l 2,9,10
 347 -94 347 -94 363 -94 c 2,11,-1
 447 -94 l 2,12,13
 525 -94 525 -94 578 -161 c 128,-1,14
 631 -228 631 -228 631 -337.5 c 128,-1,15
 631 -447 631 -447 572 -513.5 c 128,-1,16
 513 -580 513 -580 414 -580 c 128,-1,17
 315 -580 315 -580 255 -530.5 c 128,-1,18
 195 -481 195 -481 195 -396 c 128,-1,19
 195 -311 195 -311 245 -311 c 2,20,-1
 312 -311 l 2,21,22
 328 -311 328 -311 336.5 -321.5 c 128,-1,23
 345 -332 345 -332 341.5 -354.5 c 128,-1,24
 338 -377 338 -377 338 -405.5 c 128,-1,25
 338 -434 338 -434 356 -460 c 128,-1,26
 374 -486 374 -486 410 -486 c 0,0,1
EndSplineSet
EndChar

StartChar: ordmasculine
Encoding: 186 186 123
Width: 1875
GlyphClass: 2
Flags: W
LayerCount: 2
Fore
SplineSet
820.5 556.5 m 128,-1,1
 737 544 737 544 649 544 c 128,-1,2
 561 544 561 544 477 556.5 c 128,-1,3
 393 569 393 569 306 602 c 128,-1,4
 219 635 219 635 154.5 686 c 128,-1,5
 90 737 90 737 49 820 c 128,-1,6
 8 903 8 903 8 1009 c 128,-1,7
 8 1115 8 1115 48 1198 c 128,-1,8
 88 1281 88 1281 151 1332 c 128,-1,9
 214 1383 214 1383 301 1415.5 c 0,10,11
 454.923076923 1473 454.923076923 1473 649 1473 c 0,12,13
 969.823529412 1473 969.823529412 1473 1144 1332 c 0,14,15
 1207 1281 1207 1281 1247 1198 c 128,-1,16
 1287 1115 1287 1115 1287 1009 c 128,-1,17
 1287 903 1287 903 1246 820 c 128,-1,18
 1205 737 1205 737 1141 686.5 c 128,-1,19
 1077 636 1077 636 990.5 602.5 c 128,-1,0
 904 569 904 569 820.5 556.5 c 128,-1,1
390 783 m 0,20,21
 490 704 490 704 648 704 c 128,-1,22
 806 704 806 704 905.5 782.5 c 128,-1,23
 1005 861 1005 861 1005 1008 c 0,24,25
 1005 1108 1005 1108 955.5 1178.5 c 128,-1,26
 906 1249 906 1249 827.5 1281 c 128,-1,27
 749 1313 749 1313 649 1313 c 128,-1,28
 549 1313 549 1313 469.5 1281 c 128,-1,29
 390 1249 390 1249 340.5 1178.5 c 128,-1,30
 290.99009901 1107.98589859 290.99009901 1107.98589859 290.99009901 1005.11547887 c 0,31,32
 290.99009901 861.217821782 290.99009901 861.217821782 390 783 c 0,20,21
EndSplineSet
EndChar

StartChar: guillemotright
Encoding: 187 187 124
Width: 1389
GlyphClass: 2
Flags: W
LayerCount: 2
Fore
SplineSet
764 179 m 1,0,1
 744 169 744 169 728 169 c 128,-1,2
 712 169 712 169 699 182.5 c 128,-1,3
 686 196 686 196 686 213 c 2,4,-1
 686 296 l 2,5,6
 686 330 686 330 700 350.5 c 128,-1,7
 714 371 714 371 748 398 c 1,8,-1
 1043 610 l 1,9,10
 1055 620 1055 620 1055 631.5 c 128,-1,11
 1055 643 1055 643 1043 652 c 2,12,-1
 748 866 l 1,13,14
 714 893 714 893 700 913.5 c 128,-1,15
 686 934 686 934 686 968 c 2,16,-1
 686 1063 l 2,17,18
 686 1080 686 1080 699 1093.5 c 128,-1,19
 712 1107 712 1107 728 1107 c 128,-1,20
 744 1107 744 1107 764 1096 c 1,21,-1
 1191 788 l 2,22,23
 1229 760 1229 760 1246 737.5 c 128,-1,24
 1263 715 1263 715 1263 680 c 2,25,-1
 1263 588 l 2,26,27
 1263 553 1263 553 1245.5 528 c 128,-1,28
 1228 503 1228 503 1190 476 c 2,29,-1
 764 179 l 1,0,1
224 179 m 1,30,31
 204 169 204 169 188 169 c 128,-1,32
 172 169 172 169 159 182.5 c 128,-1,33
 146 196 146 196 146 213 c 2,34,-1
 146 296 l 2,35,36
 146 330 146 330 159.5 350.5 c 128,-1,37
 173 371 173 371 207 398 c 1,38,-1
 504 610 l 1,39,40
 515 620 515 620 515 631.5 c 128,-1,41
 515 643 515 643 504 652 c 2,42,-1
 207 866 l 1,43,44
 173 893 173 893 159.5 913.5 c 128,-1,45
 146 934 146 934 146 968 c 2,46,-1
 146 1063 l 2,47,48
 146 1080 146 1080 159 1093.5 c 128,-1,49
 172 1107 172 1107 189 1107 c 128,-1,50
 206 1107 206 1107 223 1096 c 1,51,-1
 651 788 l 2,52,53
 689 760 689 760 706 737.5 c 128,-1,54
 723 715 723 715 723 680 c 2,55,-1
 723 588 l 2,56,57
 723 528.540540541 723 528.540540541 651 476 c 1,58,-1
 224 179 l 1,30,31
EndSplineSet
EndChar

StartChar: onequarter
Encoding: 188 188 125
Width: 2665
GlyphClass: 2
Flags: W
LayerCount: 2
Fore
SplineSet
2549 336 m 2,0,1
 2598 336 2598 336 2598 287 c 2,2,-1
 2598 220 l 2,3,4
 2598 198 2598 198 2585 184.5 c 128,-1,5
 2572 171 2572 171 2549 171 c 2,6,-1
 2393 171 l 1,7,-1
 2393 12 l 2,8,9
 2393 -10 2393 -10 2379.5 -23.5 c 128,-1,10
 2366 -37 2366 -37 2344 -37 c 2,11,-1
 2220 -38 l 2,12,13
 2198 -38 2198 -38 2185 -25 c 128,-1,14
 2172 -12 2172 -12 2172 10 c 2,15,-1
 2172 170 l 1,16,-1
 1544 169 l 2,17,18
 1523 169 1523 169 1508 180 c 128,-1,19
 1493 191 1493 191 1493 203 c 128,-1,20
 1493 215 1493 215 1495 219 c 2,21,-1
 1720 957 l 2,22,23
 1728 982 1728 982 1738 994.5 c 128,-1,24
 1748 1007 1748 1007 1769 1007 c 2,25,-1
 1923 1007 l 2,26,27
 1944 1007 1944 1007 1959 996 c 128,-1,28
 1974 985 1974 985 1974 975 c 128,-1,29
 1974 965 1974 965 1972 957 c 2,30,-1
 1804 359 l 2,31,32
 1803 358 1803 358 1803 355 c 0,33,34
 1803 336 1803 336 1825 336 c 2,35,-1
 2172 336 l 1,36,-1
 2172 958 l 2,37,38
 2172 1007 2172 1007 2220 1007 c 2,39,-1
 2344 1007 l 2,40,41
 2366 1007 2366 1007 2379.5 993.5 c 128,-1,42
 2393 980 2393 980 2393 958 c 2,43,-1
 2393 336 l 1,44,-1
 2549 336 l 2,0,1
587 483 m 2,45,46
 587 434 587 434 539 434 c 2,47,-1
 369 434 l 2,48,49
 320 434 320 434 320 483 c 2,50,-1
 320 1227 l 2,51,52
 320 1238 320 1238 312 1245.5 c 128,-1,53
 304 1253 304 1253 294 1253 c 1,54,-1
 117 1234 l 1,55,56
 68 1234 68 1234 68 1283 c 2,57,-1
 68 1348 l 2,58,59
 68 1370 68 1370 81 1383.5 c 128,-1,60
 94 1397 94 1397 117 1397 c 1,61,-1
 539 1439 l 1,62,63
 587 1439 587 1439 587 1390 c 2,64,-1
 587 483 l 2,45,46
610 -203 m 1,65,66
 579.317629906 -200.210693628 579.317629906 -200.210693628 579.317629906 -182.06975181 c 0,67,68
 579.317629906 -176.705925235 579.317629906 -176.705925235 582 -170 c 1,69,-1
 1463 1597 l 2,70,71
 1478 1628 1478 1628 1498 1637.5 c 128,-1,72
 1518 1647 1518 1647 1550 1647 c 2,73,-1
 1653 1647 l 2,74,75
 1690.83695652 1647 1690.83695652 1647 1690.83695652 1616.56592628 c 0,76,77
 1690.83695652 1599.54347826 1690.83695652 1599.54347826 1679 1573 c 1,78,-1
 813 -167 l 2,79,80
 795 -203 795 -203 750 -203 c 2,81,-1
 610 -203 l 1,65,66
EndSplineSet
EndChar

StartChar: onehalf
Encoding: 189 189 126
Width: 3032
GlyphClass: 2
Flags: W
LayerCount: 2
Fore
SplineSet
586 483 m 2,0,1
 586 434 586 434 538 434 c 2,2,-1
 368 434 l 2,3,4
 346 434 346 434 332.5 447 c 128,-1,5
 319 460 319 460 319 483 c 2,6,-1
 319 1227 l 2,7,8
 319 1238 319 1238 311.5 1245.5 c 128,-1,9
 304 1253 304 1253 293 1253 c 1,10,-1
 116 1234 l 1,11,12
 94 1234 94 1234 80.5 1247 c 128,-1,13
 67 1260 67 1260 67 1283 c 2,14,-1
 67 1348 l 2,15,16
 67 1370 67 1370 80.5 1383.5 c 128,-1,17
 94 1397 94 1397 116 1397 c 1,18,-1
 538 1439 l 1,19,20
 586 1439 586 1439 586 1390 c 2,21,-1
 586 483 l 2,0,1
660.5 -202 m 128,-1,23
 647 -201 647 -201 642 -190.5 c 0,24,25
 639.222222222 -184.666666667 639.222222222 -184.666666667 639.222222222 -178.987654321 c 0,26,27
 639.222222222 -174.444444444 639.222222222 -174.444444444 641 -170 c 2,28,-1
 1522 1597 l 2,29,30
 1537 1628 1537 1628 1557 1637.5 c 128,-1,31
 1577 1647 1577 1647 1609 1647 c 2,32,-1
 1712 1647 l 2,33,34
 1749.83695652 1647 1749.83695652 1647 1749.83695652 1616.56592628 c 0,35,36
 1749.83695652 1599.54347826 1749.83695652 1599.54347826 1738 1573 c 1,37,-1
 872 -167 l 2,38,39
 854 -203 854 -203 809 -203 c 0,40,41
 748 -203 748 -203 711 -203 c 128,-1,22
 674 -203 674 -203 660.5 -202 c 128,-1,23
2000 189 m 0,42,43
 2000 152 2000 152 2047 152 c 2,44,-1
 2899 152 l 2,45,46
 2934 152 2934 152 2934 107 c 2,47,-1
 2934 41 l 2,48,49
 2934 8 2934 8 2913 2 c 0,50,51
 2906 0 2906 0 2895 0 c 2,52,-1
 1770 0 l 2,53,54
 1738 0 1738 0 1720 17 c 128,-1,55
 1702 34 1702 34 1702 64 c 1,56,-1
 1706 106 l 1,57,58
 1725.94053837 223.830453998 1725.94053837 223.830453998 1788 320.5 c 0,59,60
 1828.21237304 383.138504155 1828.21237304 383.138504155 1931.5 450.5 c 0,61,62
 2057.9425 532.9625 2057.9425 532.9625 2400 561 c 1,63,64
 2445 566 2445 566 2467 568 c 128,-1,65
 2489 570 2489 570 2526.5 575 c 128,-1,66
 2564 580 2564 580 2583.5 584.5 c 128,-1,67
 2603 589 2603 589 2630 597 c 128,-1,68
 2657 605 2657 605 2671 614.5 c 128,-1,69
 2685 624 2685 624 2699.5 637 c 0,70,71
 2726 660.75862069 2726 660.75862069 2726 707.379310345 c 128,-1,72
 2726 754 2726 754 2709 785.5 c 128,-1,73
 2692 817 2692 817 2648.5 841.5 c 0,74,75
 2564.16326531 889 2564.16326531 889 2322 889 c 1,76,77
 2226 889 2226 889 2108 869 c 0,78,79
 1947.27586207 841.75862069 1947.27586207 841.75862069 1893.63793103 823.879310345 c 128,-1,80
 1840 806 1840 806 1836.5 805 c 128,-1,81
 1833 804 1833 804 1830 803.5 c 0,82,83
 1821 802 1821 802 1818 802 c 0,84,85
 1783 802 1783 802 1778 823 c 1,86,87
 1747 885 1747 885 1747 914.5 c 128,-1,88
 1747 944 1747 944 1776.5 956 c 128,-1,89
 1806 968 1806 968 1867 984 c 128,-1,90
 1928 1000 1928 1000 1999.5 1014 c 0,91,92
 2162.28242812 1045.87348243 2162.28242812 1045.87348243 2270.64121406 1046.93674121 c 0,93,94
 2289.64311308 1047.12319528 2289.64311308 1047.12319528 2307.55767778 1047.12319528 c 0,95,96
 2391.80134893 1047.12319528 2391.80134893 1047.12319528 2452 1043 c 0,97,98
 2525 1038 2525 1038 2594 1027.5 c 128,-1,99
 2663 1017 2663 1017 2717.5 999.5 c 128,-1,100
 2772 982 2772 982 2818 956 c 128,-1,101
 2864 930 2864 930 2894.5 895.5 c 0,102,103
 2959.12873703 822.395363026 2959.12873703 822.395363026 2962.06436852 729.697681513 c 0,104,105
 2962.3674366 720.127778612 2962.3674366 720.127778612 2962.3674366 710.949001044 c 0,106,107
 2962.3674366 631.21868429 2962.3674366 631.21868429 2939.5 581 c 0,108,109
 2914 525 2914 525 2867.5 493 c 128,-1,110
 2821 461 2821 461 2760 440.5 c 128,-1,111
 2699 420 2699 420 2627.5 410 c 128,-1,112
 2556 400 2556 400 2482.5 393 c 128,-1,113
 2409 386 2409 386 2336 375 c 128,-1,114
 2263 364 2263 364 2200.5 346.5 c 0,115,116
 2062.88415199 307.967562558 2062.88415199 307.967562558 2008 208 c 1,117,118
 2000 201 2000 201 2000 189 c 0,42,43
EndSplineSet
EndChar

StartChar: threequarters
Encoding: 190 190 127
Width: 3352
GlyphClass: 2
Flags: W
LayerCount: 2
Fore
SplineSet
1249.5 -202 m 128,-1,1
 1236 -201 1236 -201 1231 -190.5 c 128,-1,2
 1226 -180 1226 -180 1230 -170 c 2,3,-1
 2111 1597 l 2,4,5
 2126 1628 2126 1628 2146 1637.5 c 128,-1,6
 2166 1647 2166 1647 2198 1647 c 2,7,-1
 2301 1647 l 2,8,9
 2338.83695652 1647 2338.83695652 1647 2338.83695652 1616.56592628 c 0,10,11
 2338.83695652 1599.54347826 2338.83695652 1599.54347826 2327 1573 c 1,12,-1
 1461 -167 l 2,13,14
 1443 -203 1443 -203 1398 -203 c 0,15,16
 1337 -203 1337 -203 1300 -203 c 128,-1,0
 1263 -203 1263 -203 1249.5 -202 c 128,-1,1
576 1185 m 2,17,18
 576 1216 576 1216 599 1216 c 2,19,-1
 767 1216 l 2,20,21
 966.677419355 1216 966.677419355 1216 1017.5 1284.5 c 0,22,23
 1044 1320.2173913 1044 1320.2173913 1044 1345.10869565 c 2,24,-1
 1044 1388 l 1,25,26
 1029.83783784 1519 1029.83783784 1519 713 1519 c 0,27,28
 487 1519 487 1519 162 1454 c 0,29,30
 137 1449 137 1449 131.5 1447.5 c 128,-1,31
 126 1446 126 1446 119 1446 c 0,32,33
 88 1446 88 1446 84 1478 c 2,34,-1
 74 1550 l 2,35,36
 73 1553 73 1553 73 1555 c 128,-1,37
 73 1557 73 1557 73 1559 c 0,38,39
 73 1590 73 1590 112.5 1601 c 128,-1,40
 152 1612 152 1612 260 1630 c 0,41,42
 542 1677 542 1677 706 1677 c 128,-1,43
 870 1677 870 1677 985 1656 c 128,-1,44
 1100 1635 1100 1635 1170.5 1595 c 0,45,46
 1307 1517.55319149 1307 1517.55319149 1307 1367 c 0,47,48
 1307 1272 1307 1272 1249 1213 c 128,-1,49
 1191 1154 1191 1154 1085 1143 c 1,50,51
 1217.16107383 1128.31543624 1217.16107383 1128.31543624 1279.5 1042 c 0,52,53
 1319 987.307692308 1319 987.307692308 1319 911 c 0,54,55
 1319 602 1319 602 695 602 c 0,56,57
 586 602 586 602 381.5 629.5 c 128,-1,58
 177 657 177 657 111 677 c 1,59,60
 73 687 73 687 73 717 c 0,61,62
 73 723 73 723 74 727 c 2,63,-1
 82 800 l 2,64,65
 86 831 86 831 113 831 c 0,66,67
 120.363636364 831 120.363636364 831 151.681818182 824.5 c 128,-1,68
 183 818 183 818 213.5 812.5 c 128,-1,69
 244 807 244 807 290 799.5 c 128,-1,70
 336 792 336 792 385 785 c 128,-1,71
 434 778 434 778 486.5 772 c 0,72,73
 600.25 759 600.25 759 688.125 759 c 128,-1,74
 776 759 776 759 836.5 767 c 128,-1,75
 897 775 897 775 936.5 788.5 c 128,-1,76
 976 802 976 802 1002.5 821 c 0,77,78
 1050.81104884 855.638110488 1050.81104884 855.638110488 1055 908 c 0,79,80
 1055.8 916.3 1055.8 916.3 1055.8 924.185 c 0,81,82
 1055.8 1074 1055.8 1074 767 1074 c 2,83,-1
 599 1074 l 2,84,85
 576 1074 576 1074 576 1105 c 2,86,-1
 576 1185 l 2,17,18
3081 12 m 2,87,88
 3081 -37 3081 -37 3032 -37 c 2,89,-1
 2918 -37 l 2,90,91
 2869 -37 2869 -37 2869 12 c 2,92,-1
 2869 171 l 1,93,-1
 2248 171 l 2,94,95
 2227 171 2227 171 2212 182 c 128,-1,96
 2197 193 2197 193 2197 204 c 128,-1,97
 2197 215 2197 215 2199 220 c 2,98,-1
 2425 958 l 2,99,100
 2433 983 2433 983 2443 995 c 128,-1,101
 2453 1007 2453 1007 2474 1007 c 2,102,-1
 2620 1007 l 2,103,104
 2671 1007 2671 1007 2671 967 c 0,105,106
 2671 962 2671 962 2669 958 c 2,107,-1
 2502 360 l 2,108,109
 2501 358 2501 358 2501 356 c 0,110,111
 2501 337 2501 337 2523 337 c 2,112,-1
 2869 337 l 1,113,-1
 2869 958 l 2,114,115
 2869 980 2869 980 2882 993.5 c 128,-1,116
 2895 1007 2895 1007 2918 1007 c 2,117,-1
 3032 1007 l 2,118,119
 3061.42857143 1007 3061.42857143 1007 3076 981.5 c 0,120,121
 3081 972.75 3081 972.75 3081 958 c 2,122,-1
 3081 337 l 1,123,-1
 3237 337 l 2,124,125
 3260 337 3260 337 3273 323.5 c 128,-1,126
 3286 310 3286 310 3286 288 c 2,127,-1
 3286 220 l 2,128,129
 3286 171 3286 171 3237 171 c 2,130,-1
 3081 171 l 1,131,-1
 3081 12 l 2,87,88
EndSplineSet
EndChar

StartChar: AE
Encoding: 198 198 135
Width: 2440
GlyphClass: 2
Flags: W
LayerCount: 2
Fore
SplineSet
679 509 m 1,0,-1
 678 505 l 1,1,2
 678 495 678 495 690 495 c 2,3,-1
 1043 495 l 1,4,-1
 1043 1233 l 1,5,6
 1036 1234 1036 1234 1035 1234 c 128,-1,7
 1034 1234 1034 1234 1030 1230 c 1,8,-1
 679 509 l 1,0,-1
1431 1213 m 2,9,10
 1402 1213 1402 1213 1402 1188 c 2,11,-1
 1402 863 l 2,12,13
 1402 858 1402 858 1409.5 847.5 c 128,-1,14
 1417 837 1417 837 1421 837 c 2,15,-1
 2107 837 l 2,16,17
 2139 837 2139 837 2158 815 c 128,-1,18
 2177 793 2177 793 2177 760 c 2,19,-1
 2177 717 l 2,20,21
 2177 684 2177 684 2158 662 c 128,-1,22
 2139 640 2139 640 2107 640 c 2,23,-1
 1426 640 l 2,24,25
 1421 640 1421 640 1411.5 632 c 128,-1,26
 1402 624 1402 624 1402 620 c 2,27,-1
 1402 243 l 2,28,29
 1402 239 1402 239 1409.5 231 c 128,-1,30
 1417 223 1417 223 1421 223 c 2,31,-1
 2232 223 l 2,32,33
 2264 223 2264 223 2282.5 201.5 c 128,-1,34
 2301 180 2301 180 2301 147 c 2,35,-1
 2301 77 l 2,36,37
 2301 44 2301 44 2282 22 c 128,-1,38
 2263 0 2263 0 2232 0 c 2,39,-1
 1113 0 l 2,40,41
 1081 0 1081 0 1062 19 c 128,-1,42
 1043 38 1043 38 1043 70 c 2,43,-1
 1043 292 l 1,44,-1
 597 292 l 2,45,46
 586 292 586 292 579 279 c 2,47,-1
 474 64 l 1,48,49
 445 0 445 0 375 0 c 2,50,-1
 151 0 l 2,51,52
 105 0 105 0 105 37 c 0,53,54
 105 53 105 53 114 68 c 1,55,-1
 791 1370 l 1,56,57
 823 1435 823 1435 889 1438 c 1,58,-1
 2211 1438 l 2,59,60
 2243 1438 2243 1438 2262 1416 c 128,-1,61
 2281 1394 2281 1394 2281 1361 c 2,62,-1
 2281 1290 l 2,63,64
 2281 1257 2281 1257 2262 1235 c 128,-1,65
 2243 1213 2243 1213 2211 1213 c 2,66,-1
 1431 1213 l 2,9,10
EndSplineSet
EndChar

StartChar: Eth
Encoding: 208 208 145
Width: 2281
GlyphClass: 2
Flags: W
LayerCount: 2
Fore
SplineSet
230 0 m 2,0,1
 198 0 198 0 179 19 c 128,-1,2
 160 38 160 38 160 70 c 2,3,-1
 160 639 l 1,4,-1
 64 639 l 2,5,6
 1 639 1 639 1 709 c 2,7,-1
 1 762 l 2,8,9
 1 832 1 832 64 832 c 2,10,-1
 160 832 l 1,11,-1
 160 1367 l 2,12,13
 160 1399 160 1399 179 1418.5 c 128,-1,14
 198 1438 198 1438 230 1438 c 2,15,-1
 1198 1438 l 2,16,17
 1818.45833333 1438 1818.45833333 1438 2041 1111 c 0,18,19
 2145 958.183673469 2145 958.183673469 2145 725 c 0,20,21
 2145 335.185430464 2145 335.185430464 1915.5 168 c 0,22,23
 1723.47678609 28.1155395378 1723.47678609 28.1155395378 1377 6 c 0,24,25
 1283 0 1283 0 1165 0 c 2,26,-1
 230 0 l 2,0,1
1153 1215 m 2,27,-1
 556 1214 l 2,28,29
 551 1214 551 1214 540.5 1204 c 128,-1,30
 530 1194 530 1194 530 1190 c 2,31,-1
 530 832 l 1,32,-1
 791 832 l 2,33,34
 853 832 853 832 853 762 c 2,35,-1
 853 706 l 1,36,37
 851 639 851 639 791 639 c 2,38,-1
 530 639 l 1,39,-1
 530 252 l 2,40,41
 530 248 530 248 543 237 c 128,-1,42
 556 226 556 226 561 226 c 0,43,44
 852.5 226 852.5 226 1039.75 226 c 128,-1,45
 1227 226 1227 226 1291.5 230.5 c 128,-1,46
 1356 235 1356 235 1424.5 248 c 128,-1,47
 1493 261 1493 261 1543 283.5 c 128,-1,48
 1593 306 1593 306 1639.5 343.5 c 128,-1,49
 1686 381 1686 381 1714.5 432.5 c 0,50,51
 1777 545.438596491 1777 545.438596491 1777 723 c 0,52,53
 1777 1040.91304348 1777 1040.91304348 1521.5 1152 c 0,54,55
 1376.6 1215 1376.6 1215 1153 1215 c 2,27,-1
EndSplineSet
EndChar

StartChar: multiply
Encoding: 215 215 152
Width: 1142
GlyphClass: 2
Flags: W
LayerCount: 2
Fore
SplineSet
385 302.5 m 128,-1,1
 346 263 346 263 332.5 249 c 128,-1,2
 319 235 319 235 287 235 c 128,-1,3
 255 235 255 235 232 258 c 2,4,-1
 167 326 l 2,5,6
 145 349 145 349 145 381 c 128,-1,7
 145 413 145 413 167 435 c 0,8,9
 169 437 169 437 206 475 c 128,-1,10
 243 513 243 513 299.5 569.5 c 2,11,-1
 397 667 l 1,12,13
 358 703 358 703 302 758 c 128,-1,14
 246 813 246 813 205.5 852.5 c 128,-1,15
 165 892 165 892 151.5 905.5 c 128,-1,16
 138 919 138 919 138 950.5 c 128,-1,17
 138 982 138 982 161 1005 c 2,18,-1
 228 1072 l 1,19,20
 253 1095 253 1095 284 1095 c 128,-1,21
 315 1095 315 1095 337 1072 c 0,22,23
 500 909 500 909 570 842 c 1,24,25
 627.2 897 627.2 897 673.6 945 c 128,-1,26
 720 993 720 993 745 1018.5 c 128,-1,27
 770 1044 770 1044 786.5 1060.5 c 2,28,-1
 804 1078 l 2,29,30
 827 1101 827 1101 859 1101 c 128,-1,31
 891 1101 891 1101 913 1078 c 2,32,-1
 974 1014 l 2,33,34
 997 991 997 991 997 960 c 128,-1,35
 997 929 997 929 984.5 916.5 c 128,-1,36
 972 904 972 904 935 865.5 c 0,37,38
 824 750 824 750 743 669 c 1,39,40
 761 654 761 654 798.5 616.5 c 128,-1,41
 836 579 836 579 859 556.5 c 128,-1,42
 882 534 882 534 903 512.5 c 128,-1,43
 924 491 924 491 940.5 474 c 128,-1,44
 957 457 957 457 979.5 435 c 128,-1,45
 1002 413 1002 413 1002 380.5 c 128,-1,46
 1002 348 1002 348 980 326 c 2,47,-1
 918 263 l 2,48,49
 895 240 895 240 863.5 240 c 128,-1,50
 832 240 832 240 810 263 c 0,51,52
 699 374 699 374 572 493 c 1,53,54
 535 456 535 456 479.5 399 c 128,-1,0
 424 342 424 342 385 302.5 c 128,-1,1
EndSplineSet
EndChar

StartChar: Oslash
Encoding: 216 216 153
Width: 2343
GlyphClass: 2
Flags: W
LayerCount: 2
Fore
SplineSet
1062 200 m 1,0,1
 1097 196 1097 196 1190 196 c 128,-1,2
 1283 196 1283 196 1372 209.5 c 128,-1,3
 1461 223 1461 223 1544.5 258.5 c 128,-1,4
 1628 294 1628 294 1684 352 c 0,5,6
 1807 479.392857143 1807 479.392857143 1807 723 c 0,7,8
 1807 908 1807 908 1720 1024.5 c 128,-1,9
 1633 1141 1633 1141 1478 1194 c 1,10,-1
 1062 200 l 1,0,1
888 230 m 1,11,-1
 1310 1232 l 1,12,13
 1250 1240 1250 1240 1156.5 1240 c 128,-1,14
 1063 1240 1063 1240 969.5 1223 c 128,-1,15
 876 1206 876 1206 795 1167 c 128,-1,16
 714 1128 714 1128 657.5 1069 c 0,17,18
 536 942.123893805 536 942.123893805 536 723 c 0,19,20
 536 326 536 326 888 230 c 1,11,-1
866 -202 m 2,21,-1
 743 -200 l 2,22,23
 732 -200 732 -200 726.5 -189 c 128,-1,24
 721 -178 721 -178 726 -167 c 2,25,-1
 793 -7 l 1,26,27
 431.967047066 64.5560807617 431.967047066 64.5560807617 264.5 285.5 c 0,28,29
 134 457.672268908 134 457.672268908 134 723 c 0,30,31
 134 1067.3875 134 1067.3875 392 1262.5 c 0,32,33
 672.991735537 1475 672.991735537 1475 1172 1475 c 0,34,35
 1294 1475 1294 1475 1402 1461 c 1,36,-1
 1461 1602 l 2,37,38
 1474 1635 1474 1635 1505 1635 c 2,39,-1
 1628 1635 l 2,40,41
 1638 1635 1638 1635 1644 1624 c 128,-1,42
 1650 1613 1650 1613 1645 1602 c 2,43,-1
 1574 1430 l 1,44,45
 2058.8329921 1312.19011407 2058.8329921 1312.19011407 2175.5 950 c 0,46,47
 2209 846 2209 846 2209 719 c 128,-1,48
 2209 592 2209 592 2176 483 c 128,-1,49
 2143 374 2143 374 2087.5 296.5 c 128,-1,50
 2032 219 2032 219 1951.5 159 c 128,-1,51
 1871 99 1871 99 1782 62 c 128,-1,52
 1693 25 1693 25 1586.5 1 c 0,53,54
 1400.125 -41 1400.125 -41 1227.5625 -41 c 128,-1,55
 1055 -41 1055 -41 968 -32 c 1,56,-1
 911 -169 l 2,57,58
 897.8 -202 897.8 -202 866 -202 c 2,21,-1
EndSplineSet
EndChar

StartChar: Thorn
Encoding: 222 222 159
Width: 2004
GlyphClass: 2
Flags: W
LayerCount: 2
Fore
SplineSet
552 529 m 2,0,-1
 881 529 l 2,1,2
 1120.4 529 1120.4 529 1186.7 537.5 c 128,-1,3
 1253 546 1253 546 1298 555.5 c 128,-1,4
 1343 565 1343 565 1371 578 c 128,-1,5
 1399 591 1399 591 1427 610.5 c 128,-1,6
 1455 630 1455 630 1469.5 655.5 c 0,7,8
 1503 714.413793103 1503 714.413793103 1503 772.706896552 c 128,-1,9
 1503 831 1503 831 1490.5 866 c 128,-1,10
 1478 901 1478 901 1446.5 925 c 128,-1,11
 1415 949 1415 949 1386 966.5 c 128,-1,12
 1357 984 1357 984 1300 994.5 c 128,-1,13
 1243 1005 1243 1005 1204 1011.5 c 128,-1,14
 1165 1018 1165 1018 1089 1020.5 c 0,15,16
 982.6 1024 982.6 1024 901.8 1024 c 2,17,-1
 552 1024 l 2,18,19
 548 1024 548 1024 539 1014.5 c 128,-1,20
 530 1005 530 1005 530 1001 c 2,21,-1
 530 555 l 2,22,23
 530 550 530 550 539 539.5 c 128,-1,24
 548 529 548 529 552 529 c 2,0,-1
230 0 m 2,25,26
 198 0 198 0 179 19 c 128,-1,27
 160 38 160 38 160 70 c 2,28,-1
 160 1368 l 2,29,30
 160 1400 160 1400 179 1419 c 128,-1,31
 198 1438 198 1438 230 1438 c 2,32,-1
 460 1438 l 2,33,34
 492 1438 492 1438 511 1419 c 128,-1,35
 530 1400 530 1400 530 1368 c 2,36,-1
 530 1232 l 1,37,-1
 862 1232 l 2,38,39
 1200.33333333 1232 1200.33333333 1232 1301.16666667 1219.5 c 128,-1,40
 1402 1207 1402 1207 1483 1191.5 c 128,-1,41
 1564 1176 1564 1176 1614 1154.5 c 128,-1,42
 1664 1133 1664 1133 1719.5 1099.5 c 128,-1,43
 1775 1066 1775 1066 1805.5 1023.5 c 0,44,45
 1876 925.262295082 1876 925.262295082 1876 811.631147541 c 128,-1,46
 1876 698 1876 698 1848 623.5 c 128,-1,47
 1820 549 1820 549 1777 499 c 128,-1,48
 1734 449 1734 449 1657 413.5 c 128,-1,49
 1580 378 1580 378 1509 359 c 128,-1,50
 1438 340 1438 340 1325 330 c 0,51,52
 1166.04482478 315.933170334 1166.04482478 315.933170334 907 314 c 1,53,-1
 554 314 l 2,54,55
 550 314 550 314 540 303.5 c 128,-1,56
 530 293 530 293 530 288 c 2,57,-1
 530 70 l 2,58,59
 530 38 530 38 511 19 c 128,-1,60
 492 0 492 0 460 0 c 2,61,-1
 230 0 l 2,25,26
EndSplineSet
EndChar

StartChar: germandbls
Encoding: 223 223 160
Width: 1822
GlyphClass: 2
Flags: W
LayerCount: 2
Fore
SplineSet
901 844 m 2,0,1
 1275 844 1275 844 1275 1025 c 0,2,3
 1275 1105 1275 1105 1232 1148.5 c 0,4,5
 1149.45977011 1232 1149.45977011 1232 795 1232 c 1,6,7
 632 1232 632 1232 558.5 1167.5 c 128,-1,8
 485 1103 485 1103 485 955 c 2,9,-1
 485 86 l 2,10,11
 485 0 485 0 409 0 c 2,12,-1
 219 0 l 2,13,14
 156 0 156 0 156 77 c 2,15,-1
 156 969 l 2,16,17
 156 1166.73214286 156 1166.73214286 229 1264.5 c 0,18,19
 358.546666667 1438 358.546666667 1438 760 1438 c 2,20,-1
 865 1438 l 2,21,22
 1385.76923077 1438 1385.76923077 1438 1515 1228 c 0,23,24
 1563 1150 1563 1150 1563 1040 c 0,25,26
 1563 870 1563 870 1387 783 c 0,27,28
 1377 779 1377 779 1378 771.5 c 128,-1,29
 1379 764 1379 764 1390 761 c 0,30,31
 1528 719 1528 719 1609 632 c 128,-1,32
 1690 545 1690 545 1690 424.5 c 128,-1,33
 1690 304 1690 304 1628 220 c 128,-1,34
 1566 136 1566 136 1448 88.5 c 0,35,36
 1228.14736842 5.68434188608e-14 1228.14736842 5.68434188608e-14 835 0 c 2,37,-1
 692 0 l 2,38,39
 651 0 651 0 651 42 c 2,40,-1
 651 187 l 2,41,42
 651 202 651 202 662.5 212.5 c 128,-1,43
 674 223 674 223 694 222 c 1,44,-1
 848 222 l 2,45,46
 1237.5 222 1237.5 222 1322.5 316 c 0,47,48
 1365 363 1365 363 1365 443.5 c 128,-1,49
 1365 524 1365 524 1322 568.5 c 0,50,51
 1235.51685393 658 1235.51685393 658 888 658 c 2,52,-1
 714 658 l 2,53,54
 674 658 674 658 674 692 c 2,55,-1
 674 806 l 2,56,57
 674 844 674 844 714 844 c 2,58,-1
 901 844 l 2,0,1
EndSplineSet
EndChar

StartChar: ae
Encoding: 230 230 167
Width: 2859
GlyphClass: 2
Flags: W
LayerCount: 2
Fore
SplineSet
1645 598 m 2,0,-1
 2433 598 l 2,1,2
 2436 598 2436 598 2436 608 c 1,3,4
 2392.24390244 756.097560976 2392.24390244 756.097560976 2290 820 c 0,5,6
 2198.8 877 2198.8 877 2045.4 877 c 128,-1,7
 1892 877 1892 877 1773.5 807.5 c 128,-1,8
 1655 738 1655 738 1636 613 c 1,9,10
 1636 598 1636 598 1645 598 c 2,0,-1
1302 462 m 0,11,12
 1302 485 1302 485 1285 485 c 0,13,14
 1282 485 1282 485 1240 481.5 c 0,15,16
 809.811985899 445.650998825 809.811985899 445.650998825 641.905992949 396.325499412 c 128,-1,17
 474 347 474 347 474 258 c 1,18,19
 475 193 475 193 542 160.5 c 128,-1,20
 609 128 609 128 759 128 c 128,-1,21
 909 128 909 128 1030 167.5 c 128,-1,22
 1151 207 1151 207 1226.5 284 c 128,-1,23
 1302 361 1302 361 1302 462 c 0,11,12
1295 640 m 2,24,-1
 1297 688 l 1,25,26
 1297 882 1297 882 908 882 c 0,27,28
 755.127659574 882 755.127659574 882 644.063829787 853 c 128,-1,29
 533 824 533 824 490.5 782 c 128,-1,30
 448 740 448 740 423 740 c 0,31,32
 422 740 422 740 404 742 c 2,33,-1
 195 766 l 2,34,35
 183 767 183 767 174 778.5 c 128,-1,36
 165 790 165 790 165 801.5 c 128,-1,37
 165 813 165 813 176 846 c 1,38,39
 217 953 217 953 398 1003 c 128,-1,40
 579 1053 579 1053 906 1053 c 0,41,42
 1348 1053 1348 1053 1477 859 c 1,43,44
 1582 953 1582 953 1736.5 1003 c 128,-1,45
 1891 1053 1891 1053 2044 1053 c 0,46,47
 2341 1053 2341 1053 2520.5 922.5 c 128,-1,48
 2700 792 2700 792 2726 581 c 1,49,-1
 2726 534 l 1,50,51
 2725 504 2725 504 2700.5 478 c 128,-1,52
 2676 452 2676 452 2620 452 c 2,53,-1
 1652 452 l 2,54,55
 1648 452 1648 452 1640.5 453 c 128,-1,56
 1633 454 1633 454 1633 446 c 0,57,58
 1633 334.803571429 1633 334.803571429 1746 244 c 0,59,60
 1870.44444444 144 1870.44444444 144 2120 144 c 1,61,62
 2228 144 2228 144 2351.5 173.5 c 128,-1,63
 2475 203 2475 203 2532.5 224.5 c 0,64,65
 2571.66754396 239.145255569 2571.66754396 239.145255569 2597.00075522 239.145255569 c 0,66,67
 2630.84916055 239.145255569 2630.84916055 239.145255569 2640 213 c 1,68,69
 2665 127 2665 127 2666 124 c 0,70,71
 2666.83050847 118.898305085 2666.83050847 118.898305085 2666.83050847 114.078138466 c 0,72,73
 2666.83050847 78.2711864407 2666.83050847 78.2711864407 2621 58 c 0,74,75
 2524 17 2524 17 2356 -12.5 c 128,-1,76
 2188 -42 2188 -42 2078 -42 c 0,77,78
 1631 -42 1631 -42 1437 212 c 0,79,80
 1430 221 1430 221 1424 223 c 1,81,82
 1414 217 1414 217 1407 209 c 0,83,84
 1183 -41 1183 -41 723 -41 c 0,85,86
 439 -41 439 -41 289.5 32 c 128,-1,87
 140 105 140 105 138 238 c 1,88,89
 138 314 138 314 187.5 375 c 128,-1,90
 237 436 237 436 318.5 474.5 c 128,-1,91
 400 513 400 513 504 541.5 c 128,-1,92
 608 570 608 570 716.5 584 c 128,-1,93
 825 598 825 598 929 608 c 128,-1,94
 1033 618 1033 618 1114.5 621 c 0,95,96
 1295 627.644171779 1295 627.644171779 1295 640 c 2,24,-1
EndSplineSet
EndChar

StartChar: eth
Encoding: 240 240 177
Width: 1929
GlyphClass: 2
Flags: W
LayerCount: 2
Fore
SplineSet
1334.5 248.5 m 128,-1,1
 1460 322 1460 322 1460 465 c 0,2,3
 1460 568.228571429 1460 568.228571429 1389 623 c 0,4,5
 1315.93081255 679.36765889 1315.93081255 679.36765889 1231.46540628 693.683829445 c 0,6,7
 1093.9 717 1093.9 717 953.45 717 c 128,-1,8
 813 717 813 717 713.5 698 c 128,-1,9
 614 679 614 679 559.5 641.5 c 128,-1,10
 505 604 505 604 482.5 556.5 c 128,-1,11
 460 509 460 509 460 444 c 128,-1,12
 460 379 460 379 482.5 332 c 128,-1,13
 505 285 505 285 545.5 254.5 c 128,-1,14
 586 224 586 224 651 206.5 c 0,15,16
 768 175 768 175 988.5 175 c 128,-1,0
 1209 175 1209 175 1334.5 248.5 c 128,-1,1
1002 -41 m 0,17,18
 814 -41 814 -41 689 -26 c 128,-1,19
 564 -11 564 -11 458 24 c 128,-1,20
 352 59 352 59 280.5 113 c 0,21,22
 129 227.41958042 129 227.41958042 129 433 c 0,23,24
 129 790.92481203 129 790.92481203 602 874.5 c 0,25,26
 735 898 735 898 919.5 898 c 128,-1,27
 1104 898 1104 898 1249 865.5 c 128,-1,28
 1394 833 1394 833 1451 779 c 1,29,30
 1405 914 1405 914 1301.5 1010 c 128,-1,31
 1198 1106 1198 1106 1035 1185 c 1,32,33
 1030 1179 1030 1179 949 1094 c 128,-1,34
 868 1009 868 1009 857 997 c 128,-1,35
 846 985 846 985 824.5 985 c 128,-1,36
 803 985 803 985 788 1000 c 2,37,-1
 748 1039 l 2,38,39
 733 1054 733 1054 733 1075 c 128,-1,40
 733 1096 733 1096 741.5 1104.5 c 128,-1,41
 750 1113 750 1113 813 1180 c 128,-1,42
 876 1247 876 1247 881 1253 c 1,43,44
 834 1271 834 1271 633 1343 c 1,45,46
 605 1355 605 1355 605 1372.5 c 128,-1,47
 605 1390 605 1390 609 1399 c 2,48,-1
 652 1502 l 2,49,50
 662.734693878 1525.2585034 662.734693878 1525.2585034 671.867346939 1530.1292517 c 128,-1,51
 681 1535 681 1535 689.5 1535 c 128,-1,52
 698 1535 698 1535 714 1533 c 1,53,54
 881 1500 881 1500 1047 1435 c 1,55,56
 1055.66666667 1444.9047619 1055.66666667 1444.9047619 1130.83333333 1524.95238095 c 128,-1,57
 1206 1605 1206 1605 1215 1614.5 c 128,-1,58
 1224 1624 1224 1624 1245.5 1624 c 128,-1,59
 1267 1624 1267 1624 1282 1609 c 2,60,-1
 1323 1568 l 2,61,62
 1337 1554 1337 1554 1337 1532.5 c 128,-1,63
 1337 1511 1337 1511 1329 1502.5 c 128,-1,64
 1321 1494 1321 1494 1264.5 1434.5 c 128,-1,65
 1208 1375 1208 1375 1202 1368 c 1,66,67
 1471 1238 1471 1238 1633.5 1033 c 128,-1,68
 1796 828 1796 828 1796 603 c 0,69,70
 1796 -41 1796 -41 1002 -41 c 0,17,18
EndSplineSet
EndChar

StartChar: divide
Encoding: 247 247 184
Width: 1279
GlyphClass: 2
Flags: W
LayerCount: 2
Fore
SplineSet
577 750 m 2,0,1
 545 750 545 750 522.5 772.5 c 128,-1,2
 500 795 500 795 500 827 c 2,3,-1
 500 957 l 2,4,5
 500 989 500 989 522.5 1011.5 c 128,-1,6
 545 1034 545 1034 577 1034 c 2,7,-1
 713 1034 l 2,8,9
 745 1034 745 1034 767.5 1011.5 c 128,-1,10
 790 989 790 989 790 957 c 2,11,-1
 790 827 l 2,12,13
 790 795 790 795 767.5 772.5 c 128,-1,14
 745 750 745 750 713 750 c 2,15,-1
 577 750 l 2,0,1
187 437 m 2,16,17
 120 437 120 437 120 504 c 2,18,-1
 120 566 l 2,19,20
 120 633 120 633 187 633 c 2,21,-1
 1091 633 l 2,22,23
 1158 633 1158 633 1158 566 c 2,24,-1
 1158 504 l 2,25,26
 1158 437 1158 437 1091 437 c 2,27,-1
 187 437 l 2,16,17
577 10 m 2,28,29
 545 10 545 10 522.5 32.5 c 128,-1,30
 500 55 500 55 500 87 c 2,31,-1
 500 217 l 2,32,33
 500 249 500 249 522.5 271.5 c 128,-1,34
 545 294 545 294 577 294 c 2,35,-1
 713 294 l 2,36,37
 745 294 745 294 767.5 271.5 c 128,-1,38
 790 249 790 249 790 217 c 2,39,-1
 790 87 l 2,40,41
 790 55 790 55 767.5 32.5 c 128,-1,42
 745 10 745 10 713 10 c 2,43,-1
 577 10 l 2,28,29
EndSplineSet
EndChar

StartChar: oslash
Encoding: 248 248 185
Width: 1764
GlyphClass: 2
Flags: W
LayerCount: 2
Fore
SplineSet
884 148 m 0,0,1
 1069 148 1069 148 1186 240 c 128,-1,2
 1303 332 1303 332 1303 505 c 0,3,4
 1303 626 1303 626 1245 707 c 128,-1,5
 1187 788 1187 788 1086 827 c 1,6,-1
 804 152 l 1,7,8
 856 148 856 148 884 148 c 0,0,1
678 184 m 1,9,-1
 961 859 l 1,10,11
 930 864 930 864 863 864 c 128,-1,12
 796 864 796 864 720.5 842 c 128,-1,13
 645 820 645 820 586.5 776.5 c 0,14,15
 462 683.923076923 462 683.923076923 462 505 c 1,16,17
 461 387 461 387 519 306 c 128,-1,18
 577 225 577 225 678 184 c 1,9,-1
628 -202 m 2,19,-1
 551 -200 l 2,20,21
 540 -200 540 -200 534.5 -189 c 128,-1,22
 529 -178 529 -178 534 -167 c 2,23,-1
 601 -8 l 1,24,25
 404.091751622 38.2131603336 404.091751622 38.2131603336 274 153 c 0,26,27
 130 280.058823529 130 280.058823529 130 505 c 0,28,29
 130 759.813559322 130 759.813559322 322 903 c 0,30,31
 523.136363636 1053 523.136363636 1053 884 1053 c 0,32,33
 960 1053 960 1053 1036 1044 c 1,34,-1
 1086 1164 l 2,35,36
 1099 1197 1099 1197 1130 1197 c 2,37,-1
 1207 1197 l 2,38,39
 1217 1197 1217 1197 1223 1186 c 128,-1,40
 1229 1175 1229 1175 1224 1164 c 2,41,-1
 1165 1022 l 1,42,43
 1363.18316832 977.50990099 1363.18316832 977.50990099 1491.5 862.5 c 0,44,45
 1635 733.881481481 1635 733.881481481 1635 505 c 0,46,47
 1635 252.428571429 1635 252.428571429 1439.5 109.5 c 0,48,49
 1233.64367816 -41 1233.64367816 -41 884 -41 c 0,50,51
 810 -41 810 -41 730 -32 c 1,52,-1
 673 -169 l 2,53,54
 659.8 -202 659.8 -202 628 -202 c 2,19,-1
EndSplineSet
EndChar

StartChar: thorn
Encoding: 254 254 191
Width: 1799
GlyphClass: 2
Flags: W
LayerCount: 2
Fore
SplineSet
702 188.5 m 128,-1,1
 797 147 797 147 913 147 c 128,-1,2
 1029 147 1029 147 1121 185.5 c 128,-1,3
 1213 224 1213 224 1271 306.5 c 128,-1,4
 1329 389 1329 389 1329 504 c 0,5,6
 1329 667 1329 667 1212 762.5 c 128,-1,7
 1095 858 1095 858 912 858 c 128,-1,8
 729 858 729 858 611 762.5 c 128,-1,9
 493 667 493 667 493 505 c 0,10,11
 493 395 493 395 550 312.5 c 128,-1,0
 607 230 607 230 702 188.5 c 128,-1,1
477 1359 m 2,12,-1
 478 915 l 2,13,14
 478 869 478 869 491 869 c 0,15,16
 495 869 495 869 501 875 c 0,17,18
 592 961 592 961 719.5 1007 c 128,-1,19
 847 1053 847 1053 964.5 1053 c 128,-1,20
 1082 1053 1082 1053 1177 1034 c 128,-1,21
 1272 1015 1272 1015 1362 972.5 c 128,-1,22
 1452 930 1452 930 1520 868.5 c 128,-1,23
 1588 807 1588 807 1629 714 c 128,-1,24
 1670 621 1670 621 1670 506.5 c 128,-1,25
 1670 392 1670 392 1630 297.5 c 128,-1,26
 1590 203 1590 203 1523.5 140.5 c 128,-1,27
 1457 78 1457 78 1366.5 36 c 0,28,29
 1198.42857143 -42 1198.42857143 -42 982 -42 c 1,30,31
 837 -42 837 -42 714 1.5 c 128,-1,32
 591 45 591 45 510 128 c 0,33,34
 505 133 505 133 499.5 133 c 128,-1,35
 494 133 494 133 494 121 c 2,36,-1
 494 -320 l 2,37,38
 494 -352 494 -352 475 -370.5 c 128,-1,39
 456 -389 456 -389 424 -389 c 2,40,-1
 229 -389 l 2,41,42
 197 -389 197 -389 179 -370.5 c 128,-1,43
 161 -352 161 -352 161 -320 c 2,44,-1
 161 1368 l 2,45,46
 161 1438 161 1438 221 1438 c 2,47,-1
 420 1438 l 2,48,49
 477 1438 477 1438 477 1359 c 2,12,-1
EndSplineSet
EndChar

StartChar: dcroat
Encoding: 273 273 210
Width: 1797
GlyphClass: 2
Flags: W
LayerCount: 2
Fore
SplineSet
587 252 m 128,-1,1
 704 159 704 159 887.5 159 c 128,-1,2
 1071 159 1071 159 1189 252.5 c 0,3,4
 1306.00840336 345.214285714 1306.00840336 345.214285714 1306.00840336 504.29888426 c 0,5,6
 1306.00840336 620.988264271 1306.00840336 620.988264271 1248 702 c 0,7,8
 1136.2962963 858 1136.2962963 858 885 858 c 1,9,10
 638.987654321 858 638.987654321 858 528 703 c 0,11,12
 470 622 470 622 470 507 c 0,13,0
 470 345 470 345 587 252 c 128,-1,1
817 1053 m 0,14,15
 1118 1053 1118 1053 1298 873 c 1,16,17
 1304 873 1304 873 1306 888 c 1,18,-1
 1306 1133 l 1,19,-1
 1014 1133 l 2,20,21
 957 1133 957 1133 957 1203 c 2,22,-1
 957 1233 l 2,23,24
 957 1303 957 1303 1014 1303 c 2,25,-1
 1306 1303 l 1,26,-1
 1306 1364 l 2,27,28
 1306 1396 1306 1396 1324.5 1415 c 128,-1,29
 1343 1434 1343 1434 1375 1434 c 2,30,-1
 1567 1434 l 2,31,32
 1599 1434 1599 1434 1618 1415 c 128,-1,33
 1637 1396 1637 1396 1637 1364 c 2,34,-1
 1637 1303 l 1,35,-1
 1739 1303 l 2,36,37
 1796 1303 1796 1303 1796 1233 c 2,38,-1
 1796 1203 l 2,39,40
 1796 1133 1796 1133 1739 1133 c 2,41,-1
 1637 1133 l 1,42,-1
 1637 70 l 2,43,44
 1637 0 1637 0 1577 0 c 2,45,-1
 1548 0 l 2,46,47
 1502 0 1502 0 1466 69 c 1,48,49
 1417 174 1417 174 1410 191.5 c 128,-1,50
 1403 209 1403 209 1396 212 c 1,51,52
 1389 209 1389 209 1380 200 c 1,53,54
 1291 85 1291 85 1137 22 c 128,-1,55
 983 -41 983 -41 816 -41 c 0,56,57
 608.470588235 -41 608.470588235 -41 438 39.5 c 0,58,59
 244.949487277 130.662742119 244.949487277 130.662742119 171 297.5 c 0,60,61
 130 390 130 390 130 504 c 128,-1,62
 130 618 130 618 170 713 c 128,-1,63
 210 808 210 808 276.5 870 c 128,-1,64
 343 932 343 932 433 974.5 c 0,65,66
 599.235294118 1053 599.235294118 1053 817 1053 c 0,14,15
EndSplineSet
EndChar

StartChar: Hbar
Encoding: 294 294 231
Width: 2159
GlyphClass: 2
Flags: W
LayerCount: 2
Fore
SplineSet
544 852 m 2,0,-1
 1607 852 l 2,1,2
 1612 852 1612 852 1621.5 862 c 128,-1,3
 1631 872 1631 872 1631 876 c 2,4,-1
 1631 1096 l 1,5,-1
 523 1096 l 1,6,-1
 523 874 l 2,7,8
 523 869 523 869 531.5 860.5 c 128,-1,9
 540 852 540 852 544 852 c 2,0,-1
230 0 m 2,10,11
 198 0 198 0 179 19 c 128,-1,12
 160 38 160 38 160 70 c 2,13,-1
 160 1096 l 1,14,-1
 57 1096 l 2,15,16
 3 1096 3 1096 3 1163 c 2,17,-1
 3 1195 l 2,18,19
 3 1262 3 1262 57 1262 c 2,20,-1
 160 1262 l 1,21,-1
 160 1368 l 2,22,23
 160 1400 160 1400 179 1419 c 128,-1,24
 198 1438 198 1438 230 1438 c 2,25,-1
 454 1438 l 2,26,27
 486 1438 486 1438 504.5 1419 c 128,-1,28
 523 1400 523 1400 523 1368 c 2,29,-1
 523 1262 l 1,30,-1
 1631 1262 l 1,31,-1
 1631 1368 l 2,32,33
 1631 1400 1631 1400 1650 1419 c 128,-1,34
 1669 1438 1669 1438 1701 1438 c 2,35,-1
 1929 1438 l 2,36,37
 1961 1438 1961 1438 1980 1419 c 128,-1,38
 1999 1400 1999 1400 1999 1368 c 2,39,-1
 1999 1262 l 1,40,-1
 2105 1262 l 2,41,42
 2160 1262 2160 1262 2160 1195 c 2,43,-1
 2160 1163 l 2,44,45
 2160 1096 2160 1096 2105 1096 c 2,46,-1
 1999 1096 l 1,47,-1
 1999 70 l 2,48,49
 1999 38 1999 38 1980 19 c 128,-1,50
 1961 0 1961 0 1929 0 c 2,51,-1
 1700 0 l 2,52,53
 1668 0 1668 0 1649 19 c 128,-1,54
 1630 38 1630 38 1630 70 c 2,55,-1
 1630 607 l 2,56,57
 1630 612 1630 612 1621 621.5 c 128,-1,58
 1612 631 1612 631 1608 631 c 2,59,-1
 547 631 l 2,60,61
 543 631 543 631 534 622 c 128,-1,62
 525 613 525 613 525 609 c 2,63,-1
 525 70 l 2,64,65
 525 38 525 38 506 19 c 128,-1,66
 487 0 487 0 455 0 c 2,67,-1
 230 0 l 2,10,11
EndSplineSet
EndChar

StartChar: hbar
Encoding: 295 295 232
Width: 1701
GlyphClass: 2
Flags: W
LayerCount: 2
Fore
SplineSet
230 0 m 2,0,1
 198 0 198 0 179 19 c 128,-1,2
 160 38 160 38 160 70 c 2,3,-1
 160 1128 l 1,4,-1
 59 1128 l 2,5,6
 0 1128 0 1128 0 1198 c 2,7,-1
 0 1235 l 2,8,9
 0 1305 0 1305 59 1305 c 2,10,-1
 160 1305 l 1,11,-1
 160 1367 l 2,12,13
 160 1399 160 1399 179 1418 c 128,-1,14
 198 1437 198 1437 230 1437 c 2,15,-1
 422 1437 l 2,16,17
 454 1437 454 1437 473 1418 c 128,-1,18
 492 1399 492 1399 492 1367 c 2,19,-1
 492 1305 l 1,20,-1
 737 1305 l 2,21,22
 796 1305 796 1305 796 1235 c 2,23,-1
 796 1198 l 2,24,25
 796 1128 796 1128 737 1128 c 2,26,-1
 492 1128 l 1,27,-1
 492 879 l 2,28,29
 492 875 492 875 498.5 871.5 c 128,-1,30
 505 868 505 868 507 870 c 0,31,32
 694 1053 694 1053 991 1053 c 0,33,34
 1336.5106383 1053 1336.5106383 1053 1483 823.5 c 0,35,36
 1558 706 1558 706 1558 540 c 2,37,-1
 1558 70 l 2,38,39
 1558 38 1558 38 1539.5 19 c 128,-1,40
 1521 0 1521 0 1489 0 c 2,41,-1
 1292 0 l 2,42,43
 1260 0 1260 0 1241 19 c 128,-1,44
 1222 38 1222 38 1222 70 c 2,45,-1
 1222 573 l 2,46,47
 1222 715 1222 715 1134.5 786.5 c 128,-1,48
 1047 858 1047 858 901 858 c 0,49,50
 805 858 805 858 709 815 c 128,-1,51
 613 772 613 772 552.5 705 c 128,-1,52
 492 638 492 638 492 573 c 2,53,-1
 492 70 l 2,54,55
 492 38 492 38 473.5 19 c 128,-1,56
 455 0 455 0 423 0 c 2,57,-1
 230 0 l 2,0,1
EndSplineSet
EndChar

StartChar: dotlessi
Encoding: 305 305 242
Width: 643
GlyphClass: 2
Flags: W
LayerCount: 2
Fore
SplineSet
226 0 m 2,0,1
 194 0 194 0 175 19 c 128,-1,2
 156 38 156 38 156 70 c 2,3,-1
 156 936 l 2,4,5
 156 968 156 968 175 987 c 128,-1,6
 194 1006 194 1006 226 1006 c 2,7,-1
 418 1006 l 2,8,9
 450 1006 450 1006 469 987 c 128,-1,10
 488 968 488 968 488 936 c 2,11,-1
 488 70 l 2,12,13
 488 38 488 38 469 19 c 128,-1,14
 450 0 450 0 418 0 c 2,15,-1
 226 0 l 2,0,1
EndSplineSet
EndChar

StartChar: kgreenlandic
Encoding: 312 312 249
Width: 1804
GlyphClass: 2
Flags: W
LayerCount: 2
Fore
SplineSet
230 0 m 2,0,1
 198 0 198 0 179 19 c 128,-1,2
 160 38 160 38 160 70 c 2,3,-1
 160 936 l 2,4,5
 160 968 160 968 179 987 c 128,-1,6
 198 1006 198 1006 230 1006 c 2,7,-1
 422 1006 l 2,8,9
 454 1006 454 1006 473 987 c 128,-1,10
 492 968 492 968 492 936 c 2,11,-1
 492 564 l 2,12,13
 492 552 492 552 499 552 c 128,-1,14
 506 552 506 552 510 555 c 2,15,-1
 1136 946 l 2,16,17
 1231 1006 1231 1006 1283 1006 c 2,18,-1
 1597 1006 l 2,19,20
 1626 1006 1626 1006 1626 986 c 128,-1,21
 1626 966 1626 966 1589 946 c 1,22,-1
 1023 581 l 1,23,24
 1016 578 1016 578 1016 570.5 c 128,-1,25
 1016 563 1016 563 1023 556 c 1,26,-1
 1649 63 l 2,27,28
 1676 42 1676 42 1676 25 c 0,29,30
 1676 0 1676 0 1641 0 c 2,31,-1
 1367 0 l 2,32,33
 1337 0 1337 0 1311 15.5 c 128,-1,34
 1285 31 1285 31 1244 64 c 2,35,-1
 775 433 l 2,36,37
 764 442 764 442 755 442 c 128,-1,38
 746 442 746 442 731 433 c 128,-1,39
 716 424 716 424 659.5 389.5 c 0,40,41
 510.545454545 298.545454545 510.545454545 298.545454545 501.272727273 290.772727273 c 128,-1,42
 492 283 492 283 492 264 c 2,43,-1
 492 70 l 2,44,45
 492 38 492 38 473 19 c 128,-1,46
 454 0 454 0 422 0 c 2,47,-1
 230 0 l 2,0,1
EndSplineSet
EndChar

StartChar: Lslash
Encoding: 321 321 258
Width: 1565
GlyphClass: 2
Flags: W
LayerCount: 2
Fore
SplineSet
230 0 m 2,0,1
 198 0 198 0 179 19 c 128,-1,2
 160 38 160 38 160 70 c 2,3,-1
 160 649 l 1,4,-1
 47 620 l 1,5,6
 26 616 26 616 13 634.5 c 128,-1,7
 0 653 0 653 0 681 c 2,8,-1
 0 779 l 2,9,10
 0 830 0 830 47 839 c 1,11,-1
 160 868 l 1,12,-1
 160 1368 l 2,13,14
 160 1400 160 1400 179 1419 c 128,-1,15
 198 1438 198 1438 230 1438 c 2,16,-1
 473 1438 l 2,17,18
 505 1438 505 1438 524 1419 c 128,-1,19
 543 1400 543 1400 543 1368 c 2,20,-1
 543 964 l 1,21,-1
 802 1031 l 2,22,23
 824 1037 824 1037 837 1020 c 128,-1,24
 850 1003 850 1003 850 976 c 2,25,-1
 850 870 l 2,26,27
 850 824 850 824 802 812 c 2,28,-1
 543 745 l 1,29,-1
 543 264 l 2,30,31
 543 249 543 249 554 238 c 128,-1,32
 565 227 565 227 580 227 c 2,33,-1
 1381 227 l 2,34,35
 1413 227 1413 227 1431.5 208.5 c 128,-1,36
 1450 190 1450 190 1450 158 c 2,37,-1
 1450 70 l 2,38,39
 1450 38 1450 38 1431.5 19 c 128,-1,40
 1413 0 1413 0 1381 0 c 2,41,-1
 230 0 l 2,0,1
EndSplineSet
EndChar

StartChar: lslash
Encoding: 322 322 259
Width: 824
GlyphClass: 2
Flags: W
LayerCount: 2
Fore
SplineSet
305 0 m 2,0,1
 273 0 273 0 254 19 c 128,-1,2
 235 38 235 38 235 70 c 2,3,-1
 235 677 l 1,4,-1
 86 632 l 1,5,6
 65 627 65 627 52.5 646 c 128,-1,7
 40 665 40 665 40 693 c 2,8,-1
 40 791 l 2,9,10
 40 840 40 840 86 851 c 1,11,-1
 235 896 l 1,12,-1
 235 1379 l 2,13,14
 235 1411 235 1411 254 1430 c 128,-1,15
 273 1449 273 1449 305 1449 c 2,16,-1
 497 1449 l 2,17,18
 529 1449 529 1449 548 1430 c 128,-1,19
 567 1411 567 1411 567 1379 c 2,20,-1
 567 997 l 1,21,-1
 738 1049 l 1,22,23
 760 1053 760 1053 773 1036.5 c 128,-1,24
 786 1020 786 1020 786 993 c 2,25,-1
 786 888 l 2,26,27
 786 838 786 838 738 830 c 1,28,-1
 567 778 l 1,29,-1
 567 70 l 2,30,31
 567 38 567 38 548 19 c 128,-1,32
 529 0 529 0 497 0 c 2,33,-1
 305 0 l 2,0,1
EndSplineSet
EndChar

StartChar: Eng
Encoding: 330 330 267
Width: 2208
GlyphClass: 2
Flags: W
LayerCount: 2
Fore
SplineSet
1112 -544 m 0,0,1
 1099 -544 1099 -544 1089 -530 c 128,-1,2
 1079 -516 1079 -516 1079 -495 c 2,3,-1
 1079 -350 l 2,4,5
 1079 -326 1079 -326 1089 -313 c 128,-1,6
 1099 -300 1099 -300 1112 -300 c 0,7,8
 1388.62857143 -300 1388.62857143 -300 1498 -256.5 c 0,9,10
 1603.74789916 -214.441176471 1603.74789916 -214.441176471 1648 -137 c 0,11,12
 1701.10299003 -44.0697674419 1701.10299003 -44.0697674419 1703 102 c 1,13,-1
 1703 119 l 1,14,-1
 525 1059 l 2,15,16
 523 1061 523 1061 515 1056.5 c 128,-1,17
 507 1052 507 1052 507 1049 c 2,18,-1
 507 70 l 2,19,20
 507 38 507 38 488.5 19 c 128,-1,21
 470 0 470 0 438 0 c 2,22,-1
 230 0 l 2,23,24
 198 0 198 0 179 19 c 128,-1,25
 160 38 160 38 160 70 c 2,26,-1
 160 1373 l 2,27,28
 160 1405 160 1405 179 1424 c 128,-1,29
 198 1443 198 1443 230 1443 c 2,30,-1
 518 1443 l 2,31,32
 562 1443 562 1443 592 1415 c 1,33,-1
 1687 544 l 2,34,35
 1690.4 540.6 1690.4 540.6 1696.7 547.8 c 128,-1,36
 1703 555 1703 555 1703 557 c 2,37,-1
 1703 1367 l 2,38,39
 1703 1399 1703 1399 1722 1418 c 128,-1,40
 1741 1437 1741 1437 1773 1437 c 2,41,-1
 1978 1437 l 2,42,43
 2010 1437 2010 1437 2029 1418 c 128,-1,44
 2048 1399 2048 1399 2048 1367 c 2,45,-1
 2048 170 l 2,46,47
 2048 -401.378787879 2048 -401.378787879 1494 -510.5 c 0,48,49
 1323.92307692 -544 1323.92307692 -544 1112 -544 c 0,0,1
EndSplineSet
EndChar

StartChar: eng
Encoding: 331 331 268
Width: 1700
GlyphClass: 2
Flags: W
LayerCount: 2
Fore
SplineSet
153 929 m 2,0,1
 153 1006 153 1006 215 1006 c 2,2,-1
 260 1006 l 2,3,4
 329.057142857 1006 329.057142857 1006 351 942 c 2,5,-1
 394 820 l 1,6,7
 402 807 402 807 411 807 c 128,-1,8
 420 807 420 807 432 821 c 0,9,10
 526 937 526 937 667 995 c 128,-1,11
 808 1053 808 1053 969 1053 c 0,12,13
 1239 1053 1239 1053 1396 922.5 c 128,-1,14
 1553 792 1553 792 1553 540 c 2,15,-1
 1553 8 l 1,16,17
 1552 -200 1552 -200 1435 -298.5 c 128,-1,18
 1318 -397 1318 -397 1086 -402 c 1,19,20
 1055.86351959 -405.013648041 1055.86351959 -405.013648041 1023.09662962 -405.013648041 c 0,21,22
 973.109184329 -405.013648041 973.109184329 -405.013648041 917 -398 c 1,23,24
 853 -395 853 -395 853 -325 c 2,25,-1
 853 -245 l 2,26,27
 853 -181.869565217 853 -181.869565217 910.640831758 -181.869565217 c 0,28,29
 913.260869565 -181.869565217 913.260869565 -181.869565217 916 -182 c 1,30,31
 936 -184 936 -184 1040 -184 c 128,-1,32
 1144 -184 1144 -184 1182 -128 c 128,-1,33
 1220 -72 1220 -72 1220 54 c 2,34,-1
 1220 573 l 2,35,36
 1220 715 1220 715 1130.5 787 c 128,-1,37
 1041 859 1041 859 894 859 c 0,38,39
 798 859 798 859 702 815.5 c 128,-1,40
 606 772 606 772 545.5 705 c 128,-1,41
 485 638 485 638 485 573 c 2,42,-1
 485 70 l 2,43,44
 485 38 485 38 466 19 c 128,-1,45
 447 0 447 0 415 0 c 2,46,-1
 222 0 l 2,47,48
 190 0 190 0 171.5 19 c 128,-1,49
 153 38 153 38 153 70 c 2,50,-1
 153 929 l 2,0,1
EndSplineSet
EndChar

StartChar: OE
Encoding: 338 338 275
Width: 2927
GlyphClass: 2
Flags: W
LayerCount: 2
Fore
SplineSet
1226 230 m 2,0,-1
 1322 230 l 2,1,2
 1326 230 1326 230 1333.5 239.5 c 128,-1,3
 1341 249 1341 249 1341 254 c 2,4,-1
 1341 1186 l 2,5,6
 1341 1190 1341 1190 1330.5 1199.5 c 128,-1,7
 1320 1209 1320 1209 1316 1209 c 2,8,-1
 1227 1209 l 2,9,10
 533 1209 533 1209 533 723 c 0,11,12
 533 230 533 230 1226 230 c 2,0,-1
2719 0 m 2,13,-1
 1284 -1 l 2,14,15
 132 -1 132 -1 132 723 c 0,16,17
 132 1063.37714286 132 1063.37714286 412.5 1244.5 c 0,18,19
 712.168141593 1438 712.168141593 1438 1261 1438 c 2,20,-1
 2697 1438 l 2,21,22
 2728 1438 2728 1438 2747.5 1416 c 128,-1,23
 2767 1394 2767 1394 2767 1361 c 2,24,-1
 2767 1288 l 2,25,26
 2767 1255 2767 1255 2748 1233 c 128,-1,27
 2729 1211 2729 1211 2697 1211 c 2,28,-1
 1753 1211 l 2,29,30
 1724 1211 1724 1211 1724 1183 c 2,31,-1
 1724 870 l 2,32,33
 1724 865 1724 865 1732 852.5 c 128,-1,34
 1740 840 1740 840 1744 840 c 2,35,-1
 2564 840 l 2,36,37
 2596 840 2596 840 2615 818 c 128,-1,38
 2634 796 2634 796 2634 763 c 2,39,-1
 2634 715 l 2,40,41
 2634 682 2634 682 2615 660 c 128,-1,42
 2596 638 2596 638 2564 638 c 2,43,-1
 1748 638 l 2,44,45
 1744 638 1744 638 1734 628.5 c 128,-1,46
 1724 619 1724 619 1724 615 c 2,47,-1
 1724 248 l 2,48,49
 1724 243 1724 243 1732 234 c 128,-1,50
 1740 225 1740 225 1744 225 c 2,51,-1
 2719 225 l 2,52,53
 2751 225 2751 225 2769.5 203.5 c 128,-1,54
 2788 182 2788 182 2788 149 c 2,55,-1
 2788 77 l 2,56,57
 2788 44 2788 44 2769 22 c 128,-1,58
 2750 0 2750 0 2719 0 c 2,13,-1
EndSplineSet
EndChar

